SplineFontDB: 1.0
FontName: THNiramitAS
FullName: THNiramitAS
FamilyName: TH Niramit AS
Weight: Book
Copyright: Copyright (c) 2006 by Department of Intellectual Property (DIP), Ministry of Commerce and Software Industry Promotion Agency (Public Organization) (SIPA). All rights reserved.
Version: 1.1
ItalicAngle: 0
UnderlinePosition: -35
UnderlineWidth: 30
Ascent: 800
Descent: 200
Order2: 1
XUID: [1021 375 425136265 12552537]
FSType: 0
OS2Version: 3
OS2_WeightWidthSlopeOnly: 0
OS2_UseTypoMetrics: 1
CreationTime: 1157457519
ModificationTime: 1174407156
PfmFamily: 17
TTFWeight: 400
TTFWidth: 5
LineGap: 60
VLineGap: 0
Panose: 2 0 5 6 0 0 0 2 0 4
OS2TypoAscent: 0
OS2TypoAOffset: 1
OS2TypoDescent: 0
OS2TypoDOffset: 1
OS2TypoLinegap: 0
OS2WinAscent: 17
OS2WinAOffset: 1
OS2WinDescent: 9
OS2WinDOffset: 1
HheadAscent: -39
HheadAOffset: 1
HheadDescent: 276
HheadDOffset: 1
OS2SubXSize: 700
OS2SubYSize: 650
OS2SubXOff: 0
OS2SubYOff: 140
OS2SupXSize: 700
OS2SupYSize: 650
OS2SupXOff: 0
OS2SupYOff: 477
OS2StrikeYSize: 30
OS2StrikeYPos: 250
OS2FamilyClass: 773
OS2Vendor: 'IPTH'
ScriptLang: 2
 1 latn 1 dflt 
 0 
ChainSub: coverage 0 0 'liga' 0 0 0 1
 1 0 1
  Coverage: 64 uni0E48.alt2 uni0E49.alt2 uni0E4A.alt2 uni0E4B.alt2 uni0E4C.alt2
  FCoverage: 7 uni0E33
 1
  SeqLookup: 0 'L027'
EndFPST
ChainSub: coverage 0 0 'liga' 0 0 0 1
 1 1 0
  Coverage: 7 uni0E47
  BCoverage: 12 uni0E2C.alt1
 1
  SeqLookup: 0 'L026'
EndFPST
ChainSub: coverage 0 0 'liga' 0 0 0 1
 1 0 1
  Coverage: 7 uni0E2C
  FCoverage: 39 uni0E34 uni0E35 uni0E36 uni0E37 uni0E47
 1
  SeqLookup: 0 'L026'
EndFPST
ChainSub: coverage 0 0 'liga' 0 0 0 1
 1 0 1
  Coverage: 15 uni0E0E uni0E0F
  FCoverage: 38 uni0E38.alt1 uni0E39.alt1 uni0E3A.alt1
 1
  SeqLookup: 0 'L026'
EndFPST
ChainSub: coverage 0 0 'liga' 0 0 0 1
 1 1 0
  Coverage: 5 a b c
  BCoverage: 23 uni0E1B uni0E1D uni0E1F
 1
  SeqLookup: 0 'L026'
EndFPST
ChainSub: coverage 0 0 'liga' 0 0 0 1
 1 0 1
  Coverage: 5 a b c

StartChar: .notdef
Encoding: 65536 -1 0
Width: 500
Flags: W
Fore
402 35 m 1,0,-1
 402 660 l 1,1,-1
 97 660 l 1,2,-1
 97 35 l 1,3,-1
 402 35 l 1,0,-1
436 0 m 1,4,-1
 63 0 l 1,5,-1
 63 695 l 1,6,-1
 436 695 l 1,7,-1
 436 0 l 1,4,-1
EndSplineSet
EndChar
StartChar: numbersign
Encoding: 35 35 4
Width: 341
Flags: W
Fore
252 291 m 1,0,1
 249 263 249 263 245 236 c 128,-1,2
 241 209 241 209 238 180 c 1,3,-1
 307 180 l 1,4,-1
 307 149 l 1,5,-1
 235 149 l 1,6,7
 230 111 230 111 225.5 74.5 c 128,-1,8
 221 38 221 38 216 0 c 1,9,-1
 181 0 l 1,10,-1
 200 149 l 1,11,-1
 117 149 l 1,12,-1
 99 0 l 1,13,-1
 64 0 l 1,14,-1
 82 149 l 1,15,-1
 18 149 l 1,16,-1
 18 180 l 1,17,-1
 86 180 l 1,18,19
 89 209 89 209 93 236 c 128,-1,20
 97 263 97 263 100 291 c 1,21,-1
 32 291 l 1,22,-1
 32 323 l 1,23,-1
 104 323 l 1,24,25
 109 358 109 358 113.5 395 c 128,-1,26
 118 432 118 432 123 467 c 1,27,-1
 156 467 l 1,28,-1
 138 323 l 1,29,-1
 222 323 l 1,30,31
 227 358 227 358 231 395 c 128,-1,32
 235 432 235 432 239 467 c 1,33,-1
 274 467 l 1,34,-1
 256 323 l 1,35,-1
 321 323 l 1,36,-1
 321 291 l 1,37,-1
 252 291 l 1,0,1
134 291 m 1,38,39
 132 263 132 263 128 236 c 128,-1,40
 124 209 124 209 121 180 c 1,41,-1
 204 180 l 1,42,43
 207 209 207 209 211 236 c 128,-1,44
 215 263 215 263 218 291 c 1,45,-1
 134 291 l 1,38,39
EndSplineSet
EndChar
StartChar: dollar
Encoding: 36 36 5
Width: 380
Flags: W
Fore
171 445 m 1,0,1
 130 441 130 441 106.5 418 c 128,-1,2
 83 395 83 395 83 363 c 0,3,4
 83 333 83 333 106 309.5 c 128,-1,5
 129 286 129 286 171 267 c 1,6,-1
 171 445 l 1,0,1
171 535 m 1,7,-1
 206 535 l 1,8,-1
 206 484 l 1,9,10
 238 481 238 481 270.5 470.5 c 128,-1,11
 303 460 303 460 324 444 c 1,12,-1
 304 410 l 1,13,14
 287 421 287 421 262.5 431.5 c 128,-1,15
 238 442 238 442 206 445 c 1,16,-1
 206 252 l 1,17,18
 238 241 238 241 265 229.5 c 128,-1,19
 292 218 292 218 312 202.5 c 128,-1,20
 332 187 332 187 343 166.5 c 128,-1,21
 354 146 354 146 354 118 c 0,22,23
 354 64 354 64 317.5 28.5 c 128,-1,24
 281 -7 281 -7 206 -12 c 1,25,-1
 206 -60 l 1,26,-1
 171 -60 l 1,27,-1
 171 -12 l 1,28,29
 118 -9 118 -9 83.5 11.5 c 128,-1,30
 49 32 49 32 29 50 c 1,31,-1
 61 81 l 1,32,33
 77 65 77 65 103 47 c 128,-1,34
 129 29 129 29 171 24 c 1,35,-1
 171 221 l 1,36,37
 108 244 108 244 76 279.5 c 128,-1,38
 44 315 44 315 41 356 c 0,39,40
 39 379 39 379 46.5 401 c 128,-1,41
 54 423 54 423 70.5 440.5 c 128,-1,42
 87 458 87 458 112.5 470 c 128,-1,43
 138 482 138 482 171 484 c 1,44,-1
 171 535 l 1,7,-1
206 25 m 1,45,46
 253 29 253 29 283.5 52 c 128,-1,47
 314 75 314 75 314 108 c 0,48,49
 314 142 314 142 290 163.5 c 128,-1,50
 266 185 266 185 206 208 c 1,51,-1
 206 25 l 1,45,46
EndSplineSet
EndChar
StartChar: percent
Encoding: 37 37 6
Width: 585
Flags: W
Fore
428 485 m 1,0,-1
 180 -11 l 1,1,-1
 146 -11 l 1,2,-1
 393 485 l 1,3,-1
 428 485 l 1,0,-1
424 251 m 0,4,5
 446 251 446 251 463.5 240.5 c 128,-1,6
 481 230 481 230 493 213 c 128,-1,7
 505 196 505 196 511.5 173 c 128,-1,8
 518 150 518 150 518 126 c 256,9,10
 518 102 518 102 511.5 79.5 c 128,-1,11
 505 57 505 57 493 40 c 128,-1,12
 481 23 481 23 463.5 12.5 c 128,-1,13
 446 2 446 2 424 2 c 0,14,15
 401 2 401 2 383.5 12.5 c 128,-1,16
 366 23 366 23 354 40 c 128,-1,17
 342 57 342 57 336 79.5 c 128,-1,18
 330 102 330 102 330 126 c 256,19,20
 330 150 330 150 336 173 c 128,-1,21
 342 196 342 196 354 213 c 128,-1,22
 366 230 366 230 383.5 240.5 c 128,-1,23
 401 251 401 251 424 251 c 0,4,5
424 31 m 0,24,25
 441 31 441 31 453 40 c 128,-1,26
 465 49 465 49 472.5 63 c 128,-1,27
 480 77 480 77 483 93.5 c 128,-1,28
 486 110 486 110 486 126 c 256,29,30
 486 142 486 142 483 159 c 128,-1,31
 480 176 480 176 472.5 189.5 c 128,-1,32
 465 203 465 203 453 212 c 128,-1,33
 441 221 441 221 424 221 c 0,34,35
 406 221 406 221 394.5 212 c 128,-1,36
 383 203 383 203 375.5 189.5 c 128,-1,37
 368 176 368 176 365 159 c 128,-1,38
 362 142 362 142 362 126 c 256,39,40
 362 110 362 110 365 93.5 c 128,-1,41
 368 77 368 77 375.5 63 c 128,-1,42
 383 49 383 49 394.5 40 c 128,-1,43
 406 31 406 31 424 31 c 0,24,25
254 353 m 0,44,45
 254 328 254 328 247.5 305.5 c 128,-1,46
 241 283 241 283 229 265.5 c 128,-1,47
 217 248 217 248 199.5 238 c 128,-1,48
 182 228 182 228 160 228 c 256,49,50
 138 228 138 228 120.5 238 c 128,-1,51
 103 248 103 248 91 265.5 c 128,-1,52
 79 283 79 283 72.5 305.5 c 128,-1,53
 66 328 66 328 66 353 c 0,54,55
 66 377 66 377 72.5 399.5 c 128,-1,56
 79 422 79 422 91 439 c 128,-1,57
 103 456 103 456 120.5 466.5 c 128,-1,58
 138 477 138 477 160 477 c 256,59,60
 182 477 182 477 199.5 466.5 c 128,-1,61
 217 456 217 456 229 439 c 128,-1,62
 241 422 241 422 247.5 399.5 c 128,-1,63
 254 377 254 377 254 353 c 0,44,45
99 353 m 0,64,65
 99 336 99 336 102 319.5 c 128,-1,66
 105 303 105 303 112 289 c 128,-1,67
 119 275 119 275 131 266.5 c 128,-1,68
 143 258 143 258 160 258 c 0,69,70
 178 258 178 258 189.5 266.5 c 128,-1,71
 201 275 201 275 208.5 289 c 128,-1,72
 216 303 216 303 219 319.5 c 128,-1,73
 222 336 222 336 222 353 c 0,74,75
 222 369 222 369 219 385.5 c 128,-1,76
 216 402 216 402 208.5 415.5 c 128,-1,77
 201 429 201 429 189.5 438 c 128,-1,78
 178 447 178 447 160 447 c 0,79,80
 143 447 143 447 131 438 c 128,-1,81
 119 429 119 429 112 415.5 c 128,-1,82
 105 402 105 402 102 385.5 c 128,-1,83
 99 369 99 369 99 353 c 0,64,65
EndSplineSet
EndChar
StartChar: ampersand
Encoding: 38 38 7
Width: 429
Flags: W
Fore
424 3 m 1,0,-1
 368 3 l 1,1,-1
 318 65 l 1,2,3
 291 30 291 30 260 11.5 c 128,-1,4
 229 -7 229 -7 187 -7 c 0,5,6
 155 -7 155 -7 126.5 2.5 c 128,-1,7
 98 12 98 12 77 30 c 128,-1,8
 56 48 56 48 43.5 74 c 128,-1,9
 31 100 31 100 31 133 c 0,10,11
 31 160 31 160 40.5 181.5 c 128,-1,12
 50 203 50 203 65 220 c 128,-1,13
 80 237 80 237 98.5 251.5 c 128,-1,14
 117 266 117 266 135 280 c 1,15,16
 136 282 136 282 136.5 282 c 128,-1,17
 137 282 137 282 138 283 c 1,18,19
 118 308 118 308 99.5 336.5 c 128,-1,20
 81 365 81 365 81 401 c 0,21,22
 81 423 81 423 89 439 c 128,-1,23
 97 455 97 455 110.5 465.5 c 128,-1,24
 124 476 124 476 141 481.5 c 128,-1,25
 158 487 158 487 175 487 c 0,26,27
 193 487 193 487 210 482 c 128,-1,28
 227 477 227 477 240.5 466.5 c 128,-1,29
 254 456 254 456 262 440.5 c 128,-1,30
 270 425 270 425 270 403 c 0,31,32
 270 382 270 382 263 364 c 128,-1,33
 256 346 256 346 245 331 c 128,-1,34
 234 316 234 316 220 303 c 128,-1,35
 206 290 206 290 192 278 c 1,36,-1
 317 130 l 1,37,38
 329 161 329 161 336 201 c 128,-1,39
 343 241 343 241 344 278 c 1,40,-1
 383 276 l 1,41,42
 378 230 378 230 371 185 c 128,-1,43
 364 140 364 140 343 101 c 1,44,-1
 424 3 l 1,0,-1
123 400 m 256,45,46
 123 374 123 374 138.5 348.5 c 128,-1,47
 154 323 154 323 169 306 c 1,48,49
 178 316 178 316 188.5 326 c 128,-1,50
 199 336 199 336 208 347 c 128,-1,51
 217 358 217 358 223 371 c 128,-1,52
 229 384 229 384 229 400 c 0,53,54
 229 424 229 424 213 435.5 c 128,-1,55
 197 447 197 447 176 447 c 0,56,57
 156 447 156 447 139.5 436.5 c 128,-1,58
 123 426 123 426 123 400 c 256,45,46
184 32 m 0,59,60
 219 32 219 32 245.5 48.5 c 128,-1,61
 272 65 272 65 295 94 c 1,62,-1
 162 253 l 1,63,64
 151 245 151 245 136 232.5 c 128,-1,65
 121 220 121 220 107 205 c 128,-1,66
 93 190 93 190 83 174 c 128,-1,67
 73 158 73 158 73 142 c 0,68,69
 73 116 73 116 82.5 96 c 128,-1,70
 92 76 92 76 107.5 61.5 c 128,-1,71
 123 47 123 47 143 39.5 c 128,-1,72
 163 32 163 32 184 32 c 0,59,60
EndSplineSet
EndChar
StartChar: quotesingle
Encoding: 39 39 8
Width: 179
Flags: W
Fore
113 393 m 1,0,-1
 104 307 l 1,1,-1
 76 307 l 1,2,-1
 66 393 l 1,3,-1
 66 469 l 1,4,-1
 113 469 l 1,5,-1
 113 393 l 1,0,-1
EndSplineSet
EndChar
StartChar: parenleft
Encoding: 40 40 9
Width: 200
Flags: W
Fore
165 -80 m 1,0,-1
 135 -80 l 1,1,2
 85 -11 85 -11 61 62.5 c 128,-1,3
 37 136 37 136 37 205 c 256,4,5
 37 274 37 274 59.5 343.5 c 128,-1,6
 82 413 82 413 135 494 c 1,7,-1
 163 494 l 1,8,9
 118 423 118 423 96.5 348 c 128,-1,10
 75 273 75 273 75 203 c 0,11,12
 75 131 75 131 97 58.5 c 128,-1,13
 119 -14 119 -14 165 -80 c 1,0,-1
EndSplineSet
EndChar
StartChar: parenright
Encoding: 41 41 10
Width: 200
Flags: W
Fore
35 -79 m 1,0,1
 81 -13 81 -13 103 59.5 c 128,-1,2
 125 132 125 132 125 204 c 0,3,4
 125 274 125 274 103.5 349 c 128,-1,5
 82 424 82 424 37 495 c 1,6,-1
 65 495 l 1,7,8
 118 414 118 414 140.5 344.5 c 128,-1,9
 163 275 163 275 163 206 c 256,10,11
 163 137 163 137 139 63.5 c 128,-1,12
 115 -10 115 -10 65 -79 c 1,13,-1
 35 -79 l 1,14,-1
 35 -79 l 1,0,1
EndSplineSet
EndChar
StartChar: asterisk
Encoding: 42 42 11
Width: 353
Flags: W
Fore
186 353 m 1,0,-1
 242 279 l 2,1,2
 246 272 246 272 243 264 c 128,-1,3
 240 256 240 256 232 254 c 0,4,5
 216 249 216 249 211 262 c 2,6,-1
 177 347 l 1,7,8
 174 339 174 339 168 326 c 128,-1,9
 162 313 162 313 156.5 299.5 c 128,-1,10
 151 286 151 286 146 274.5 c 128,-1,11
 141 263 141 263 139 259 c 1,12,13
 135 254 135 254 128.5 253.5 c 128,-1,14
 122 253 122 253 117 255 c 0,15,16
 111 258 111 258 109 264.5 c 128,-1,17
 107 271 107 271 110 276 c 0,18,19
 112 280 112 280 119.5 290 c 128,-1,20
 127 300 127 300 136 312 c 128,-1,21
 145 324 145 324 154 335.5 c 128,-1,22
 163 347 163 347 168 354 c 1,23,-1
 76 340 l 1,24,25
 70 338 70 338 64.5 343 c 128,-1,26
 59 348 59 348 58 353 c 0,27,28
 56 361 56 361 61.5 369 c 128,-1,29
 67 377 67 377 75 376 c 2,30,-1
 166 364 l 1,31,-1
 111 438 l 2,32,33
 106 444 106 444 109.5 452.5 c 128,-1,34
 113 461 113 461 122 463 c 1,35,36
 128 466 128 466 134 463 c 128,-1,37
 140 460 140 460 142 455 c 2,38,-1
 176 370 l 1,39,40
 179 377 179 377 185 390 c 128,-1,41
 191 403 191 403 196.5 417 c 128,-1,42
 202 431 202 431 207 442.5 c 128,-1,43
 212 454 212 454 214 458 c 1,44,45
 218 463 218 463 224.5 464 c 128,-1,46
 231 465 231 465 236 462 c 1,47,48
 241 460 241 460 244 453 c 128,-1,49
 247 446 247 446 243 441 c 1,50,51
 241 437 241 437 233.5 427 c 128,-1,52
 226 417 226 417 217 405 c 128,-1,53
 208 393 208 393 199.5 382 c 128,-1,54
 191 371 191 371 186 364 c 1,55,-1
 277 377 l 1,56,57
 284 377 284 377 289 374 c 128,-1,58
 294 371 294 371 294 363 c 2,59,60
 298 355 298 355 292 347.5 c 128,-1,61
 286 340 286 340 278 341 c 2,62,-1
 186 353 l 1,0,-1
EndSplineSet
EndChar
StartChar: plus
Encoding: 43 43 12
Width: 386
Flags: W
Fore
175 326 m 1,0,-1
 211 326 l 1,1,-1
 211 183 l 1,2,-1
 339 183 l 1,3,-1
 339 144 l 1,4,-1
 211 144 l 1,5,-1
 211 0 l 1,6,-1
 175 0 l 1,7,-1
 175 144 l 1,8,-1
 47 144 l 1,9,-1
 47 183 l 1,10,-1
 175 183 l 1,11,-1
 175 326 l 1,0,-1
EndSplineSet
EndChar
StartChar: comma
Encoding: 44 44 13
Width: 200
Flags: W
Fore
55 -52 m 1,0,1
 75 -44 75 -44 90 -28.5 c 128,-1,2
 105 -13 105 -13 107 1 c 1,3,4
 90 -6 90 -6 75 5.5 c 128,-1,5
 60 17 60 17 60 35 c 0,6,7
 60 46 60 46 70 59 c 128,-1,8
 80 72 80 72 98 72 c 0,9,10
 119 72 119 72 130.5 59.5 c 128,-1,11
 142 47 142 47 142 26 c 0,12,13
 142 6 142 6 135 -10 c 128,-1,14
 128 -26 128 -26 117.5 -39 c 128,-1,15
 107 -52 107 -52 94 -61 c 128,-1,16
 81 -70 81 -70 70 -75 c 1,17,18
 68 -72 l 130,-1,19
 66 -69 66 -69 63 -64.5 c 128,-1,20
 60 -60 60 -60 57.5 -56.5 c 128,-1,21
 55 -53 55 -53 55 -52 c 1,0,1
EndSplineSet
EndChar
StartChar: hyphen
Encoding: 45 45 14
Width: 386
Flags: W
Fore
47 183 m 1,0,-1
 339 183 l 1,1,-1
 339 144 l 1,2,-1
 47 144 l 1,3,-1
 47 183 l 1,0,-1
EndSplineSet
EndChar
StartChar: period
Encoding: 46 46 15
Width: 181
Flags: W
Fore
90 0 m 256,0,1
 72 0 72 0 63 11.5 c 128,-1,2
 54 23 54 23 54 36.5 c 128,-1,3
 54 50 54 50 63 61.5 c 128,-1,4
 72 73 72 73 90 73 c 256,5,6
 108 73 108 73 117 61.5 c 128,-1,7
 126 50 126 50 126 36.5 c 128,-1,8
 126 23 126 23 117 11.5 c 128,-1,9
 108 0 108 0 90 0 c 256,0,1
EndSplineSet
EndChar
StartChar: slash
Encoding: 47 47 16
Width: 174
Flags: W
Fore
31 -41 m 1,0,-1
 -5 -41 l 1,1,-1
 146 497 l 1,2,-1
 185 497 l 1,3,-1
 31 -41 l 1,0,-1
EndSplineSet
EndChar
StartChar: zero
Encoding: 48 48 17
Width: 394
Flags: W
Fore
197 -7 m 256,0,1
 131 -7 131 -7 88 38 c 0,2,3
 58 70 58 70 42.5 119 c 128,-1,4
 27 168 27 168 27 240 c 0,5,6
 27 325 27 325 46.5 375 c 128,-1,7
 66 425 66 425 93 450.5 c 128,-1,8
 120 476 120 476 149 483.5 c 128,-1,9
 178 491 178 491 197 491 c 0,10,11
 263 491 263 491 306 446 c 0,12,13
 366 383 366 383 366 240 c 0,14,15
 366 168 366 168 351 119 c 128,-1,16
 336 70 336 70 306 38 c 0,17,18
 263 -7 263 -7 197 -7 c 256,0,1
68 240 m 0,19,20
 68 118 68 118 117 69 c 0,21,22
 147 37 147 37 197 37 c 0,23,24
 237 37 237 37 262 55.5 c 128,-1,25
 287 74 287 74 301 103 c 128,-1,26
 315 132 315 132 320 168 c 128,-1,27
 325 204 325 204 325 240 c 0,28,29
 325 365 325 365 277 415 c 0,30,31
 245 448 245 448 197 448 c 0,32,33
 148 448 148 448 117 415 c 0,34,35
 68 364 68 364 68 240 c 0,19,20
EndSplineSet
EndChar
StartChar: one
Encoding: 49 49 18
Width: 285
Flags: W
Fore
79 339 m 1,0,-1
 48 367 l 1,1,-1
 178 477 l 1,2,3
 186 482 186 482 193 480.5 c 128,-1,4
 200 479 200 479 209 474 c 0,5,6
 216 469 216 469 219 461.5 c 128,-1,7
 222 454 222 454 214 447 c 0,8,9
 211 445 211 445 208.5 443 c 128,-1,10
 206 441 206 441 204 439 c 0,11,12
 201 437 201 437 199 436 c 1,13,-1
 199 -1 l 1,14,-1
 157 -1 l 1,15,-1
 157 403 l 1,16,-1
 79 339 l 1,0,-1
EndSplineSet
EndChar
StartChar: two
Encoding: 50 50 19
Width: 380
Flags: W
Fore
328 0 m 1,0,-1
 52 0 l 2,1,2
 38 0 38 0 33 2.5 c 128,-1,3
 28 5 28 5 31 22 c 0,4,5
 33 32 33 32 34 36.5 c 128,-1,6
 35 41 35 41 37 42.5 c 128,-1,7
 39 44 39 44 42 43.5 c 128,-1,8
 45 43 45 43 50 43 c 1,9,10
 62 65 62 65 89.5 92.5 c 128,-1,11
 117 120 117 120 148 146 c 0,12,13
 173 167 173 167 198.5 189.5 c 128,-1,14
 224 212 224 212 244.5 236.5 c 128,-1,15
 265 261 265 261 276.5 286.5 c 128,-1,16
 288 312 288 312 287 339 c 0,17,18
 285 378 285 378 265 402 c 128,-1,19
 245 426 245 426 217.5 434 c 128,-1,20
 190 442 190 442 160 434 c 128,-1,21
 130 426 130 426 109 400 c 0,22,23
 95 379 95 379 92.5 355.5 c 128,-1,24
 90 332 90 332 94 315 c 1,25,-1
 55 305 l 1,26,27
 53 314 53 314 52 327.5 c 128,-1,28
 51 341 51 341 52.5 356.5 c 128,-1,29
 54 372 54 372 60 389.5 c 128,-1,30
 66 407 66 407 78 425 c 0,31,32
 91 443 91 443 109 455 c 128,-1,33
 127 467 127 467 148 473 c 128,-1,34
 169 479 169 479 191.5 478.5 c 128,-1,35
 214 478 214 478 235 472 c 0,36,37
 276 460 276 460 301 426 c 128,-1,38
 326 392 326 392 329 341 c 0,39,40
 331 306 331 306 317 274.5 c 128,-1,41
 303 243 303 243 279.5 214.5 c 128,-1,42
 256 186 256 186 227.5 160.5 c 128,-1,43
 199 135 199 135 172 113 c 0,44,45
 153 97 153 97 133.5 78.5 c 128,-1,46
 114 60 114 60 101 43 c 1,47,-1
 302 43 l 1,48,-1
 321 80 l 1,49,50
 321 81 321 81 326.5 78 c 128,-1,51
 332 75 332 75 339 71 c 2,52,-1
 357 61 l 1,53,-1
 328 0 l 1,0,-1
EndSplineSet
EndChar
StartChar: three
Encoding: 51 51 20
Width: 398
Flags: W
Fore
62 142 m 1,0,1
 71 108 71 108 87.5 85.5 c 128,-1,2
 104 63 104 63 124 50 c 128,-1,3
 144 37 144 37 166.5 32 c 128,-1,4
 189 27 189 27 210 29 c 0,5,6
 249 32 249 32 276.5 60.5 c 128,-1,7
 304 89 304 89 314.5 126.5 c 128,-1,8
 325 164 325 164 315 202 c 128,-1,9
 305 240 305 240 271 261 c 0,10,11
 243 278 243 278 215 277 c 128,-1,12
 187 276 187 276 172 268 c 0,13,14
 171 267 171 267 168 264 c 128,-1,15
 165 261 165 261 161 256 c 256,16,17
 157 251 157 251 151 245 c 0,18,19
 144 238 144 238 138.5 241.5 c 128,-1,20
 133 245 133 245 127 250 c 0,21,22
 120 257 120 257 118 262 c 128,-1,23
 116 267 116 267 121 273 c 2,24,-1
 260 431 l 1,25,-1
 97 431 l 1,26,-1
 76 370 l 1,27,28
 66 375 66 375 58 379 c 0,29,30
 51 382 51 382 45.5 384.5 c 128,-1,31
 40 387 40 387 40 388 c 2,32,-1
 66 473 l 1,33,-1
 322 473 l 2,34,35
 331 473 331 473 334 469.5 c 128,-1,36
 337 466 337 466 334 452 c 0,37,38
 331 436 331 436 329.5 433.5 c 128,-1,39
 328 431 328 431 319 431 c 2,40,-1
 314 431 l 1,41,-1
 211 320 l 1,42,43
 252 320 252 320 290 299 c 0,44,45
 300 293 300 293 311 284 c 128,-1,46
 322 275 322 275 332 261.5 c 128,-1,47
 342 248 342 248 349 229.5 c 128,-1,48
 356 211 356 211 358 187 c 0,49,50
 362 143 362 143 350 108 c 128,-1,51
 338 73 338 73 317 47.5 c 128,-1,52
 296 22 296 22 268.5 8 c 128,-1,53
 241 -6 241 -6 213 -6 c 0,54,55
 184 -6 184 -6 156 -1 c 128,-1,56
 128 4 128 4 103 18.5 c 128,-1,57
 78 33 78 33 57.5 60 c 128,-1,58
 37 87 37 87 24 130 c 1,59,-1
 62 142 l 1,0,1
EndSplineSet
EndChar
StartChar: four
Encoding: 52 52 21
Width: 362
Flags: W
Fore
244 147 m 1,0,-1
 244 383 l 1,1,-1
 68 147 l 1,2,-1
 244 147 l 1,0,-1
244 107 m 1,3,-1
 27 107 l 2,4,5
 24 107 24 107 20.5 110 c 128,-1,6
 17 113 17 113 14 118.5 c 128,-1,7
 11 124 11 124 10.5 130 c 128,-1,8
 10 136 10 136 13 141 c 2,9,-1
 264 477 l 2,10,11
 268 484 268 484 273.5 481.5 c 128,-1,12
 279 479 279 479 283.5 473 c 128,-1,13
 288 467 288 467 291 460.5 c 128,-1,14
 294 454 294 454 292 452 c 1,15,-1
 286 440 l 1,16,-1
 286 147 l 1,17,-1
 351 147 l 1,18,-1
 351 107 l 1,19,-1
 286 107 l 1,20,-1
 286 0 l 1,21,-1
 244 0 l 1,22,-1
 244 107 l 1,3,-1
EndSplineSet
EndChar
StartChar: five
Encoding: 53 53 22
Width: 398
Flags: W
Fore
44 226 m 1,0,1
 47 236 47 236 51.5 261.5 c 128,-1,2
 56 287 56 287 61 318.5 c 128,-1,3
 66 350 66 350 71 382 c 128,-1,4
 76 414 76 414 79 438 c 1,5,6
 76 440 76 440 73.5 445 c 128,-1,7
 71 450 71 450 74 461 c 256,8,9
 77 472 77 472 81 473.5 c 128,-1,10
 85 475 85 475 95 475 c 2,11,-1
 345 475 l 1,12,-1
 345 433 l 1,13,-1
 121 433 l 1,14,15
 119 412 119 412 111.5 374.5 c 128,-1,16
 104 337 104 337 99 300 c 1,17,18
 171 354 171 354 253 333 c 0,19,20
 292 323 292 323 316 300 c 128,-1,21
 340 277 340 277 352 247 c 128,-1,22
 364 217 364 217 365 183.5 c 128,-1,23
 366 150 366 150 359 120 c 0,24,25
 354 99 354 99 343.5 79.5 c 128,-1,26
 333 60 333 60 317.5 43.5 c 128,-1,27
 302 27 302 27 282 15 c 128,-1,28
 262 3 262 3 239 -3 c 0,29,30
 224 -7 224 -7 203 -8.5 c 128,-1,31
 182 -10 182 -10 157.5 -4.5 c 128,-1,32
 133 1 133 1 105.5 15.5 c 128,-1,33
 78 30 78 30 50 58 c 1,34,-1
 78 89 l 1,35,36
 120 51 120 51 152.5 39 c 128,-1,37
 185 27 185 27 226 37 c 0,38,39
 261 45 261 45 286 72 c 128,-1,40
 311 99 311 99 319 129 c 0,41,42
 322 141 322 141 323.5 164 c 128,-1,43
 325 187 325 187 318.5 212.5 c 128,-1,44
 312 238 312 238 294 260.5 c 128,-1,45
 276 283 276 283 239 293 c 0,46,47
 186 307 186 307 144 284.5 c 128,-1,48
 102 262 102 262 81 212 c 1,49,50
 71 216 71 216 63 219 c 0,51,52
 56 221 56 221 50.5 223 c 128,-1,53
 45 225 45 225 44 226 c 1,0,1
EndSplineSet
EndChar
StartChar: six
Encoding: 54 54 23
Width: 405
Flags: W
Fore
301 68 m 0,0,1
 318 90 318 90 325 118.5 c 128,-1,2
 332 147 332 147 327 181 c 0,3,4
 322 217 322 217 302 241 c 128,-1,5
 282 265 282 265 254 274 c 128,-1,6
 226 283 226 283 195 277 c 128,-1,7
 164 271 164 271 138 249 c 0,8,9
 128 240 128 240 118 226.5 c 128,-1,10
 108 213 108 213 101.5 195.5 c 128,-1,11
 95 178 95 178 93.5 157 c 128,-1,12
 92 136 92 136 98 111 c 0,13,14
 106 81 106 81 130.5 59.5 c 128,-1,15
 155 38 155 38 185.5 30.5 c 128,-1,16
 216 23 216 23 247.5 31.5 c 128,-1,17
 279 40 279 40 301 68 c 0,0,1
324 356 m 1,18,19
 316 391 316 391 292 413 c 128,-1,20
 268 435 268 435 238 441 c 128,-1,21
 208 447 208 447 176 436.5 c 128,-1,22
 144 426 144 426 122 396 c 0,23,24
 111 381 111 381 101.5 359.5 c 128,-1,25
 92 338 92 338 85.5 313.5 c 128,-1,26
 79 289 79 289 75.5 264 c 128,-1,27
 72 239 72 239 74 218 c 1,28,29
 90 257 90 257 116.5 280.5 c 128,-1,30
 143 304 143 304 173 313.5 c 128,-1,31
 203 323 203 323 235 319.5 c 128,-1,32
 267 316 267 316 294 299.5 c 128,-1,33
 321 283 321 283 340.5 255 c 128,-1,34
 360 227 360 227 366 188 c 0,35,36
 373 146 373 146 364 108.5 c 128,-1,37
 355 71 355 71 332.5 43.5 c 128,-1,38
 310 16 310 16 275.5 1.5 c 128,-1,39
 241 -13 241 -13 198 -10 c 0,40,41
 149 -7 149 -7 115.5 19 c 128,-1,42
 82 45 82 45 63 84 c 128,-1,43
 44 123 44 123 38 171 c 128,-1,44
 32 219 32 219 37.5 266 c 128,-1,45
 43 313 43 313 58 355 c 128,-1,46
 73 397 73 397 97 425 c 0,47,48
 125 459 125 459 165.5 472 c 128,-1,49
 206 485 206 485 245 478 c 128,-1,50
 284 471 284 471 315.5 443 c 128,-1,51
 347 415 347 415 359 366 c 1,52,-1
 324 356 l 1,18,19
EndSplineSet
EndChar
StartChar: seven
Encoding: 55 55 24
Width: 363
Flags: W
Fore
33 370 m 1,0,1
 29 391 29 391 26 409 c 0,2,3
 24 424 24 424 22 437 c 128,-1,4
 20 450 20 450 20 452 c 0,5,6
 20 461 20 461 26 467.5 c 128,-1,7
 32 474 32 474 41 474 c 2,8,-1
 341 474 l 2,9,10
 349 474 349 474 352 466.5 c 128,-1,11
 355 459 355 459 347 436 c 0,12,13
 345 430 345 430 340.5 430.5 c 128,-1,14
 336 431 336 431 334 430 c 1,15,16
 332 418 332 418 332.5 411 c 128,-1,17
 333 404 333 404 332 397.5 c 128,-1,18
 331 391 331 391 327 382.5 c 128,-1,19
 323 374 323 374 312 360 c 0,20,21
 256 287 256 287 218 193 c 128,-1,22
 180 99 180 99 171 -1 c 1,23,-1
 130 -1 l 1,24,25
 136 50 136 50 149 102.5 c 128,-1,26
 162 155 162 155 181 205.5 c 128,-1,27
 200 256 200 256 224.5 302 c 128,-1,28
 249 348 249 348 278 385 c 0,29,30
 286 395 286 395 289 399.5 c 128,-1,31
 292 404 292 404 292.5 408 c 128,-1,32
 293 412 293 412 293 417 c 128,-1,33
 293 422 293 422 294 432 c 1,34,-1
 66 432 l 1,35,-1
 73 383 l 1,36,-1
 33 370 l 1,0,1
EndSplineSet
EndChar
StartChar: eight
Encoding: 56 56 25
Width: 406
Flags: W
Fore
322 252 m 0,0,1
 343 230 343 230 355.5 202 c 128,-1,2
 368 174 368 174 368 144 c 0,3,4
 368 110 368 110 354.5 81.5 c 128,-1,5
 341 53 341 53 318.5 32 c 128,-1,6
 296 11 296 11 265.5 -0.5 c 128,-1,7
 235 -12 235 -12 201 -12 c 0,8,9
 166 -12 166 -12 135.5 0 c 128,-1,10
 105 12 105 12 82.5 33 c 128,-1,11
 60 54 60 54 47 82.5 c 128,-1,12
 34 111 34 111 34 144 c 0,13,14
 34 192 34 192 60.5 228 c 128,-1,15
 87 264 87 264 128 281 c 1,16,17
 104 297 104 297 91 321.5 c 128,-1,18
 78 346 78 346 78 373 c 0,19,20
 78 397 78 397 87 418 c 128,-1,21
 96 439 96 439 112 454.5 c 128,-1,22
 128 470 128 470 151 479 c 128,-1,23
 174 488 174 488 201 488 c 0,24,25
 254 488 254 488 289 456 c 128,-1,26
 324 424 324 424 324 373 c 0,27,28
 324 352 324 352 316.5 332 c 128,-1,29
 309 312 309 312 293 298 c 0,30,31
 288 294 288 294 284 289 c 128,-1,32
 280 284 280 284 275 282 c 1,33,34
 288 276 288 276 300 269 c 128,-1,35
 312 262 312 262 322 252 c 0,0,1
139 418 m 0,36,37
 121 399 121 399 121 373.5 c 128,-1,38
 121 348 121 348 139 328 c 0,39,40
 153 315 153 315 167.5 308.5 c 128,-1,41
 182 302 182 302 201 302 c 0,42,43
 236 302 236 302 259 323 c 128,-1,44
 282 344 282 344 282 373 c 0,45,46
 282 389 282 389 275 402.5 c 128,-1,47
 268 416 268 416 257 425.5 c 128,-1,48
 246 435 246 435 231 440 c 128,-1,49
 216 445 216 445 201 445 c 0,50,51
 182 445 182 445 167.5 438 c 128,-1,52
 153 431 153 431 139 418 c 0,36,37
201 24 m 0,53,54
 255 24 255 24 289 56 c 128,-1,55
 323 88 323 88 323 144 c 0,56,57
 323 168 323 168 313.5 189.5 c 128,-1,58
 304 211 304 211 287.5 226.5 c 128,-1,59
 271 242 271 242 248.5 251 c 128,-1,60
 226 260 226 260 201 260 c 0,61,62
 175 260 175 260 153 251 c 128,-1,63
 131 242 131 242 114 226.5 c 128,-1,64
 97 211 97 211 87.5 190 c 128,-1,65
 78 169 78 169 78 144 c 0,66,67
 78 117 78 117 88 94.5 c 128,-1,68
 98 72 98 72 114.5 56.5 c 128,-1,69
 131 41 131 41 153.5 32.5 c 128,-1,70
 176 24 176 24 201 24 c 0,53,54
EndSplineSet
EndChar
StartChar: nine
Encoding: 57 57 26
Width: 405
Flags: W
Fore
77 102 m 1,0,1
 83 75 83 75 111.5 55 c 128,-1,2
 140 35 140 35 174 30 c 0,3,4
 217 25 217 25 246 44 c 128,-1,5
 275 63 275 63 293 92 c 0,6,7
 307 114 307 114 313 147.5 c 128,-1,8
 319 181 319 181 321 223 c 1,9,10
 307 200 307 200 285.5 184.5 c 128,-1,11
 264 169 264 169 238 162.5 c 128,-1,12
 212 156 212 156 184 157.5 c 128,-1,13
 156 159 156 159 130 170 c 0,14,15
 91 186 91 186 68 216 c 128,-1,16
 45 246 45 246 36.5 282 c 128,-1,17
 28 318 28 318 34.5 355.5 c 128,-1,18
 41 393 41 393 62 423.5 c 128,-1,19
 83 454 83 454 118 473 c 128,-1,20
 153 492 153 492 202 490 c 0,21,22
 296 487 296 487 337 410 c 0,23,24
 355 376 355 376 361.5 327 c 128,-1,25
 368 278 368 278 365.5 228.5 c 128,-1,26
 363 179 363 179 353 135.5 c 128,-1,27
 343 92 343 92 328 69 c 0,28,29
 302 27 302 27 263.5 7.5 c 128,-1,30
 225 -12 225 -12 168 -7 c 0,31,32
 122 -2 122 -2 86.5 21 c 128,-1,33
 51 44 51 44 40 82 c 1,34,-1
 77 102 l 1,0,1
273 220 m 0,35,36
 300 242 300 242 310 279.5 c 128,-1,37
 320 317 320 317 311.5 354 c 128,-1,38
 303 391 303 391 275.5 418.5 c 128,-1,39
 248 446 248 446 200 448 c 0,40,41
 165 449 165 449 139.5 435 c 128,-1,42
 114 421 114 421 98.5 398.5 c 128,-1,43
 83 376 83 376 78 348.5 c 128,-1,44
 73 321 73 321 79 293.5 c 128,-1,45
 85 266 85 266 102 243 c 128,-1,46
 119 220 119 220 147 207 c 0,47,48
 178 193 178 193 213.5 196.5 c 128,-1,49
 249 200 249 200 273 220 c 0,35,36
EndSplineSet
EndChar
StartChar: colon
Encoding: 58 58 27
Width: 199
Flags: W
Fore
101 261 m 256,0,1
 83 261 83 261 74 272.5 c 128,-1,2
 65 284 65 284 65 297.5 c 128,-1,3
 65 311 65 311 74 322.5 c 128,-1,4
 83 334 83 334 101 334 c 256,5,6
 119 334 119 334 128 322.5 c 128,-1,7
 137 311 137 311 137 297.5 c 128,-1,8
 137 284 137 284 128 272.5 c 128,-1,9
 119 261 119 261 101 261 c 256,0,1
101 -1 m 256,10,11
 83 -1 83 -1 74 10.5 c 128,-1,12
 65 22 65 22 65 35.5 c 128,-1,13
 65 49 65 49 74 60.5 c 128,-1,14
 83 72 83 72 101 72 c 256,15,16
 119 72 119 72 128 60.5 c 128,-1,17
 137 49 137 49 137 35.5 c 128,-1,18
 137 22 137 22 128 10.5 c 128,-1,19
 119 -1 119 -1 101 -1 c 256,10,11
EndSplineSet
EndChar
StartChar: semicolon
Encoding: 59 59 28
Width: 200
Flags: W
Fore
101 261 m 256,0,1
 83 261 83 261 74 272.5 c 128,-1,2
 65 284 65 284 65 297.5 c 128,-1,3
 65 311 65 311 74 322.5 c 128,-1,4
 83 334 83 334 101 334 c 256,5,6
 119 334 119 334 128 322.5 c 128,-1,7
 137 311 137 311 137 297.5 c 128,-1,8
 137 284 137 284 128 272.5 c 128,-1,9
 119 261 119 261 101 261 c 256,0,1
57 -52 m 1,10,11
 77 -44 77 -44 92 -28.5 c 128,-1,12
 107 -13 107 -13 109 1 c 1,13,14
 92 -6 92 -6 77 5.5 c 128,-1,15
 62 17 62 17 62 35 c 0,16,17
 62 46 62 46 72 59 c 128,-1,18
 82 72 82 72 100 72 c 0,19,20
 121 72 121 72 132.5 59.5 c 128,-1,21
 144 47 144 47 144 26 c 0,22,23
 144 6 144 6 137 -10 c 128,-1,24
 130 -26 130 -26 119.5 -39 c 128,-1,25
 109 -52 109 -52 96 -61 c 128,-1,26
 83 -70 83 -70 72 -75 c 1,27,28
 70 -72 l 130,-1,29
 68 -69 68 -69 65 -64.5 c 128,-1,30
 62 -60 62 -60 59.5 -56.5 c 128,-1,31
 57 -53 57 -53 57 -52 c 1,10,11
EndSplineSet
EndChar
StartChar: less
Encoding: 60 60 29
Width: 412
Flags: W
Fore
367 298 m 1,0,-1
 83 171 l 1,1,-1
 367 35 l 1,2,-1
 367 -8 l 1,3,-1
 42 154 l 1,4,-1
 42 189 l 1,5,-1
 367 341 l 1,6,-1
 367 298 l 1,0,-1
EndSplineSet
EndChar
StartChar: equal
Encoding: 61 61 30
Width: 426
Flags: W
Fore
374 220 m 1,0,-1
 49 220 l 1,1,-1
 49 258 l 1,2,-1
 374 258 l 1,3,-1
 374 220 l 1,0,-1
374 84 m 1,4,-1
 49 84 l 1,5,-1
 49 124 l 1,6,-1
 374 124 l 1,7,-1
 374 84 l 1,4,-1
EndSplineSet
EndChar
StartChar: greater
Encoding: 62 62 31
Width: 402
Flags: W
Fore
41 341 m 1,0,-1
 366 189 l 1,1,-1
 366 154 l 1,2,-1
 41 -8 l 1,3,-1
 41 35 l 1,4,-1
 325 171 l 1,5,-1
 41 298 l 1,6,-1
 41 341 l 1,0,-1
EndSplineSet
EndChar
StartChar: question
Encoding: 63 63 32
Width: 347
Flags: W
Fore
251 267 m 0,0,1
 229 241 229 241 212 216.5 c 128,-1,2
 195 192 195 192 195 160 c 2,3,-1
 195 103 l 1,4,-1
 155 103 l 1,5,-1
 155 160 l 2,6,7
 155 203 155 203 176.5 234.5 c 128,-1,8
 198 266 198 266 222 293 c 0,9,10
 252 327 252 327 258.5 359 c 128,-1,11
 265 391 265 391 246 423 c 0,12,13
 236 440 236 440 212.5 449 c 128,-1,14
 189 458 189 458 161 455 c 0,15,16
 129 451 129 451 109.5 430.5 c 128,-1,17
 90 410 90 410 82 387 c 1,18,-1
 46 407 l 1,19,20
 58 441 58 441 85 463.5 c 128,-1,21
 112 486 112 486 151 491 c 0,22,23
 190 497 190 497 225.5 486.5 c 128,-1,24
 261 476 261 476 279 448 c 0,25,26
 297 421 297 421 300.5 396 c 128,-1,27
 304 371 304 371 298 348 c 128,-1,28
 292 325 292 325 279 304.5 c 128,-1,29
 266 284 266 284 251 267 c 0,0,1
212 39 m 0,30,31
 212 22 212 22 201 11.5 c 128,-1,32
 190 1 190 1 176 1 c 0,33,34
 159 1 159 1 148 11.5 c 128,-1,35
 137 22 137 22 137 39 c 0,36,37
 137 54 137 54 148 64.5 c 128,-1,38
 159 75 159 75 176 75 c 0,39,40
 190 75 190 75 201 64.5 c 128,-1,41
 212 54 212 54 212 39 c 0,30,31
EndSplineSet
EndChar
StartChar: at
Encoding: 64 64 33
Width: 549
Flags: W
Fore
498 331 m 0,0,1
 504 302 504 302 505.5 270.5 c 128,-1,2
 507 239 507 239 501.5 209 c 128,-1,3
 496 179 496 179 482.5 153.5 c 128,-1,4
 469 128 469 128 446 111 c 0,5,6
 431 100 431 100 410.5 95 c 128,-1,7
 390 90 390 90 371.5 93.5 c 128,-1,8
 353 97 353 97 339 110 c 128,-1,9
 325 123 325 123 324 148 c 1,10,11
 320 134 320 134 310 123.5 c 128,-1,12
 300 113 300 113 286 106 c 128,-1,13
 272 99 272 99 256 97 c 128,-1,14
 240 95 240 95 224 99 c 0,15,16
 201 105 201 105 186 122.5 c 128,-1,17
 171 140 171 140 164 163.5 c 128,-1,18
 157 187 157 187 156.5 213.5 c 128,-1,19
 156 240 156 240 162 264 c 0,20,21
 167 286 167 286 178.5 308.5 c 128,-1,22
 190 331 190 331 207 349 c 128,-1,23
 224 367 224 367 246 377.5 c 128,-1,24
 268 388 268 388 295 387 c 0,25,26
 314 386 314 386 328.5 375.5 c 128,-1,27
 343 365 343 365 348 346 c 1,28,-1
 355 386 l 1,29,-1
 387 386 l 1,30,31
 379 339 379 339 369.5 286 c 128,-1,32
 360 233 360 233 352 185 c 0,33,34
 347 155 347 155 356.5 138.5 c 128,-1,35
 366 122 366 122 383 118.5 c 128,-1,36
 400 115 400 115 420 126 c 128,-1,37
 440 137 440 137 455 161.5 c 128,-1,38
 470 186 470 186 475.5 225.5 c 128,-1,39
 481 265 481 265 470 319 c 0,40,41
 456 384 456 384 405 420 c 128,-1,42
 354 456 354 456 282 456 c 0,43,44
 235 456 235 456 196 437.5 c 128,-1,45
 157 419 157 419 129 388.5 c 128,-1,46
 101 358 101 358 86 317.5 c 128,-1,47
 71 277 71 277 71 232 c 0,48,49
 71 172 71 172 98 123 c 128,-1,50
 125 74 125 74 169 45.5 c 128,-1,51
 213 17 213 17 269 14.5 c 128,-1,52
 325 12 325 12 384 44 c 1,53,-1
 384 14 l 1,54,55
 324 -19 324 -19 263 -16.5 c 128,-1,56
 202 -14 202 -14 152 17.5 c 128,-1,57
 102 49 102 49 70.5 105 c 128,-1,58
 39 161 39 161 39 235 c 0,59,60
 39 286 39 286 57.5 332 c 128,-1,61
 76 378 76 378 108.5 412.5 c 128,-1,62
 141 447 141 447 185.5 467 c 128,-1,63
 230 487 230 487 282 487 c 0,64,65
 324 487 324 487 360 475.5 c 128,-1,66
 396 464 396 464 424.5 443 c 128,-1,67
 453 422 453 422 471.5 393.5 c 128,-1,68
 490 365 490 365 498 331 c 0,0,1
332 225 m 0,69,70
 344 284 344 284 333.5 321.5 c 128,-1,71
 323 359 323 359 288 359 c 0,72,73
 263 359 263 359 243 343.5 c 128,-1,74
 223 328 223 328 210 304 c 128,-1,75
 197 280 197 280 191 251.5 c 128,-1,76
 185 223 185 223 187 197.5 c 128,-1,77
 189 172 189 172 199.5 152.5 c 128,-1,78
 210 133 210 133 230 127 c 0,79,80
 251 121 251 121 267.5 127 c 128,-1,81
 284 133 284 133 296.5 147 c 128,-1,82
 309 161 309 161 318 181.5 c 128,-1,83
 327 202 327 202 332 225 c 0,69,70
EndSplineSet
EndChar
StartChar: A
Encoding: 65 65 34
Width: 410
Flags: W
Fore
403 0 m 1,0,-1
 364 -8 l 1,1,-1
 314 131 l 1,2,-1
 96 131 l 1,3,-1
 44 -8 l 1,4,-1
 6 0 l 1,5,6
 55 129 55 129 94 231 c 2,7,-1
 182 463 l 2,8,9
 188 477 188 477 196.5 482.5 c 128,-1,10
 205 488 205 488 208 489 c 0,11,12
 216 490 216 490 224.5 482.5 c 128,-1,13
 233 475 233 475 235 471 c 0,14,15
 237 468 237 468 234.5 464 c 128,-1,16
 232 460 232 460 230 458 c 1,17,-1
 403 0 l 1,0,-1
301 164 m 1,18,-1
 204 416 l 1,19,-1
 109 164 l 1,20,-1
 301 164 l 1,18,-1
EndSplineSet
EndChar
StartChar: B
Encoding: 66 66 35
Width: 391
Flags: W
Fore
97 265 m 1,0,-1
 180 265 l 2,1,2
 222 265 222 265 251.5 288 c 128,-1,3
 281 311 281 311 281 355 c 0,4,5
 281 397 281 397 260.5 416 c 128,-1,6
 240 435 240 435 187 435 c 2,7,-1
 97 435 l 1,8,-1
 97 265 l 1,0,-1
204 39 m 2,9,10
 309 39 309 39 309 132 c 0,11,12
 309 151 309 151 302.5 168 c 128,-1,13
 296 185 296 185 281.5 198.5 c 128,-1,14
 267 212 267 212 244 220 c 128,-1,15
 221 228 221 228 189 228 c 2,16,-1
 96 228 l 1,17,-1
 96 39 l 1,18,-1
 204 39 l 2,9,10
58 427 m 2,19,20
 58 436 58 436 55 441.5 c 128,-1,21
 52 447 52 447 48.5 450.5 c 128,-1,22
 45 454 45 454 42.5 457 c 128,-1,23
 40 460 40 460 41 465 c 1,24,25
 43 470 43 470 49 478 c 128,-1,26
 55 486 55 486 65 486 c 0,27,28
 68 486 68 486 73 482.5 c 128,-1,29
 78 479 78 479 82 474 c 1,30,-1
 195 474 l 2,31,32
 225 474 225 474 248.5 464.5 c 128,-1,33
 272 455 272 455 288 439 c 128,-1,34
 304 423 304 423 312 402 c 128,-1,35
 320 381 320 381 320 359 c 0,36,37
 320 334 320 334 312.5 315 c 128,-1,38
 305 296 305 296 293.5 282.5 c 128,-1,39
 282 269 282 269 267.5 261 c 128,-1,40
 253 253 253 253 239 251 c 1,41,42
 258 249 258 249 277 240 c 128,-1,43
 296 231 296 231 311.5 216 c 128,-1,44
 327 201 327 201 337 180 c 128,-1,45
 347 159 347 159 347 133 c 0,46,47
 347 67 347 67 311.5 33.5 c 128,-1,48
 276 0 276 0 222 0 c 2,49,-1
 58 0 l 1,50,-1
 58 427 l 2,19,20
EndSplineSet
EndChar
StartChar: C
Encoding: 67 67 36
Width: 400
Flags: W
Fore
371 39 m 1,0,1
 330 1 330 1 275 -8.5 c 128,-1,2
 220 -18 220 -18 170 2 c 0,3,4
 151 9 151 9 128 24 c 128,-1,5
 105 39 105 39 84.5 66 c 128,-1,6
 64 93 64 93 50 134 c 128,-1,7
 36 175 36 175 36 234 c 0,8,9
 36 294 36 294 50 335 c 128,-1,10
 64 376 64 376 84.5 403 c 128,-1,11
 105 430 105 430 128 445 c 128,-1,12
 151 460 151 460 170 467 c 0,13,14
 219 485 219 485 270.5 475.5 c 128,-1,15
 322 466 322 466 359 433 c 1,16,-1
 341 394 l 1,17,18
 327 409 327 409 308.5 419 c 128,-1,19
 290 429 290 429 269 433.5 c 128,-1,20
 248 438 248 438 226 437 c 128,-1,21
 204 436 204 436 184 428 c 0,22,23
 134 409 134 409 106 357.5 c 128,-1,24
 78 306 78 306 78 234 c 256,25,26
 78 162 78 162 106 111 c 128,-1,27
 134 60 134 60 184 41 c 0,28,29
 202 34 202 34 224 32 c 128,-1,30
 246 30 246 30 267.5 33 c 128,-1,31
 289 36 289 36 309 45.5 c 128,-1,32
 329 55 329 55 344 72 c 1,33,-1
 371 39 l 1,0,1
EndSplineSet
EndChar
StartChar: D
Encoding: 68 68 37
Width: 451
Flags: W
Fore
53 427 m 2,0,1
 53 436 53 436 50 441.5 c 128,-1,2
 47 447 47 447 43.5 450.5 c 128,-1,3
 40 454 40 454 37.5 457 c 128,-1,4
 35 460 35 460 36 465 c 1,5,6
 38 470 38 470 44 478 c 128,-1,7
 50 486 50 486 60 486 c 0,8,9
 63 486 63 486 68 482.5 c 128,-1,10
 73 479 73 479 77 474 c 1,11,-1
 169 474 l 2,12,13
 221 474 221 474 266 459 c 128,-1,14
 311 444 311 444 344 414.5 c 128,-1,15
 377 385 377 385 395.5 340.5 c 128,-1,16
 414 296 414 296 414 238 c 0,17,18
 414 179 414 179 395.5 134.5 c 128,-1,19
 377 90 377 90 344 60 c 128,-1,20
 311 30 311 30 266 15 c 128,-1,21
 221 0 221 0 169 0 c 2,22,-1
 53 0 l 1,23,-1
 53 427 l 2,0,1
178 39 m 2,24,25
 223 39 223 39 259 53 c 128,-1,26
 295 67 295 67 320 93.5 c 128,-1,27
 345 120 345 120 358.5 156.5 c 128,-1,28
 372 193 372 193 372 238 c 0,29,30
 372 290 372 290 355 327.5 c 128,-1,31
 338 365 338 365 308 389 c 128,-1,32
 278 413 278 413 238 424 c 128,-1,33
 198 435 198 435 152 435 c 2,34,-1
 92 435 l 1,35,-1
 92 39 l 1,36,-1
 178 39 l 2,24,25
EndSplineSet
EndChar
StartChar: E
Encoding: 69 69 38
Width: 342
Flags: W
Fore
58 427 m 2,0,1
 58 436 58 436 55 441.5 c 128,-1,2
 52 447 52 447 48.5 450.5 c 128,-1,3
 45 454 45 454 42.5 457 c 128,-1,4
 40 460 40 460 41 465 c 1,5,6
 43 470 43 470 49 478 c 128,-1,7
 55 486 55 486 65 486 c 0,8,9
 68 486 68 486 73 482.5 c 128,-1,10
 78 479 78 479 82 474 c 1,11,-1
 305 474 l 1,12,-1
 305 435 l 1,13,-1
 98 435 l 1,14,-1
 98 265 l 1,15,-1
 283 265 l 1,16,-1
 283 226 l 1,17,-1
 98 226 l 1,18,-1
 98 39 l 1,19,-1
 304 39 l 1,20,-1
 304 0 l 1,21,-1
 58 0 l 1,22,-1
 58 427 l 2,0,1
EndSplineSet
EndChar
StartChar: F
Encoding: 70 70 39
Width: 334
Flags: W
Fore
56 427 m 2,0,1
 56 436 56 436 53 441.5 c 128,-1,2
 50 447 50 447 46.5 450.5 c 128,-1,3
 43 454 43 454 40.5 457 c 128,-1,4
 38 460 38 460 39 465 c 1,5,6
 41 470 41 470 47 478 c 128,-1,7
 53 486 53 486 63 486 c 0,8,9
 66 486 66 486 71 482.5 c 128,-1,10
 76 479 76 479 80 474 c 1,11,-1
 303 474 l 1,12,-1
 303 435 l 1,13,-1
 96 435 l 1,14,-1
 96 265 l 1,15,-1
 281 265 l 1,16,-1
 281 226 l 1,17,-1
 96 226 l 1,18,-1
 96 0 l 1,19,-1
 56 0 l 1,20,-1
 56 427 l 2,0,1
EndSplineSet
EndChar
StartChar: G
Encoding: 71 71 40
Width: 422
Flags: W
Fore
348 239 m 1,0,1
 355 248 355 248 363 248 c 0,2,3
 373 248 373 248 379 240 c 128,-1,4
 385 232 385 232 387 227 c 1,5,6
 388 222 388 222 386 219.5 c 128,-1,7
 384 217 384 217 381 214 c 128,-1,8
 378 211 378 211 375 206 c 128,-1,9
 372 201 372 201 372 192 c 2,10,-1
 372 16 l 1,11,12
 334 -1 334 -1 297.5 -7 c 128,-1,13
 261 -13 261 -13 219 -13 c 0,14,15
 175 -13 175 -13 141.5 5 c 128,-1,16
 108 23 108 23 85 56 c 128,-1,17
 62 89 62 89 50 134.5 c 128,-1,18
 38 180 38 180 38 235 c 0,19,20
 38 281 38 281 49 325 c 128,-1,21
 60 369 60 369 82 403.5 c 128,-1,22
 104 438 104 438 138 459.5 c 128,-1,23
 172 481 172 481 219 481 c 0,24,25
 243 481 243 481 266.5 474.5 c 128,-1,26
 290 468 290 468 309.5 455.5 c 128,-1,27
 329 443 329 443 344 423.5 c 128,-1,28
 359 404 359 404 365 379 c 1,29,-1
 324 364 l 1,30,31
 315 404 315 404 285 423 c 128,-1,32
 255 442 255 442 219 442 c 0,33,34
 180 442 180 442 153.5 423.5 c 128,-1,35
 127 405 127 405 110 375.5 c 128,-1,36
 93 346 93 346 85.5 309 c 128,-1,37
 78 272 78 272 78 235 c 0,38,39
 78 189 78 189 87 150.5 c 128,-1,40
 96 112 96 112 115.5 84.5 c 128,-1,41
 135 57 135 57 165.5 41.5 c 128,-1,42
 196 26 196 26 240 26 c 0,43,44
 263 26 263 26 287 32.5 c 128,-1,45
 311 39 311 39 334 47 c 1,46,-1
 334 200 l 1,47,-1
 225 200 l 1,48,-1
 225 239 l 1,49,-1
 348 239 l 1,0,1
EndSplineSet
EndChar
StartChar: H
Encoding: 72 72 41
Width: 422
Flags: W
Fore
365 474 m 1,0,-1
 365 0 l 1,1,-1
 328 0 l 1,2,-1
 328 226 l 1,3,-1
 95 226 l 1,4,-1
 95 0 l 1,5,-1
 56 0 l 1,6,-1
 56 474 l 1,7,-1
 95 474 l 1,8,-1
 95 265 l 1,9,-1
 328 265 l 1,10,-1
 328 474 l 1,11,-1
 365 474 l 1,0,-1
EndSplineSet
EndChar
StartChar: I
Encoding: 73 73 42
Width: 163
Flags: W
Fore
102 474 m 1,0,-1
 102 0 l 1,1,-1
 64 0 l 1,2,-1
 64 474 l 1,3,-1
 102 474 l 1,0,-1
EndSplineSet
EndChar
StartChar: J
Encoding: 74 74 43
Width: 250
Flags: W
Fore
199 474 m 1,0,-1
 199 114 l 2,1,2
 199 70 199 70 179.5 41 c 128,-1,3
 160 12 160 12 136 1 c 0,4,5
 101 -15 101 -15 70 -10 c 128,-1,6
 39 -5 39 -5 13 10 c 1,7,-1
 25 43 l 1,8,9
 31 37 31 37 41.5 32 c 128,-1,10
 52 27 52 27 65 24.5 c 128,-1,11
 78 22 78 22 91.5 23.5 c 128,-1,12
 105 25 105 25 119 32 c 0,13,14
 138 43 138 43 149 62.5 c 128,-1,15
 160 82 160 82 160 108 c 2,16,-1
 160 474 l 1,17,-1
 199 474 l 1,0,-1
EndSplineSet
EndChar
StartChar: K
Encoding: 75 75 44
Width: 392
Flags: W
Fore
391 0 m 1,0,-1
 345 -6 l 1,1,-1
 99 241 l 1,2,-1
 99 0 l 1,3,-1
 61 0 l 1,4,-1
 61 474 l 1,5,-1
 99 474 l 1,6,-1
 99 254 l 1,7,-1
 332 478 l 1,8,-1
 373 468 l 1,9,-1
 144 248 l 1,10,-1
 391 0 l 1,0,-1
EndSplineSet
EndChar
StartChar: L
Encoding: 76 76 45
Width: 324
Flags: W
Fore
58 474 m 1,0,-1
 97 474 l 1,1,-1
 97 35 l 1,2,-1
 302 35 l 1,3,-1
 302 0 l 1,4,-1
 82 0 l 1,5,6
 78 -5 78 -5 73 -8.5 c 128,-1,7
 68 -12 68 -12 65 -12 c 0,8,9
 55 -12 55 -12 49 -4 c 128,-1,10
 43 4 43 4 41 9 c 0,11,12
 40 13 40 13 42.5 16.5 c 128,-1,13
 45 20 45 20 48.5 23.5 c 128,-1,14
 52 27 52 27 55 32.5 c 128,-1,15
 58 38 58 38 58 47 c 2,16,-1
 58 474 l 1,0,-1
EndSplineSet
EndChar
StartChar: M
Encoding: 77 77 46
Width: 553
Flags: W
Fore
301 15 m 1,0,-1
 303 8 l 1,1,2
 306 2 306 2 302 -2.5 c 128,-1,3
 298 -7 298 -7 290.5 -9.5 c 128,-1,4
 283 -12 283 -12 276 -11.5 c 128,-1,5
 269 -11 269 -11 266 -5 c 2,6,-1
 126 399 l 1,7,-1
 56 -7 l 1,8,-1
 19 2 l 1,9,-1
 98 451 l 1,10,-1
 91 460 l 2,11,12
 88 465 88 465 95.5 474.5 c 128,-1,13
 103 484 103 484 113 486 c 0,14,15
 118 487 118 487 123 483 c 128,-1,16
 128 479 128 479 132.5 474 c 128,-1,17
 137 469 137 469 140.5 464 c 128,-1,18
 144 459 144 459 144 458 c 1,19,-1
 280 67 l 1,20,-1
 416 458 l 1,21,22
 416 459 416 459 419 464 c 128,-1,23
 422 469 422 469 426.5 474 c 128,-1,24
 431 479 431 479 436.5 483 c 128,-1,25
 442 487 442 487 447 486 c 0,26,27
 457 484 457 484 464.5 474.5 c 128,-1,28
 472 465 472 465 469 460 c 2,29,-1
 462 451 l 1,30,-1
 541 2 l 1,31,-1
 504 -7 l 1,32,-1
 434 399 l 1,33,-1
 301 15 l 1,0,-1
EndSplineSet
EndChar
StartChar: N
Encoding: 78 78 47
Width: 426
Flags: W
Fore
54 428 m 2,0,1
 54 437 54 437 51 442 c 128,-1,2
 48 447 48 447 45 450.5 c 128,-1,3
 42 454 42 454 40 456.5 c 128,-1,4
 38 459 38 459 39 464 c 1,5,6
 41 469 41 469 47 477 c 128,-1,7
 53 485 53 485 63 485 c 0,8,9
 66 485 66 485 71 481.5 c 128,-1,10
 76 478 76 478 80 473 c 2,11,-1
 334 65 l 1,12,-1
 334 474 l 1,13,-1
 372 474 l 1,14,-1
 372 0 l 1,15,-1
 338 0 l 1,16,-1
 92 377 l 1,17,-1
 92 0 l 1,18,-1
 54 0 l 1,19,-1
 54 428 l 2,0,1
EndSplineSet
EndChar
StartChar: O
Encoding: 79 79 48
Width: 459
Flags: W
Fore
230 481 m 0,0,1
 275 481 275 481 310.5 463 c 128,-1,2
 346 445 346 445 370.5 413 c 128,-1,3
 395 381 395 381 407.5 335 c 128,-1,4
 420 289 420 289 420 234 c 0,5,6
 420 178 420 178 407.5 132.5 c 128,-1,7
 395 87 395 87 370.5 55 c 128,-1,8
 346 23 346 23 310.5 5 c 128,-1,9
 275 -13 275 -13 230 -13 c 0,10,11
 184 -13 184 -13 148.5 5 c 128,-1,12
 113 23 113 23 89 55 c 128,-1,13
 65 87 65 87 52.5 132.5 c 128,-1,14
 40 178 40 178 40 234 c 0,15,16
 40 289 40 289 52.5 335 c 128,-1,17
 65 381 65 381 89 413 c 128,-1,18
 113 445 113 445 148.5 463 c 128,-1,19
 184 481 184 481 230 481 c 0,0,1
230 24 m 0,20,21
 270 24 270 24 298.5 42 c 128,-1,22
 327 60 327 60 345 89.5 c 128,-1,23
 363 119 363 119 371.5 157 c 128,-1,24
 380 195 380 195 380 234 c 256,25,26
 380 273 380 273 371.5 310.5 c 128,-1,27
 363 348 363 348 345 378 c 128,-1,28
 327 408 327 408 298.5 426 c 128,-1,29
 270 444 270 444 230 444 c 0,30,31
 189 444 189 444 160.5 426 c 128,-1,32
 132 408 132 408 114 378 c 128,-1,33
 96 348 96 348 87.5 310.5 c 128,-1,34
 79 273 79 273 79 234 c 256,35,36
 79 195 79 195 87.5 157 c 128,-1,37
 96 119 96 119 114 89.5 c 128,-1,38
 132 60 132 60 160.5 42 c 128,-1,39
 189 24 189 24 230 24 c 0,20,21
EndSplineSet
EndChar
StartChar: P
Encoding: 80 80 49
Width: 366
Flags: W
Fore
59 426 m 2,0,1
 59 435 59 435 56 440.5 c 128,-1,2
 53 446 53 446 49.5 450 c 128,-1,3
 46 454 46 454 43.5 457 c 128,-1,4
 41 460 41 460 42 465 c 1,5,6
 44 470 44 470 50 478 c 128,-1,7
 56 486 56 486 66 486 c 0,8,9
 69 486 69 486 74 482.5 c 128,-1,10
 79 479 79 479 83 474 c 1,11,-1
 167 474 l 2,12,13
 200 474 200 474 231 467 c 128,-1,14
 262 460 262 460 286 443.5 c 128,-1,15
 310 427 310 427 325 400 c 128,-1,16
 340 373 340 373 340 332 c 256,17,18
 340 291 340 291 325 264 c 128,-1,19
 310 237 310 237 285.5 221 c 128,-1,20
 261 205 261 205 231 198 c 128,-1,21
 201 191 201 191 171 191 c 2,22,-1
 98 191 l 1,23,-1
 98 0 l 1,24,-1
 59 0 l 1,25,-1
 59 426 l 2,0,1
98 438 m 1,26,-1
 98 228 l 1,27,-1
 169 228 l 2,28,29
 236 228 236 228 269 256 c 128,-1,30
 302 284 302 284 302 332 c 0,31,32
 302 375 302 375 270 406.5 c 128,-1,33
 238 438 238 438 168 438 c 2,34,-1
 98 438 l 1,26,-1
EndSplineSet
EndChar
StartChar: Q
Encoding: 81 81 50
Width: 455
Flags: W
Fore
409 -16 m 1,0,-1
 350 35 l 1,1,2
 302 -13 302 -13 227 -13 c 0,3,4
 181 -13 181 -13 145.5 5 c 128,-1,5
 110 23 110 23 86 55.5 c 128,-1,6
 62 88 62 88 50 133.5 c 128,-1,7
 38 179 38 179 38 235 c 0,8,9
 38 290 38 290 50 335.5 c 128,-1,10
 62 381 62 381 86 413 c 128,-1,11
 110 445 110 445 145.5 463 c 128,-1,12
 181 481 181 481 227 481 c 256,13,14
 273 481 273 481 308.5 463 c 128,-1,15
 344 445 344 445 368 413 c 128,-1,16
 392 381 392 381 404.5 335.5 c 128,-1,17
 417 290 417 290 417 235 c 0,18,19
 417 129 417 129 375 65 c 1,20,-1
 435 14 l 1,21,-1
 409 -16 l 1,0,-1
227 26 m 0,22,23
 256 26 256 26 278.5 35.5 c 128,-1,24
 301 45 301 45 318 62 c 1,25,-1
 266 106 l 1,26,-1
 292 137 l 1,27,-1
 342 93 l 1,28,29
 359 122 359 122 367.5 159 c 128,-1,30
 376 196 376 196 376 235 c 256,31,32
 376 274 376 274 367.5 311 c 128,-1,33
 359 348 359 348 341 377 c 128,-1,34
 323 406 323 406 295 424 c 128,-1,35
 267 442 267 442 227 442 c 256,36,37
 187 442 187 442 158.5 424 c 128,-1,38
 130 406 130 406 112 377 c 128,-1,39
 94 348 94 348 86 311 c 128,-1,40
 78 274 78 274 78 235 c 256,41,42
 78 196 78 196 86 158 c 128,-1,43
 94 120 94 120 112 91 c 128,-1,44
 130 62 130 62 158.5 44 c 128,-1,45
 187 26 187 26 227 26 c 0,22,23
EndSplineSet
EndChar
StartChar: R
Encoding: 82 82 51
Width: 391
Flags: W
Fore
59 427 m 2,0,1
 59 436 59 436 56 441.5 c 128,-1,2
 53 447 53 447 49.5 450.5 c 128,-1,3
 46 454 46 454 43.5 457 c 128,-1,4
 41 460 41 460 42 465 c 1,5,6
 44 470 44 470 50 478 c 128,-1,7
 56 486 56 486 66 486 c 0,8,9
 69 486 69 486 74 482.5 c 128,-1,10
 79 479 79 479 83 474 c 1,11,-1
 167 474 l 2,12,13
 200 474 200 474 231 467 c 128,-1,14
 262 460 262 460 286 443.5 c 128,-1,15
 310 427 310 427 325 400 c 128,-1,16
 340 373 340 373 340 332 c 0,17,18
 340 301 340 301 331 278 c 128,-1,19
 322 255 322 255 307 239 c 128,-1,20
 292 223 292 223 271.5 212.5 c 128,-1,21
 251 202 251 202 229 197 c 1,22,-1
 354 1 l 1,23,-1
 314 -9 l 1,24,-1
 186 191 l 1,25,-1
 98 191 l 1,26,-1
 98 0 l 1,27,-1
 59 0 l 1,28,-1
 59 427 l 2,0,1
98 438 m 1,29,-1
 98 228 l 1,30,-1
 169 228 l 2,31,32
 236 228 236 228 269 256 c 128,-1,33
 302 284 302 284 302 332 c 0,34,35
 302 375 302 375 270 406.5 c 128,-1,36
 238 438 238 438 168 438 c 2,37,-1
 98 438 l 1,29,-1
EndSplineSet
EndChar
StartChar: S
Encoding: 83 83 52
Width: 388
Flags: W
Fore
354 118 m 0,0,1
 354 61 354 61 312.5 24.5 c 128,-1,2
 271 -12 271 -12 186 -13 c 0,3,4
 157 -13 157 -13 133 -7 c 128,-1,5
 109 -1 109 -1 89.5 8.5 c 128,-1,6
 70 18 70 18 55 29.5 c 128,-1,7
 40 41 40 41 29 50 c 1,8,-1
 61 81 l 1,9,10
 70 72 70 72 82 62 c 128,-1,11
 94 52 94 52 109.5 43.5 c 128,-1,12
 125 35 125 35 145 29.5 c 128,-1,13
 165 24 165 24 191 24 c 256,14,15
 217 24 217 24 239.5 30.5 c 128,-1,16
 262 37 262 37 278.5 48.5 c 128,-1,17
 295 60 295 60 304.5 75 c 128,-1,18
 314 90 314 90 314 108 c 0,19,20
 314 127 314 127 307 141.5 c 128,-1,21
 300 156 300 156 284.5 168.5 c 128,-1,22
 269 181 269 181 243 192.5 c 128,-1,23
 217 204 217 204 179 218 c 0,24,25
 113 241 113 241 78.5 277.5 c 128,-1,26
 44 314 44 314 41 356 c 0,27,28
 39 380 39 380 47.5 403.5 c 128,-1,29
 56 427 56 427 75 445 c 128,-1,30
 94 463 94 463 122 474 c 128,-1,31
 150 485 150 485 187 485 c 0,32,33
 222 485 222 485 261 473.5 c 128,-1,34
 300 462 300 462 324 444 c 1,35,-1
 304 410 l 1,36,37
 285 424 285 424 255.5 435 c 128,-1,38
 226 446 226 446 186 446 c 0,39,40
 139 446 139 446 111 422 c 128,-1,41
 83 398 83 398 83 363 c 0,42,43
 83 327 83 327 116 299.5 c 128,-1,44
 149 272 149 272 207 252 c 0,45,46
 238 241 238 241 265 229 c 128,-1,47
 292 217 292 217 312 201.5 c 128,-1,48
 332 186 332 186 343 166 c 128,-1,49
 354 146 354 146 354 118 c 0,0,1
EndSplineSet
EndChar
StartChar: T
Encoding: 84 84 53
Width: 333
Flags: W
Fore
186 438 m 1,0,-1
 186 0 l 1,1,-1
 148 0 l 1,2,-1
 148 438 l 1,3,-1
 20 438 l 2,4,5
 15 438 15 438 14 443 c 128,-1,6
 13 448 13 448 12 454 c 0,7,8
 10 465 10 465 12 469.5 c 128,-1,9
 14 474 14 474 23 474 c 2,10,-1
 310 474 l 2,11,12
 319 474 319 474 321 469.5 c 128,-1,13
 323 465 323 465 321 454 c 0,14,15
 320 448 320 448 319 443 c 128,-1,16
 318 438 318 438 313 438 c 2,17,-1
 186 438 l 1,0,-1
EndSplineSet
EndChar
StartChar: U
Encoding: 85 85 54
Width: 455
Flags: W
Fore
396 474 m 1,0,-1
 396 145 l 2,1,2
 396 68 396 68 350.5 28.5 c 128,-1,3
 305 -11 305 -11 227 -11 c 256,4,5
 149 -11 149 -11 102.5 28.5 c 128,-1,6
 56 68 56 68 56 145 c 2,7,-1
 56 474 l 1,8,-1
 94 474 l 1,9,-1
 94 146 l 2,10,11
 94 114 94 114 105 91.5 c 128,-1,12
 116 69 116 69 134 55 c 128,-1,13
 152 41 152 41 176 34.5 c 128,-1,14
 200 28 200 28 227 28 c 0,15,16
 253 28 253 28 277 34.5 c 128,-1,17
 301 41 301 41 319 55 c 128,-1,18
 337 69 337 69 348 91.5 c 128,-1,19
 359 114 359 114 359 146 c 2,20,-1
 359 474 l 1,21,-1
 396 474 l 1,0,-1
EndSplineSet
EndChar
StartChar: V
Encoding: 86 86 55
Width: 411
Flags: W
Fore
228 15 m 1,0,1
 224 9 224 9 213.5 -2.5 c 128,-1,2
 203 -14 203 -14 198 -13 c 0,3,4
 188 -11 188 -11 180 -2 c 128,-1,5
 172 7 172 7 175 12 c 2,6,-1
 181 21 l 1,7,-1
 6 474 l 1,8,-1
 45 482 l 1,9,-1
 205 55 l 1,10,-1
 365 482 l 1,11,-1
 403 474 l 1,12,-1
 315 244 l 2,13,14
 298 201 298 201 282.5 160 c 128,-1,15
 267 119 267 119 254.5 86.5 c 128,-1,16
 242 54 242 54 235 34.5 c 128,-1,17
 228 16 228 16 228 15 c 1,0,1
EndSplineSet
EndChar
StartChar: W
Encoding: 87 87 56
Width: 558
Flags: W
Fore
434 75 m 1,0,-1
 504 481 l 1,1,-1
 541 472 l 1,2,-1
 462 23 l 1,3,-1
 469 14 l 2,4,5
 472 9 472 9 464.5 -0.5 c 128,-1,6
 457 -10 457 -10 447 -12 c 0,7,8
 442 -13 442 -13 436.5 -9 c 128,-1,9
 431 -5 431 -5 426.5 0 c 128,-1,10
 422 5 422 5 419 9.5 c 128,-1,11
 416 14 416 14 416 16 c 1,12,-1
 280 407 l 1,13,-1
 144 16 l 1,14,15
 144 14 144 14 140.5 9.5 c 128,-1,16
 137 5 137 5 132.5 0 c 128,-1,17
 128 -5 128 -5 123 -9 c 128,-1,18
 118 -13 118 -13 113 -12 c 0,19,20
 103 -10 103 -10 95.5 -0.5 c 128,-1,21
 88 9 88 9 91 14 c 2,22,-1
 98 23 l 1,23,-1
 19 472 l 1,24,-1
 56 481 l 1,25,-1
 126 75 l 1,26,-1
 266 479 l 2,27,28
 269 485 269 485 276 485.5 c 128,-1,29
 283 486 283 486 290.5 483.5 c 128,-1,30
 298 481 298 481 302 476.5 c 128,-1,31
 306 472 306 472 303 466 c 1,32,-1
 301 459 l 1,33,-1
 434 75 l 1,0,-1
EndSplineSet
EndChar
StartChar: X
Encoding: 88 88 57
Width: 376
Flags: W
Fore
6 25 m 1,0,-1
 167 261 l 1,1,-1
 23 469 l 1,2,-1
 56 489 l 1,3,-1
 190 289 l 1,4,-1
 326 488 l 1,5,-1
 358 469 l 1,6,-1
 211 254 l 1,7,-1
 373 22 l 1,8,-1
 343 2 l 1,9,-1
 190 225 l 1,10,-1
 36 4 l 1,11,-1
 6 25 l 1,0,-1
EndSplineSet
EndChar
StartChar: Y
Encoding: 89 89 58
Width: 357
Flags: W
Fore
160 202 m 1,0,-1
 7 475 l 1,1,-1
 39 488 l 1,2,-1
 177 238 l 1,3,-1
 317 487 l 1,4,-1
 349 474 l 1,5,6
 317 419 317 419 288 368 c 0,7,8
 276 346 276 346 263 323 c 128,-1,9
 250 300 250 300 237.5 278 c 128,-1,10
 225 256 225 256 214 236 c 128,-1,11
 203 216 203 216 195 201 c 1,12,-1
 195 0 l 1,13,-1
 160 0 l 1,14,-1
 160 201 l 1,15,-1
 160 202 l 1,0,-1
EndSplineSet
EndChar
StartChar: Z
Encoding: 90 90 59
Width: 396
Flags: W
Fore
340 485 m 0,0,1
 342 487 342 487 349 486 c 128,-1,2
 356 485 356 485 364 477 c 0,3,4
 373 466 373 466 371.5 461 c 128,-1,5
 370 456 370 456 363 449 c 1,6,-1
 350 431 l 1,7,-1
 91 39 l 1,8,-1
 361 39 l 1,9,-1
 361 0 l 1,10,-1
 63 0 l 2,11,12
 58 0 58 0 54.5 -3.5 c 128,-1,13
 51 -7 51 -7 46 -9 c 0,14,15
 42 -11 42 -11 35.5 -8 c 128,-1,16
 29 -5 29 -5 21 9 c 0,17,18
 17 16 17 16 19.5 19 c 128,-1,19
 22 22 22 22 30 28 c 0,20,21
 35 32 35 32 38 35.5 c 128,-1,22
 41 39 41 39 44 43 c 2,23,-1
 302 435 l 1,24,-1
 31 435 l 1,25,-1
 31 474 l 1,26,-1
 328 474 l 1,27,-1
 332 478 l 2,28,29
 337 483 337 483 340 485 c 0,0,1
EndSplineSet
EndChar
StartChar: bracketleft
Encoding: 91 91 60
Width: 183
Flags: W
Fore
90 473 m 1,0,-1
 90 -59 l 1,1,-1
 133 -59 l 1,2,-1
 133 -91 l 1,3,-1
 51 -91 l 1,4,-1
 51 505 l 1,5,-1
 133 505 l 1,6,-1
 133 473 l 1,7,-1
 90 473 l 1,0,-1
EndSplineSet
EndChar
StartChar: backslash
Encoding: 92 92 61
Width: 163
Flags: W
Fore
198 -18 m 1,0,-1
 165 -17 l 1,1,-1
 -27 488 l 1,2,-1
 8 488 l 1,3,-1
 198 -18 l 1,0,-1
EndSplineSet
EndChar
StartChar: bracketright
Encoding: 93 93 62
Width: 181
Flags: W
Fore
48 473 m 1,0,-1
 48 505 l 1,1,-1
 130 505 l 1,2,-1
 130 -91 l 1,3,-1
 48 -91 l 1,4,-1
 48 -59 l 1,5,-1
 91 -59 l 1,6,-1
 91 473 l 1,7,-1
 48 473 l 1,0,-1
EndSplineSet
EndChar
StartChar: asciicircum
Encoding: 94 94 63
Width: 386
Flags: W
Fore
43 155 m 1,0,-1
 178 450 l 1,1,-1
 208 450 l 1,2,-1
 344 155 l 1,3,-1
 310 155 l 1,4,-1
 193 410 l 1,5,-1
 77 155 l 1,6,-1
 43 155 l 1,0,-1
EndSplineSet
EndChar
StartChar: underscore
Encoding: 95 95 64
Width: 322
Flags: W
Fore
322 -49 m 1,0,-1
 322 -87 l 1,1,-1
 0 -87 l 1,2,-1
 0 -49 l 1,3,-1
 322 -49 l 1,0,-1
EndSplineSet
EndChar
StartChar: grave
Encoding: 96 96 65
Width: 163
Flags: W
Fore
115 367 m 1,0,-1
 86 367 l 1,1,-1
 14 461 l 1,2,-1
 61 461 l 1,3,-1
 115 367 l 1,0,-1
EndSplineSet
EndChar
StartChar: a
Encoding: 97 97 66
Width: 350
Flags: W
Fore
313 80 m 2,0,1
 313 47 313 47 318 32 c 128,-1,2
 323 17 323 17 328 6 c 1,3,-1
 295 -7 l 1,4,5
 292 -1 292 -1 284.5 12.5 c 128,-1,6
 277 26 277 26 277 55 c 1,7,8
 260 26 260 26 231.5 8.5 c 128,-1,9
 203 -9 203 -9 164 -9 c 0,10,11
 128 -9 128 -9 101 6.5 c 128,-1,12
 74 22 74 22 56 47 c 128,-1,13
 38 72 38 72 29.5 104.5 c 128,-1,14
 21 137 21 137 21 170 c 256,15,16
 21 203 21 203 29.5 235.5 c 128,-1,17
 38 268 38 268 56 293 c 128,-1,18
 74 318 74 318 101 333.5 c 128,-1,19
 128 349 128 349 164 349 c 0,20,21
 203 349 203 349 230.5 331.5 c 128,-1,22
 258 314 258 314 275 286 c 1,23,-1
 275 349 l 1,24,-1
 313 349 l 1,25,-1
 313 80 l 2,0,1
164 313 m 0,26,27
 135 313 135 313 114 299.5 c 128,-1,28
 93 286 93 286 80 265 c 128,-1,29
 67 244 67 244 61 218.5 c 128,-1,30
 55 193 55 193 55 170 c 0,31,32
 55 146 55 146 61 121 c 128,-1,33
 67 96 67 96 80 75 c 128,-1,34
 93 54 93 54 114 40.5 c 128,-1,35
 135 27 135 27 164 27 c 0,36,37
 190 27 190 27 210 38 c 128,-1,38
 230 49 230 49 244 66.5 c 128,-1,39
 258 84 258 84 266 106 c 128,-1,40
 274 128 274 128 276 151 c 2,41,-1
 276 190 l 2,42,43
 273 212 273 212 265 234 c 128,-1,44
 257 256 257 256 243.5 273.5 c 128,-1,45
 230 291 230 291 210 302 c 128,-1,46
 190 313 190 313 164 313 c 0,26,27
EndSplineSet
Substitution: 0 65534 'L026' uni0E38
Substitution: 0 65534 'L026' uni0E38
EndChar
StartChar: b
Encoding: 98 98 67
Width: 354
Flags: W
Fore
73 55 m 1,0,1
 73 26 73 26 65.5 12.5 c 128,-1,2
 58 -1 58 -1 55 -7 c 1,3,-1
 22 6 l 1,4,5
 27 17 27 17 32 32 c 128,-1,6
 37 47 37 47 37 80 c 2,7,-1
 37 497 l 1,8,-1
 74 497 l 1,9,-1
 74 286 l 1,10,11
 91 314 91 314 119 331 c 128,-1,12
 147 348 147 348 186 348 c 0,13,14
 222 348 222 348 249 332.5 c 128,-1,15
 276 317 276 317 294 292 c 128,-1,16
 312 267 312 267 320.5 235 c 128,-1,17
 329 203 329 203 329 170 c 256,18,19
 329 137 329 137 320.5 104.5 c 128,-1,20
 312 72 312 72 294 47 c 128,-1,21
 276 22 276 22 249 6.5 c 128,-1,22
 222 -9 222 -9 186 -9 c 0,23,24
 147 -9 147 -9 118.5 9.5 c 128,-1,25
 90 28 90 28 73 55 c 1,0,1
295 170 m 0,26,27
 295 193 295 193 289 218 c 128,-1,28
 283 243 283 243 270 264 c 128,-1,29
 257 285 257 285 236 298.5 c 128,-1,30
 215 312 215 312 186 312 c 0,31,32
 160 312 160 312 140 301 c 128,-1,33
 120 290 120 290 106.5 272.5 c 128,-1,34
 93 255 93 255 85 233.5 c 128,-1,35
 77 212 77 212 74 190 c 2,36,-1
 74 151 l 2,37,38
 76 128 76 128 84 106 c 128,-1,39
 92 84 92 84 106 66.5 c 128,-1,40
 120 49 120 49 140 38 c 128,-1,41
 160 27 160 27 186 27 c 0,42,43
 215 27 215 27 236 40.5 c 128,-1,44
 257 54 257 54 270 74.5 c 128,-1,45
 283 95 283 95 289 120.5 c 128,-1,46
 295 146 295 146 295 170 c 0,26,27
EndSplineSet
Substitution: 0 65534 'L026' uni0E39
Substitution: 0 65534 'L026' uni0E39
EndChar
StartChar: c
Encoding: 99 99 68
Width: 295
Flags: W
Fore
275 28 m 2,0,1
 249 2 249 2 208 -6.5 c 128,-1,2
 167 -15 167 -15 126 0 c 0,3,4
 112 5 112 5 95 16 c 128,-1,5
 78 27 78 27 63 47 c 128,-1,6
 48 67 48 67 38 97 c 128,-1,7
 28 127 28 127 28 171 c 0,8,9
 28 214 28 214 38 244.5 c 128,-1,10
 48 275 48 275 63 295 c 128,-1,11
 78 315 78 315 95 326 c 128,-1,12
 112 337 112 337 126 342 c 0,13,14
 162 356 162 356 201 348.5 c 128,-1,15
 240 341 240 341 268 315 c 1,16,-1
 252 279 l 1,17,18
 243 291 243 291 229.5 299 c 128,-1,19
 216 307 216 307 200.5 310.5 c 128,-1,20
 185 314 185 314 169 313.5 c 128,-1,21
 153 313 153 313 140 308 c 0,22,23
 104 294 104 294 84 258 c 128,-1,24
 64 222 64 222 64 171 c 256,25,26
 64 120 64 120 84 84 c 128,-1,27
 104 48 104 48 140 34 c 0,28,29
 152 29 152 29 167.5 27.5 c 128,-1,30
 183 26 183 26 199 28.5 c 128,-1,31
 215 31 215 31 229.5 38 c 128,-1,32
 244 45 244 45 254 58 c 1,33,-1
 277 30 l 1,34,-1
 275 28 l 2,0,1
EndSplineSet
Substitution: 0 65534 'L026' uni0E3A
Substitution: 0 65534 'L026' uni0E3A
EndChar
StartChar: d
Encoding: 100 100 69
Width: 357
Flags: W
Fore
61 170 m 0,0,1
 61 146 61 146 67 120.5 c 128,-1,2
 73 95 73 95 86 74.5 c 128,-1,3
 99 54 99 54 120 40.5 c 128,-1,4
 141 27 141 27 170 27 c 0,5,6
 196 27 196 27 216 38 c 128,-1,7
 236 49 236 49 250 66.5 c 128,-1,8
 264 84 264 84 272 106 c 128,-1,9
 280 128 280 128 282 151 c 2,10,-1
 282 190 l 2,11,12
 279 212 279 212 271 233.5 c 128,-1,13
 263 255 263 255 249.5 272.5 c 128,-1,14
 236 290 236 290 216 301 c 128,-1,15
 196 312 196 312 170 312 c 0,16,17
 141 312 141 312 120 298.5 c 128,-1,18
 99 285 99 285 86 264 c 128,-1,19
 73 243 73 243 67 218 c 128,-1,20
 61 193 61 193 61 170 c 0,0,1
319 80 m 2,21,22
 319 47 319 47 324 32 c 128,-1,23
 329 17 329 17 334 6 c 1,24,-1
 301 -7 l 1,25,26
 298 -1 298 -1 290.5 12.5 c 128,-1,27
 283 26 283 26 283 55 c 1,28,29
 266 28 266 28 237.5 9.5 c 128,-1,30
 209 -9 209 -9 170 -9 c 0,31,32
 134 -9 134 -9 107 6.5 c 128,-1,33
 80 22 80 22 62 47 c 128,-1,34
 44 72 44 72 35.5 104.5 c 128,-1,35
 27 137 27 137 27 170 c 256,36,37
 27 203 27 203 35.5 235 c 128,-1,38
 44 267 44 267 62 292 c 128,-1,39
 80 317 80 317 107 332.5 c 128,-1,40
 134 348 134 348 170 348 c 0,41,42
 209 348 209 348 237 331 c 128,-1,43
 265 314 265 314 282 286 c 1,44,-1
 282 497 l 1,45,-1
 319 497 l 1,46,-1
 319 80 l 2,21,22
EndSplineSet
EndChar
StartChar: e
Encoding: 101 101 70
Width: 352
Flags: W
Fore
181 348 m 0,0,1
 230 348 230 348 259 326.5 c 128,-1,2
 288 305 288 305 303 276.5 c 128,-1,3
 318 248 318 248 322.5 219 c 128,-1,4
 327 190 327 190 327 176 c 0,5,6
 327 160 327 160 321 156 c 1,7,8
 317 152 317 152 299 152 c 2,9,-1
 68 152 l 1,10,11
 68 107 68 107 90.5 76 c 128,-1,12
 113 45 113 45 142 33 c 0,13,14
 164 24 164 24 184 24.5 c 128,-1,15
 204 25 204 25 219.5 30 c 128,-1,16
 235 35 235 35 246.5 41.5 c 128,-1,17
 258 48 258 48 263 52 c 1,18,-1
 286 22 l 1,19,20
 274 14 274 14 254.5 6 c 128,-1,21
 235 -2 235 -2 211.5 -6 c 128,-1,22
 188 -10 188 -10 163.5 -8.5 c 128,-1,23
 139 -7 139 -7 117 4 c 0,24,25
 79 23 79 23 52 63.5 c 128,-1,26
 25 104 25 104 25 168 c 0,27,28
 25 197 25 197 34 229 c 128,-1,29
 43 261 43 261 61.5 287.5 c 128,-1,30
 80 314 80 314 109.5 331 c 128,-1,31
 139 348 139 348 181 348 c 0,0,1
289 190 m 1,32,33
 290 208 290 208 284 230 c 128,-1,34
 278 252 278 252 264.5 271 c 128,-1,35
 251 290 251 290 230 302.5 c 128,-1,36
 209 315 209 315 179 315 c 0,37,38
 148 315 148 315 127 301.5 c 128,-1,39
 106 288 106 288 92.5 268.5 c 128,-1,40
 79 249 79 249 73 227.5 c 128,-1,41
 67 206 67 206 67 190 c 1,42,-1
 289 190 l 1,32,33
EndSplineSet
EndChar
StartChar: f
Encoding: 102 102 71
Width: 194
Flags: W
Fore
65 318 m 1,0,-1
 5 318 l 1,1,-1
 13 348 l 1,2,-1
 65 348 l 1,3,-1
 65 408 l 2,4,5
 65 439 65 439 75.5 458.5 c 128,-1,6
 86 478 86 478 103.5 488 c 128,-1,7
 121 498 121 498 144 498 c 128,-1,8
 167 498 167 498 193 491 c 1,9,-1
 188 459 l 1,10,11
 167 463 167 463 150.5 463.5 c 128,-1,12
 134 464 134 464 123 457.5 c 128,-1,13
 112 451 112 451 106.5 436 c 128,-1,14
 101 421 101 421 101 395 c 2,15,-1
 101 348 l 1,16,-1
 182 348 l 1,17,-1
 174 318 l 1,18,-1
 101 318 l 1,19,-1
 101 4 l 2,20,21
 101 -23 101 -23 95.5 -44.5 c 128,-1,22
 90 -66 90 -66 83 -82 c 0,23,24
 75 -100 75 -100 66 -114 c 1,25,-1
 33 -104 l 1,26,27
 48 -85 48 -85 56.5 -57 c 128,-1,28
 65 -29 65 -29 65 3 c 2,29,-1
 65 318 l 1,0,-1
EndSplineSet
EndChar
StartChar: g
Encoding: 103 103 72
Width: 359
Flags: W
Fore
280 285 m 1,0,1
 280 314 280 314 288 328.5 c 128,-1,2
 296 343 296 343 299 349 c 1,3,-1
 332 336 l 1,4,5
 327 325 327 325 322 310 c 128,-1,6
 317 295 317 295 317 262 c 2,7,-1
 318 6 l 2,8,9
 318 -50 318 -50 295.5 -83 c 128,-1,10
 273 -116 273 -116 241 -132 c 128,-1,11
 209 -148 209 -148 173 -150.5 c 128,-1,12
 137 -153 137 -153 110 -147 c 1,13,14
 115 -134 115 -134 117.5 -128 c 128,-1,15
 120 -122 120 -122 121 -119 c 128,-1,16
 122 -116 122 -116 122.5 -115 c 128,-1,17
 123 -114 123 -114 123 -112 c 1,18,19
 153 -118 153 -118 181.5 -113.5 c 128,-1,20
 210 -109 210 -109 232 -94 c 128,-1,21
 254 -79 254 -79 267 -52 c 128,-1,22
 280 -25 280 -25 280 15 c 2,23,-1
 280 51 l 1,24,25
 262 23 262 23 234 6 c 128,-1,26
 206 -11 206 -11 168 -11 c 0,27,28
 132 -11 132 -11 105 4.5 c 128,-1,29
 78 20 78 20 60 45.5 c 128,-1,30
 42 71 42 71 33.5 103 c 128,-1,31
 25 135 25 135 25 169 c 0,32,33
 25 202 25 202 33.5 234.5 c 128,-1,34
 42 267 42 267 60 292.5 c 128,-1,35
 78 318 78 318 105 333.5 c 128,-1,36
 132 349 132 349 168 349 c 0,37,38
 207 349 207 349 235 331.5 c 128,-1,39
 263 314 263 314 280 285 c 1,0,1
280 188 m 2,40,41
 278 210 278 210 270 232.5 c 128,-1,42
 262 255 262 255 248 273 c 128,-1,43
 234 291 234 291 214 302 c 128,-1,44
 194 313 194 313 168 313 c 0,45,46
 139 313 139 313 118 299.5 c 128,-1,47
 97 286 97 286 83.5 265 c 128,-1,48
 70 244 70 244 64 218.5 c 128,-1,49
 58 193 58 193 58 169 c 256,50,51
 58 145 58 145 64 119.5 c 128,-1,52
 70 94 70 94 83.5 73 c 128,-1,53
 97 52 97 52 118 38.5 c 128,-1,54
 139 25 139 25 168 25 c 0,55,56
 194 25 194 25 214 36 c 128,-1,57
 234 47 234 47 247.5 64.5 c 128,-1,58
 261 82 261 82 269 104 c 128,-1,59
 277 126 277 126 280 148 c 2,60,-1
 280 188 l 2,40,41
EndSplineSet
EndChar
StartChar: h
Encoding: 104 104 73
Width: 355
Flags: W
Fore
272 213 m 2,0,1
 272 238 272 238 263.5 256.5 c 128,-1,2
 255 275 255 275 242 286.5 c 128,-1,3
 229 298 229 298 213.5 303.5 c 128,-1,4
 198 309 198 309 184 309 c 0,5,6
 161 309 161 309 142.5 299 c 128,-1,7
 124 289 124 289 110.5 272 c 128,-1,8
 97 255 97 255 90 233.5 c 128,-1,9
 83 212 83 212 83 188 c 2,10,-1
 83 0 l 1,11,-1
 47 0 l 1,12,-1
 47 497 l 1,13,-1
 84 497 l 1,14,-1
 84 279 l 1,15,16
 98 306 98 306 125 324 c 128,-1,17
 152 342 152 342 186 342 c 0,18,19
 213 342 213 342 235.5 332 c 128,-1,20
 258 322 258 322 274 304.5 c 128,-1,21
 290 287 290 287 299 263.5 c 128,-1,22
 308 240 308 240 308 213 c 2,23,-1
 308 59 l 2,24,25
 308 39 308 39 314 21.5 c 128,-1,26
 320 4 320 4 322 3 c 1,27,-1
 289 -10 l 1,28,29
 286 -4 286 -4 279 13 c 128,-1,30
 272 30 272 30 272 59 c 2,31,-1
 272 213 l 2,0,1
EndSplineSet
EndChar
StartChar: i
Encoding: 105 105 74
Width: 138
Flags: W
Fore
51 348 m 1,0,-1
 87 348 l 1,1,-1
 87 0 l 1,2,-1
 51 0 l 1,3,-1
 51 348 l 1,0,-1
69 472 m 0,4,5
 81 472 81 472 89.5 463.5 c 128,-1,6
 98 455 98 455 98 442 c 0,7,8
 98 430 98 430 89.5 421 c 128,-1,9
 81 412 81 412 69 412 c 0,10,11
 56 412 56 412 47 421 c 128,-1,12
 38 430 38 430 38 442 c 0,13,14
 38 455 38 455 47 463.5 c 128,-1,15
 56 472 56 472 69 472 c 0,4,5
EndSplineSet
EndChar
StartChar: j
Encoding: 106 106 75
Width: 138
Flags: W
Fore
67 471 m 0,0,1
 80 471 80 471 88.5 462.5 c 128,-1,2
 97 454 97 454 97 441 c 0,3,4
 97 429 97 429 88.5 420 c 128,-1,5
 80 411 80 411 67 411 c 0,6,7
 55 411 55 411 46 420 c 128,-1,8
 37 429 37 429 37 441 c 0,9,10
 37 454 37 454 46 462.5 c 128,-1,11
 55 471 55 471 67 471 c 0,0,1
-29 -149 m 1,12,13
 -28 -149 -28 -149 -31 -144 c 128,-1,14
 -34 -139 -34 -139 -37 -133.5 c 128,-1,15
 -40 -128 -40 -128 -43 -123 c 128,-1,16
 -46 -118 -46 -118 -45 -118 c 0,17,18
 -7 -115 -7 -115 12.5 -106.5 c 128,-1,19
 32 -98 32 -98 40.5 -83.5 c 128,-1,20
 49 -69 49 -69 50 -46.5 c 128,-1,21
 51 -24 51 -24 51 8 c 2,22,-1
 51 348 l 1,23,-1
 87 348 l 1,24,-1
 87 -10 l 2,25,26
 87 -45 87 -45 82 -70 c 128,-1,27
 77 -95 77 -95 64.5 -111 c 128,-1,28
 52 -127 52 -127 29.5 -136 c 128,-1,29
 7 -145 7 -145 -29 -149 c 1,12,13
EndSplineSet
EndChar
StartChar: k
Encoding: 107 107 76
Width: 310
Flags: W
Fore
304 2 m 1,0,-1
 272 -10 l 1,1,-1
 87 186 l 1,2,-1
 87 0 l 1,3,-1
 50 0 l 1,4,-1
 50 497 l 1,5,-1
 87 497 l 1,6,-1
 87 217 l 1,7,-1
 247 354 l 1,8,-1
 279 341 l 1,9,-1
 120 202 l 1,10,-1
 304 2 l 1,0,-1
EndSplineSet
EndChar
StartChar: l
Encoding: 108 108 77
Width: 138
Flags: W
Fore
69 505 m 1,0,-1
 87 505 l 1,1,-1
 87 0 l 1,2,-1
 51 0 l 1,3,-1
 51 487 l 1,4,-1
 69 505 l 1,0,-1
EndSplineSet
EndChar
StartChar: m
Encoding: 109 109 78
Width: 543
Flags: W
Fore
46 266 m 2,0,1
 46 299 46 299 41 312.5 c 128,-1,2
 36 326 36 326 31 337 c 1,3,-1
 65 350 l 1,4,5
 68 344 68 344 74 330.5 c 128,-1,6
 80 317 80 317 82 290 c 1,7,8
 96 317 96 317 122.5 333 c 128,-1,9
 149 349 149 349 179 349 c 0,10,11
 214 349 214 349 242 330 c 128,-1,12
 270 311 270 311 281 278 c 1,13,14
 293 310 293 310 322 329.5 c 128,-1,15
 351 349 351 349 386 349 c 0,16,17
 423 349 423 349 445.5 333.5 c 128,-1,18
 468 318 468 318 480.5 297 c 128,-1,19
 493 276 493 276 497 253 c 128,-1,20
 501 230 501 230 501 215 c 2,21,-1
 501 61 l 2,22,23
 501 41 501 41 506.5 23.5 c 128,-1,24
 512 6 512 6 514 5 c 1,25,-1
 481 -8 l 1,26,27
 478 -2 478 -2 471.5 15 c 128,-1,28
 465 32 465 32 465 61 c 2,29,-1
 465 223 l 2,30,31
 465 266 465 266 444 290 c 128,-1,32
 423 314 423 314 386 314 c 0,33,34
 363 314 363 314 345.5 304.5 c 128,-1,35
 328 295 328 295 316 279 c 128,-1,36
 304 263 304 263 298 242 c 128,-1,37
 292 221 292 221 292 199 c 2,38,-1
 292 0 l 1,39,-1
 256 0 l 1,40,-1
 256 223 l 2,41,42
 256 266 256 266 231 290 c 128,-1,43
 206 314 206 314 170 314 c 0,44,45
 147 314 147 314 130.5 304.5 c 128,-1,46
 114 295 114 295 103.5 279 c 128,-1,47
 93 263 93 263 87.5 242 c 128,-1,48
 82 221 82 221 82 199 c 2,49,-1
 82 0 l 1,50,-1
 46 0 l 1,51,-1
 46 266 l 2,0,1
EndSplineSet
EndChar
StartChar: n
Encoding: 110 110 79
Width: 341
Flags: W
Fore
46 267 m 2,0,1
 46 283 46 283 44.5 294.5 c 128,-1,2
 43 306 43 306 40.5 313.5 c 128,-1,3
 38 321 38 321 35.5 326.5 c 128,-1,4
 33 332 33 332 31 337 c 1,5,-1
 65 350 l 1,6,7
 68 344 68 344 75 330 c 128,-1,8
 82 316 82 316 82 287 c 1,9,10
 97 318 97 318 125 334 c 128,-1,11
 153 350 153 350 183 350 c 0,12,13
 220 350 220 350 242.5 335.5 c 128,-1,14
 265 321 265 321 277.5 300.5 c 128,-1,15
 290 280 290 280 294.5 258.5 c 128,-1,16
 299 237 299 237 299 222 c 2,17,-1
 299 59 l 2,18,19
 299 39 299 39 304.5 21.5 c 128,-1,20
 310 4 310 4 312 3 c 1,21,-1
 279 -10 l 1,22,23
 276 -4 276 -4 269.5 13 c 128,-1,24
 263 30 263 30 263 59 c 2,25,-1
 263 223 l 2,26,27
 263 267 263 267 238.5 290 c 128,-1,28
 214 313 214 313 176 313 c 0,29,30
 154 313 154 313 136.5 303.5 c 128,-1,31
 119 294 119 294 107 278.5 c 128,-1,32
 95 263 95 263 89 242.5 c 128,-1,33
 83 222 83 222 83 200 c 2,34,-1
 83 0 l 1,35,-1
 46 0 l 1,36,-1
 46 267 l 2,0,1
EndSplineSet
EndChar
StartChar: o
Encoding: 111 111 80
Width: 329
Flags: W
Fore
164 348 m 256,0,1
 200 348 200 348 227 332.5 c 128,-1,2
 254 317 254 317 272 292 c 128,-1,3
 290 267 290 267 299 235 c 128,-1,4
 308 203 308 203 308 170 c 256,5,6
 308 137 308 137 299 105 c 128,-1,7
 290 73 290 73 272 48 c 128,-1,8
 254 23 254 23 227 7.5 c 128,-1,9
 200 -8 200 -8 164 -8 c 256,10,11
 128 -8 128 -8 101 7.5 c 128,-1,12
 74 23 74 23 56.5 48 c 128,-1,13
 39 73 39 73 30 105 c 128,-1,14
 21 137 21 137 21 170 c 256,15,16
 21 203 21 203 30 235 c 128,-1,17
 39 267 39 267 56.5 292 c 128,-1,18
 74 317 74 317 101 332.5 c 128,-1,19
 128 348 128 348 164 348 c 256,0,1
164 24 m 256,20,21
 191 24 191 24 211.5 37.5 c 128,-1,22
 232 51 232 51 245.5 72 c 128,-1,23
 259 93 259 93 265.5 119 c 128,-1,24
 272 145 272 145 272 170 c 0,25,26
 272 194 272 194 265.5 220 c 128,-1,27
 259 246 259 246 245.5 267.5 c 128,-1,28
 232 289 232 289 211.5 302.5 c 128,-1,29
 191 316 191 316 164 316 c 256,30,31
 137 316 137 316 116.5 302.5 c 128,-1,32
 96 289 96 289 82.5 268 c 128,-1,33
 69 247 69 247 62.5 221 c 128,-1,34
 56 195 56 195 56 170 c 256,35,36
 56 145 56 145 62.5 119 c 128,-1,37
 69 93 69 93 82.5 72 c 128,-1,38
 96 51 96 51 116.5 37.5 c 128,-1,39
 137 24 137 24 164 24 c 256,20,21
EndSplineSet
EndChar
StartChar: p
Encoding: 112 112 81
Width: 357
Flags: W
Fore
189 27 m 0,0,1
 218 27 218 27 238.5 40.5 c 128,-1,2
 259 54 259 54 272.5 75 c 128,-1,3
 286 96 286 96 292 121.5 c 128,-1,4
 298 147 298 147 298 171 c 256,5,6
 298 195 298 195 292 220.5 c 128,-1,7
 286 246 286 246 272.5 267 c 128,-1,8
 259 288 259 288 238.5 301.5 c 128,-1,9
 218 315 218 315 189 315 c 0,10,11
 162 315 162 315 142 304 c 128,-1,12
 122 293 122 293 108.5 275 c 128,-1,13
 95 257 95 257 87 234.5 c 128,-1,14
 79 212 79 212 77 190 c 2,15,-1
 77 151 l 2,16,17
 80 129 80 129 88 107 c 128,-1,18
 96 85 96 85 109.5 67 c 128,-1,19
 123 49 123 49 143 38 c 128,-1,20
 163 27 163 27 189 27 c 0,0,1
40 263 m 2,21,22
 40 296 40 296 35 311 c 128,-1,23
 30 326 30 326 25 337 c 1,24,-1
 58 350 l 1,25,26
 61 344 61 344 68.5 329.5 c 128,-1,27
 76 315 76 315 76 286 c 1,28,29
 93 315 93 315 121.5 333 c 128,-1,30
 150 351 150 351 189 351 c 0,31,32
 225 351 225 351 252 335.5 c 128,-1,33
 279 320 279 320 297 294.5 c 128,-1,34
 315 269 315 269 323.5 236.5 c 128,-1,35
 332 204 332 204 332 171 c 0,36,37
 332 137 332 137 323.5 105 c 128,-1,38
 315 73 315 73 297 47.5 c 128,-1,39
 279 22 279 22 252 6.5 c 128,-1,40
 225 -9 225 -9 189 -9 c 0,41,42
 150 -9 150 -9 122 8 c 128,-1,43
 94 25 94 25 77 53 c 1,44,-1
 77 -88 l 2,45,46
 77 -117 77 -117 70.5 -134 c 128,-1,47
 64 -151 64 -151 61 -157 c 1,48,-1
 27 -144 l 1,49,50
 29 -143 29 -143 34.5 -125.5 c 128,-1,51
 40 -108 40 -108 40 -88 c 2,52,-1
 40 263 l 2,21,22
EndSplineSet
EndChar
StartChar: q
Encoding: 113 113 82
Width: 362
Flags: W
Fore
172 27 m 0,0,1
 198 27 198 27 218 38 c 128,-1,2
 238 49 238 49 251.5 67 c 128,-1,3
 265 85 265 85 273 107 c 128,-1,4
 281 129 281 129 284 151 c 2,5,-1
 284 190 l 2,6,7
 282 212 282 212 274 234.5 c 128,-1,8
 266 257 266 257 252.5 275 c 128,-1,9
 239 293 239 293 219 304 c 128,-1,10
 199 315 199 315 172 315 c 0,11,12
 143 315 143 315 122.5 301.5 c 128,-1,13
 102 288 102 288 88.5 267 c 128,-1,14
 75 246 75 246 69 220.5 c 128,-1,15
 63 195 63 195 63 171 c 256,16,17
 63 147 63 147 69 121.5 c 128,-1,18
 75 96 75 96 88.5 75 c 128,-1,19
 102 54 102 54 122.5 40.5 c 128,-1,20
 143 27 143 27 172 27 c 0,0,1
321 -88 m 2,21,22
 321 -108 321 -108 326.5 -125.5 c 128,-1,23
 332 -143 332 -143 334 -144 c 1,24,-1
 300 -157 l 1,25,26
 297 -151 297 -151 290.5 -134 c 128,-1,27
 284 -117 284 -117 284 -88 c 2,28,-1
 284 53 l 1,29,30
 267 25 267 25 239 8 c 128,-1,31
 211 -9 211 -9 172 -9 c 0,32,33
 136 -9 136 -9 109 6.5 c 128,-1,34
 82 22 82 22 64 47.5 c 128,-1,35
 46 73 46 73 37.5 105 c 128,-1,36
 29 137 29 137 29 171 c 0,37,38
 29 204 29 204 37.5 236.5 c 128,-1,39
 46 269 46 269 64 294.5 c 128,-1,40
 82 320 82 320 109 335.5 c 128,-1,41
 136 351 136 351 172 351 c 0,42,43
 211 351 211 351 239.5 332.5 c 128,-1,44
 268 314 268 314 285 285 c 1,45,46
 285 314 285 314 292 329 c 128,-1,47
 299 344 299 344 302 350 c 1,48,-1
 336 337 l 1,49,50
 331 326 331 326 326 311 c 128,-1,51
 321 296 321 296 321 263 c 2,52,-1
 321 -88 l 2,21,22
EndSplineSet
EndChar
StartChar: r
Encoding: 114 114 83
Width: 222
Flags: W
Fore
47 263 m 2,0,1
 47 296 47 296 42 311 c 128,-1,2
 37 326 37 326 32 337 c 1,3,-1
 65 350 l 1,4,5
 66 347 66 347 69.5 340 c 128,-1,6
 73 333 73 333 76 322.5 c 128,-1,7
 79 312 79 312 81 299.5 c 128,-1,8
 83 287 83 287 81 274 c 1,9,10
 85 301 85 301 99 319 c 128,-1,11
 113 337 113 337 132.5 345.5 c 128,-1,12
 152 354 152 354 175.5 353 c 128,-1,13
 199 352 199 352 223 341 c 1,14,-1
 204 306 l 1,15,16
 189 314 189 314 169 314 c 128,-1,17
 149 314 149 314 131 302 c 128,-1,18
 113 290 113 290 99.5 263.5 c 128,-1,19
 86 237 86 237 84 192 c 2,20,-1
 84 0 l 1,21,-1
 47 0 l 1,22,-1
 47 263 l 2,0,1
EndSplineSet
EndChar
StartChar: s
Encoding: 115 115 84
Width: 284
Flags: W
Fore
266 89 m 0,0,1
 266 46 266 46 235 19 c 128,-1,2
 204 -8 204 -8 140 -9 c 0,3,4
 114 -9 114 -9 94 -4.5 c 128,-1,5
 74 0 74 0 59 6.5 c 128,-1,6
 44 13 44 13 32.5 21.5 c 128,-1,7
 21 30 21 30 13 37 c 1,8,-1
 39 64 l 1,9,10
 53 51 53 51 78 37 c 128,-1,11
 103 23 103 23 141 24 c 0,12,13
 180 25 180 25 204 40.5 c 128,-1,14
 228 56 228 56 228 82 c 0,15,16
 228 96 228 96 223.5 106 c 128,-1,17
 219 116 219 116 208 124.5 c 128,-1,18
 197 133 197 133 178 141 c 128,-1,19
 159 149 159 149 131 159 c 0,20,21
 81 177 81 177 54 201 c 128,-1,22
 27 225 27 225 27 257 c 0,23,24
 27 275 27 275 34.5 292.5 c 128,-1,25
 42 310 42 310 56 323.5 c 128,-1,26
 70 337 70 337 91.5 345.5 c 128,-1,27
 113 354 113 354 141 354 c 0,28,29
 154 354 154 354 168.5 351 c 128,-1,30
 183 348 183 348 197.5 343.5 c 128,-1,31
 212 339 212 339 224 333.5 c 128,-1,32
 236 328 236 328 244 323 c 1,33,-1
 228 290 l 1,34,35
 220 296 220 296 195 307.5 c 128,-1,36
 170 319 170 319 140 319 c 0,37,38
 105 319 105 319 85.5 302.5 c 128,-1,39
 66 286 66 286 66 262 c 0,40,41
 66 235 66 235 89.5 220.5 c 128,-1,42
 113 206 113 206 155 190 c 0,43,44
 179 181 179 181 199.5 172 c 128,-1,45
 220 163 220 163 234.5 151.5 c 128,-1,46
 249 140 249 140 257.5 125 c 128,-1,47
 266 110 266 110 266 89 c 0,0,1
EndSplineSet
EndChar
StartChar: t
Encoding: 116 116 85
Width: 200
Flags: W
Fore
145 26 m 0,0,1
 154 26 154 26 162 29 c 128,-1,2
 170 32 170 32 176 34 c 1,3,-1
 187 0 l 1,4,5
 177 -2 177 -2 163 -5.5 c 128,-1,6
 149 -9 149 -9 139 -9 c 0,7,8
 110 -9 110 -9 94.5 0.5 c 128,-1,9
 79 10 79 10 71.5 24.5 c 128,-1,10
 64 39 64 39 63 56.5 c 128,-1,11
 62 74 62 74 62 91 c 2,12,-1
 62 318 l 1,13,-1
 7 318 l 1,14,-1
 15 348 l 1,15,-1
 62 348 l 1,16,-1
 62 434 l 1,17,-1
 85 452 l 1,18,-1
 98 452 l 1,19,-1
 98 348 l 1,20,-1
 179 348 l 1,21,-1
 171 318 l 1,22,-1
 98 318 l 1,23,-1
 98 76 l 2,24,25
 98 45 98 45 111 35.5 c 128,-1,26
 124 26 124 26 145 26 c 0,0,1
EndSplineSet
EndChar
StartChar: u
Encoding: 117 117 86
Width: 355
Flags: W
Fore
305 75 m 2,0,1
 305 42 305 42 310 27 c 128,-1,2
 315 12 315 12 320 1 c 1,3,-1
 287 -12 l 1,4,5
 284 -6 284 -6 276.5 7.5 c 128,-1,6
 269 21 269 21 269 50 c 1,7,8
 254 19 254 19 224 5 c 128,-1,9
 194 -9 194 -9 164 -9 c 0,10,11
 127 -9 127 -9 104 5.5 c 128,-1,12
 81 20 81 20 67.5 40.5 c 128,-1,13
 54 61 54 61 49 82.5 c 128,-1,14
 44 104 44 104 44 119 c 2,15,-1
 44 348 l 1,16,-1
 80 348 l 1,17,-1
 80 118 l 2,18,19
 80 74 80 74 106.5 49 c 128,-1,20
 133 24 133 24 171 24 c 0,21,22
 193 24 193 24 211 34 c 128,-1,23
 229 44 229 44 241.5 60.5 c 128,-1,24
 254 77 254 77 261 98 c 128,-1,25
 268 119 268 119 268 141 c 2,26,-1
 268 348 l 1,27,-1
 305 348 l 1,28,-1
 305 75 l 2,0,1
EndSplineSet
EndChar
StartChar: v
Encoding: 118 118 87
Width: 335
Flags: W
Fore
277 353 m 1,0,-1
 315 346 l 1,1,2
 278 249 278 249 249 173 c 0,3,4
 237 140 237 140 225 109 c 128,-1,5
 213 78 213 78 203.5 54 c 128,-1,6
 194 30 194 30 188.5 15 c 128,-1,7
 183 1 183 1 183 0 c 0,8,9
 181 -8 181 -8 173 -9.5 c 128,-1,10
 165 -11 165 -11 157.5 -8 c 128,-1,11
 150 -5 150 -5 145.5 0 c 128,-1,12
 141 5 141 5 144 11 c 2,13,-1
 146 15 l 1,14,-1
 19 346 l 1,15,-1
 56 353 l 1,16,-1
 167 56 l 1,17,-1
 277 353 l 1,0,-1
EndSplineSet
EndChar
StartChar: w
Encoding: 119 119 88
Width: 520
Flags: W
Fore
247 345 m 2,0,1
 250 351 250 351 257 351.5 c 128,-1,2
 264 352 264 352 271 349.5 c 128,-1,3
 278 347 278 347 282 342.5 c 128,-1,4
 286 338 286 338 283 332 c 1,5,-1
 280 319 l 1,6,-1
 368 55 l 1,7,-1
 461 357 l 1,8,-1
 498 348 l 1,9,-1
 393 20 l 1,10,-1
 396 10 l 2,11,12
 398 3 398 3 391 -1 c 128,-1,13
 384 -5 384 -5 375 -5.5 c 128,-1,14
 366 -6 366 -6 358.5 -3 c 128,-1,15
 351 0 351 0 351 8 c 1,16,-1
 259 276 l 1,17,-1
 166 8 l 1,18,19
 166 0 166 0 158.5 -3 c 128,-1,20
 151 -6 151 -6 142 -5.5 c 128,-1,21
 133 -5 133 -5 126 -1 c 128,-1,22
 119 3 119 3 121 10 c 2,23,-1
 124 20 l 1,24,-1
 20 347 l 1,25,-1
 57 356 l 1,26,-1
 150 55 l 1,27,-1
 247 345 l 2,0,1
EndSplineSet
EndChar
StartChar: x
Encoding: 120 120 89
Width: 332
Flags: W
Fore
186 173 m 1,0,-1
 309 17 l 1,1,-1
 279 -6 l 1,2,-1
 165 146 l 1,3,-1
 52 -6 l 1,4,-1
 21 17 l 1,5,-1
 143 173 l 1,6,-1
 21 338 l 1,7,-1
 51 359 l 1,8,-1
 165 200 l 1,9,-1
 279 359 l 1,10,-1
 309 338 l 1,11,-1
 186 173 l 1,0,-1
EndSplineSet
EndChar
StartChar: y
Encoding: 121 121 90
Width: 346
Flags: W
Fore
167 -70 m 2,0,1
 159 -88 159 -88 149.5 -101.5 c 128,-1,2
 140 -115 140 -115 126 -126 c 0,3,4
 103 -142 103 -142 84.5 -148 c 128,-1,5
 66 -154 66 -154 61 -157 c 1,6,-1
 50 -125 l 1,7,8
 77 -114 77 -114 93 -105.5 c 128,-1,9
 109 -97 109 -97 120 -83.5 c 128,-1,10
 131 -70 131 -70 139 -48.5 c 128,-1,11
 147 -27 147 -27 158 10 c 1,12,-1
 21 342 l 1,13,-1
 57 358 l 1,14,-1
 179 54 l 1,15,-1
 292 358 l 1,16,-1
 325 342 l 1,17,18
 318.5 324 l 130,-1,19
 312 306 312 306 301 277 c 128,-1,20
 290 248 290 248 276 211.5 c 128,-1,21
 262 175 262 175 247 136.5 c 128,-1,22
 232 98 232 98 218 61 c 128,-1,23
 204 24 204 24 193 -5 c 128,-1,24
 182 -34 182 -34 175 -51.5 c 128,-1,25
 168 -69 168 -69 167 -70 c 2,0,1
EndSplineSet
EndChar
StartChar: z
Encoding: 122 122 91
Width: 311
Flags: W
Fore
31 0 m 2,0,1
 25 0 25 0 22 5.5 c 128,-1,2
 19 11 19 11 19 17.5 c 128,-1,3
 19 24 19 24 22 29.5 c 128,-1,4
 25 35 25 35 31 35 c 1,5,-1
 234 312 l 1,6,-1
 32 312 l 1,7,-1
 32 348 l 1,8,-1
 280 348 l 2,9,10
 286 348 286 348 289 342.5 c 128,-1,11
 292 337 292 337 292 330 c 128,-1,12
 292 323 292 323 289 317.5 c 128,-1,13
 286 312 286 312 280 312 c 1,14,-1
 76 35 l 1,15,-1
 289 35 l 1,16,-1
 289 0 l 1,17,-1
 31 0 l 2,0,1
EndSplineSet
EndChar
StartChar: braceleft
Encoding: 123 123 92
Width: 183
Flags: W
Fore
139 -89 m 1,0,-1
 149 -102 l 1,1,-1
 101 -102 l 2,2,3
 80 -102 80 -102 67.5 -87 c 128,-1,4
 55 -72 55 -72 55 -55 c 2,5,-1
 55 160 l 2,6,7
 55 173 55 173 50.5 184 c 128,-1,8
 46 195 46 195 32 200 c 1,9,-1
 33 215 l 1,10,11
 44 220 44 220 49.5 231 c 128,-1,12
 55 242 55 242 55 255 c 2,13,-1
 55 470 l 2,14,15
 55 487 55 487 67.5 502 c 128,-1,16
 80 517 80 517 101 517 c 2,17,-1
 149 517 l 1,18,-1
 139 504 l 1,19,-1
 116 502 l 1,20,21
 108 500 108 500 98.5 494 c 128,-1,22
 89 488 89 488 89 471 c 2,23,-1
 89 260 l 2,24,25
 89 252 89 252 85.5 243 c 128,-1,26
 82 234 82 234 77 226 c 128,-1,27
 72 218 72 218 66.5 213 c 128,-1,28
 61 208 61 208 57 207 c 1,29,30
 61 207 61 207 66.5 201.5 c 128,-1,31
 72 196 72 196 77 188.5 c 128,-1,32
 82 181 82 181 85.5 172 c 128,-1,33
 89 163 89 163 89 155 c 2,34,-1
 89 -56 l 2,35,36
 89 -73 89 -73 98.5 -79 c 128,-1,37
 108 -85 108 -85 116 -87 c 1,38,-1
 139 -89 l 1,0,-1
EndSplineSet
EndChar
StartChar: bar
Encoding: 124 124 93
Width: 130
Flags: W
Fore
83 474 m 1,0,-1
 83 0 l 1,1,-1
 55 0 l 1,2,-1
 55 474 l 1,3,-1
 83 474 l 1,0,-1
EndSplineSet
EndChar
StartChar: braceright
Encoding: 125 125 94
Width: 188
Flags: W
Fore
69 -87 m 1,0,1
 77 -85 77 -85 86.5 -79 c 128,-1,2
 96 -73 96 -73 96 -56 c 2,3,-1
 96 155 l 2,4,5
 96 163 96 163 99.5 172 c 128,-1,6
 103 181 103 181 108 188.5 c 128,-1,7
 113 196 113 196 118.5 201.5 c 128,-1,8
 124 207 124 207 128 207 c 1,9,10
 124 208 124 208 118.5 213 c 128,-1,11
 113 218 113 218 108 226 c 128,-1,12
 103 234 103 234 99.5 243 c 128,-1,13
 96 252 96 252 96 260 c 2,14,-1
 96 471 l 2,15,16
 96 488 96 488 86.5 494 c 128,-1,17
 77 500 77 500 69 502 c 1,18,-1
 46 504 l 1,19,-1
 36 517 l 1,20,-1
 84 517 l 2,21,22
 105 517 105 517 117.5 502 c 128,-1,23
 130 487 130 487 130 470 c 2,24,-1
 130 255 l 2,25,26
 130 242 130 242 135.5 231 c 128,-1,27
 141 220 141 220 152 215 c 1,28,-1
 153 200 l 1,29,30
 139 195 139 195 134.5 184 c 128,-1,31
 130 173 130 173 130 160 c 2,32,-1
 130 -55 l 2,33,34
 130 -72 130 -72 117.5 -87 c 128,-1,35
 105 -102 105 -102 84 -102 c 2,36,-1
 36 -102 l 1,37,-1
 46 -89 l 1,38,-1
 69 -87 l 1,0,1
EndSplineSet
EndChar
StartChar: asciitilde
Encoding: 126 126 95
Width: 406
Flags: W
Fore
368 199 m 1,0,1
 354 173 354 173 332.5 152.5 c 128,-1,2
 311 132 311 132 276 132 c 0,3,4
 258 132 258 132 240 139 c 128,-1,5
 222 146 222 146 204.5 154.5 c 128,-1,6
 187 163 187 163 170 170 c 128,-1,7
 153 177 153 177 137 177 c 0,8,9
 110 177 110 177 92.5 157 c 128,-1,10
 75 137 75 137 64 118 c 1,11,-1
 43 152 l 1,12,13
 50 163 50 163 58.5 174.5 c 128,-1,14
 67 186 67 186 78.5 195 c 128,-1,15
 90 204 90 204 104 210 c 128,-1,16
 118 216 118 216 136 216 c 0,17,18
 151 216 151 216 169.5 209 c 128,-1,19
 188 202 188 202 207.5 193 c 128,-1,20
 227 184 227 184 245.5 177 c 128,-1,21
 264 170 264 170 278 170 c 0,22,23
 289 170 289 170 299 175.5 c 128,-1,24
 309 181 309 181 317.5 189.5 c 128,-1,25
 326 198 326 198 332.5 207.5 c 128,-1,26
 339 217 339 217 344 226 c 1,27,-1
 368 199 l 1,0,1
EndSplineSet
EndChar
StartChar: uni0E33.alt1
Encoding: 65539 -1 96
Width: 349
Flags: W
Fore
-274 537 m 0,0,1
 -274 567 -274 567 -252.5 588.5 c 128,-1,2
 -231 610 -231 610 -200 610 c 0,3,4
 -170 610 -170 610 -148.5 588.5 c 128,-1,5
 -127 567 -127 567 -127 537 c 0,6,7
 -127 506 -127 506 -148.5 484.5 c 128,-1,8
 -170 463 -170 463 -200 463 c 0,9,10
 -231 463 -231 463 -252.5 484.5 c 128,-1,11
 -274 506 -274 506 -274 537 c 0,0,1
-200 498 m 0,12,13
 -184 498 -184 498 -173 509 c 128,-1,14
 -162 520 -162 520 -162 537 c 0,15,16
 -162 553 -162 553 -173 564 c 128,-1,17
 -184 575 -184 575 -200 575 c 0,18,19
 -217 575 -217 575 -228 564 c 128,-1,20
 -239 553 -239 553 -239 537 c 0,21,22
 -239 520 -239 520 -228 509 c 128,-1,23
 -217 498 -217 498 -200 498 c 0,12,13
292 0 m 1,24,-1
 253 0 l 1,25,-1
 253 299 l 2,26,27
 253 312 253 312 258 320 c 1,28,29
 254 327 254 327 246 336 c 128,-1,30
 238 345 238 345 226 353 c 128,-1,31
 214 361 214 361 197 366.5 c 128,-1,32
 180 372 180 372 159 372 c 0,33,34
 113 372 113 372 90.5 341 c 128,-1,35
 68 310 68 310 63 262 c 1,36,-1
 26 262 l 1,37,38
 28 293 28 293 37.5 319.5 c 128,-1,39
 47 346 47 346 63.5 365.5 c 128,-1,40
 80 385 80 385 104 396.5 c 128,-1,41
 128 408 128 408 159 408 c 0,42,43
 184 408 184 408 204 402.5 c 128,-1,44
 224 397 224 397 239 388.5 c 128,-1,45
 254 380 254 380 264.5 369.5 c 128,-1,46
 275 359 275 359 280 349 c 1,47,48
 282 351 282 351 287.5 350 c 128,-1,49
 293 349 293 349 301 341 c 0,50,51
 310 330 310 330 308 325 c 128,-1,52
 306 320 306 320 299 313 c 256,53,54
 292 306 292 306 292 292 c 2,55,-1
 292 0 l 1,24,-1
EndSplineSet
EndChar
StartChar: quotedbl
Encoding: 34 34 97
Width: 201
Flags: W
Fore
158 308 m 1,0,-1
 131 308 l 1,1,-1
 121 469 l 1,2,-1
 168 469 l 1,3,-1
 158 308 l 1,0,-1
71 308 m 1,4,-1
 44 308 l 1,5,-1
 34 469 l 1,6,-1
 81 469 l 1,7,-1
 71 308 l 1,4,-1
EndSplineSet
EndChar
StartChar: exclam
Encoding: 33 33 98
Width: 228
Flags: W
Fore
101 113 m 1,0,-1
 92 474 l 1,1,-1
 141 474 l 1,2,-1
 133 113 l 1,3,-1
 101 113 l 1,0,-1
150 34 m 0,4,5
 150 19 150 19 140.5 9.5 c 128,-1,6
 131 0 131 0 118 0 c 0,7,8
 103 0 103 0 93 9.5 c 128,-1,9
 83 19 83 19 83 34 c 0,10,11
 83 48 83 48 93 57 c 128,-1,12
 103 66 103 66 118 66 c 0,13,14
 131 66 131 66 140.5 57 c 128,-1,15
 150 48 150 48 150 34 c 0,4,5
EndSplineSet
EndChar
StartChar: uni0E4E.alt1
Encoding: 65540 -1 99
Width: 0
Flags: W
Fore
-67 661 m 1,0,1
 -98 660 -98 660 -125.5 644 c 128,-1,2
 -153 628 -153 628 -152.5 603.5 c 128,-1,3
 -152 579 -152 579 -121 572 c 1,4,-1
 -128 549 l 1,5,6
 -204 549 -204 549 -212 505 c 1,7,8
 -212 477 -212 477 -185 474 c 128,-1,9
 -158 471 -158 471 -138 482 c 1,10,-1
 -146 445 l 1,11,12
 -182 432 -182 432 -217 444 c 128,-1,13
 -252 456 -252 456 -253 501 c 1,14,15
 -245 560 -245 560 -167 569 c 1,16,17
 -195 598 -195 598 -188.5 622.5 c 128,-1,18
 -182 647 -182 647 -155 659 c 128,-1,19
 -128 671 -128 671 -86 670 c 1,20,-1
 -67 661 l 1,0,1
EndSplineSet
EndChar
StartChar: exclamdown
Encoding: 161 161 100
Width: 155
Flags: W
Fore
93 229 m 1,0,-1
 101 -132 l 1,1,-1
 52 -132 l 1,2,-1
 61 229 l 1,3,-1
 93 229 l 1,0,-1
110 314 m 0,4,5
 110 299 110 299 100.5 289.5 c 128,-1,6
 91 280 91 280 78 280 c 0,7,8
 63 280 63 280 53 289.5 c 128,-1,9
 43 299 43 299 43 314 c 0,10,11
 43 328 43 328 53 337 c 128,-1,12
 63 346 63 346 78 346 c 0,13,14
 91 346 91 346 100.5 337 c 128,-1,15
 110 328 110 328 110 314 c 0,4,5
EndSplineSet
EndChar
StartChar: cent
Encoding: 162 162 101
Width: 331
Flags: W
Fore
196 461 m 1,0,-1
 196 410 l 1,1,2
 219 408 219 408 240.5 400 c 128,-1,3
 262 392 262 392 280 375 c 1,4,-1
 264 339 l 1,5,6
 250 356 250 356 232.5 364 c 128,-1,7
 215 372 215 372 196 374 c 1,8,-1
 196 93 l 1,9,10
 215 93 215 93 233 99.5 c 128,-1,11
 251 106 251 106 265 123 c 1,12,-1
 287 99 l 1,13,14
 270 77 270 77 246 67.5 c 128,-1,15
 222 58 222 58 196 57 c 1,16,-1
 196 0 l 1,17,-1
 175 0 l 1,18,-1
 175 58 l 1,19,20
 166 60 166 60 157.5 61.5 c 128,-1,21
 149 63 149 63 141 66 c 0,22,23
 127 71 127 71 110.5 82 c 128,-1,24
 94 93 94 93 79 112.5 c 128,-1,25
 64 132 64 132 54 161.5 c 128,-1,26
 44 191 44 191 44 234 c 256,27,28
 44 277 44 277 54 306.5 c 128,-1,29
 64 336 64 336 79 355.5 c 128,-1,30
 94 375 94 375 110.5 385.5 c 128,-1,31
 127 396 127 396 141 401 c 0,32,33
 159 408 159 408 175 409 c 1,34,-1
 175 461 l 1,35,-1
 196 461 l 1,0,-1
153 100 m 0,36,37
 158 98 158 98 163.5 97 c 128,-1,38
 169 96 169 96 175 94 c 1,39,-1
 175 373 l 1,40,41
 129 366 129 366 104.5 328.5 c 128,-1,42
 80 291 80 291 80 234 c 0,43,44
 80 183 80 183 99 148 c 128,-1,45
 118 113 118 113 153 100 c 0,36,37
EndSplineSet
EndChar
StartChar: sterling
Encoding: 163 163 102
Width: 382
Flags: W
Fore
42 0 m 1,0,-1
 42 25 l 1,1,2
 76 44 76 44 95.5 65.5 c 128,-1,3
 115 87 115 87 124 112 c 128,-1,4
 133 137 133 137 133.5 164.5 c 128,-1,5
 134 192 134 192 129 223 c 1,6,-1
 43 223 l 1,7,-1
 51 253 l 1,8,-1
 125 253 l 1,9,10
 121 270 121 270 113.5 292.5 c 128,-1,11
 106 315 106 315 105 338 c 0,12,13
 103 407 103 407 141.5 441.5 c 128,-1,14
 180 476 180 476 238 476 c 0,15,16
 269 476 269 476 296 463.5 c 128,-1,17
 323 451 323 451 336 437 c 1,18,-1
 322 406 l 1,19,20
 311 420 311 420 287 432 c 128,-1,21
 263 444 263 444 237 444 c 0,22,23
 189 444 189 444 163.5 414.5 c 128,-1,24
 138 385 138 385 142 337 c 0,25,26
 144 311 144 311 150.5 290.5 c 128,-1,27
 157 270 157 270 161 253 c 1,28,-1
 273 253 l 1,29,-1
 265 223 l 1,30,-1
 165 223 l 1,31,32
 170 199 170 199 168.5 171.5 c 128,-1,33
 167 144 167 144 159.5 118.5 c 128,-1,34
 152 93 152 93 138 70.5 c 128,-1,35
 124 48 124 48 104 34 c 1,36,-1
 345 34 l 1,37,-1
 345 0 l 1,38,-1
 42 0 l 1,0,-1
EndSplineSet
EndChar
StartChar: currency
Encoding: 164 164 103
Width: 440
Flags: W
Fore
349 231 m 256,0,1
 349 208 349 208 341 187.5 c 128,-1,2
 333 167 333 167 319 150 c 1,3,-1
 379 91 l 1,4,-1
 360 72 l 1,5,-1
 300 130 l 1,6,7
 284 118 284 118 264 110.5 c 128,-1,8
 244 103 244 103 221 103 c 256,9,10
 198 103 198 103 177.5 111 c 128,-1,11
 157 119 157 119 141 132 c 1,12,-1
 79 72 l 1,13,-1
 61 91 l 1,14,-1
 121 151 l 1,15,16
 109 167 109 167 101 187.5 c 128,-1,17
 93 208 93 208 93 231 c 0,18,19
 93 277 93 277 120 310 c 1,20,-1
 61 369 l 1,21,-1
 79 388 l 1,22,-1
 139 330 l 1,23,24
 156 344 156 344 177 352 c 128,-1,25
 198 360 198 360 221 360 c 256,26,27
 244 360 244 360 264.5 352 c 128,-1,28
 285 344 285 344 301 331 c 1,29,-1
 360 388 l 1,30,-1
 379 369 l 1,31,-1
 321 312 l 1,32,33
 333 295 333 295 341 274.5 c 128,-1,34
 349 254 349 254 349 231 c 256,0,1
221 135 m 256,35,36
 261 135 261 135 289 163 c 128,-1,37
 317 191 317 191 317 231 c 0,38,39
 317 272 317 272 289 300 c 128,-1,40
 261 328 261 328 221 328 c 256,41,42
 181 328 181 328 153 300 c 128,-1,43
 125 272 125 272 125 231 c 0,44,45
 125 191 125 191 153 163 c 128,-1,46
 181 135 181 135 221 135 c 256,35,36
EndSplineSet
EndChar
StartChar: yen
Encoding: 165 165 104
Width: 382
Flags: W
Fore
233 255 m 1,0,-1
 331 255 l 1,1,-1
 331 227 l 1,2,-1
 216 227 l 1,3,-1
 209 214 l 1,4,-1
 209 165 l 1,5,-1
 331 165 l 1,6,-1
 331 134 l 1,7,-1
 209 134 l 1,8,-1
 209 -3 l 1,9,-1
 170 -3 l 1,10,-1
 170 134 l 1,11,-1
 51 134 l 1,12,-1
 51 165 l 1,13,-1
 170 165 l 1,14,-1
 170 214 l 1,15,-1
 163 227 l 1,16,-1
 51 227 l 1,17,-1
 51 255 l 1,18,-1
 146 255 l 1,19,20
 104 325 104 325 80.5 363 c 128,-1,21
 57 401 57 401 45.5 420.5 c 128,-1,22
 34 440 34 440 30.5 447 c 128,-1,23
 27 454 27 454 23 460 c 1,24,-1
 55 480 l 1,25,-1
 191 256 l 1,26,27
 236 333 236 333 261.5 375 c 128,-1,28
 287 417 287 417 300.5 438 c 128,-1,29
 314 459 314 459 319 466 c 128,-1,30
 324 473 324 473 328 480 c 1,31,-1
 360 460 l 1,32,-1
 233 255 l 1,0,-1
EndSplineSet
EndChar
StartChar: brokenbar
Encoding: 166 166 105
Width: 175
Flags: W
Fore
106 232 m 1,0,-1
 71 232 l 1,1,-1
 71 478 l 1,2,-1
 106 478 l 1,3,-1
 106 232 l 1,0,-1
106 -127 m 1,4,-1
 71 -127 l 1,5,-1
 71 119 l 1,6,-1
 106 119 l 1,7,-1
 106 -127 l 1,4,-1
EndSplineSet
EndChar
StartChar: section
Encoding: 167 167 106
Width: 382
Flags: W
Fore
325 215 m 0,0,1
 325 188 325 188 314 167.5 c 128,-1,2
 303 147 303 147 283 128 c 1,3,4
 292 120 292 120 299.5 103.5 c 128,-1,5
 307 87 307 87 307 66 c 0,6,7
 307 16 307 16 270 -12 c 128,-1,8
 233 -40 233 -40 179 -40 c 0,9,10
 144 -40 144 -40 117.5 -31 c 128,-1,11
 91 -22 91 -22 74 -7 c 1,12,-1
 90 22 l 1,13,14
 102 10 102 10 125 0.5 c 128,-1,15
 148 -9 148 -9 181 -9 c 0,16,17
 222 -9 222 -9 247 10 c 128,-1,18
 272 29 272 29 272 61 c 0,19,20
 272 76 272 76 267.5 88 c 128,-1,21
 263 100 263 100 252 110.5 c 128,-1,22
 241 121 241 121 222 130 c 128,-1,23
 203 139 203 139 174 149 c 0,24,25
 115 168 115 168 85.5 190.5 c 128,-1,26
 56 213 56 213 56 255 c 0,27,28
 56 273 56 273 65 293.5 c 128,-1,29
 74 314 74 314 102 336 c 1,30,31
 91 346 91 346 85 360.5 c 128,-1,32
 79 375 79 375 79 391 c 0,33,34
 79 436 79 436 113.5 462.5 c 128,-1,35
 148 489 148 489 201 489 c 0,36,37
 235 489 235 489 260 480.5 c 128,-1,38
 285 472 285 472 301 463 c 1,39,-1
 283 433 l 1,40,41
 270 442 270 442 248 451 c 128,-1,42
 226 460 226 460 196 460 c 0,43,44
 162 460 162 460 138.5 442 c 128,-1,45
 115 424 115 424 115 397 c 0,46,47
 115 365 115 365 143.5 347.5 c 128,-1,48
 172 330 172 330 217 316 c 0,49,50
 240 308 240 308 260 299 c 128,-1,51
 280 290 280 290 294.5 279 c 128,-1,52
 309 268 309 268 317 252.5 c 128,-1,53
 325 237 325 237 325 215 c 0,0,1
292 210 m 0,54,55
 292 232 292 232 272.5 251 c 128,-1,56
 253 270 253 270 210 285 c 0,57,58
 190 291 190 291 166 300 c 128,-1,59
 142 309 142 309 125 319 c 1,60,61
 88 289 88 289 88 257 c 0,62,63
 88 237 88 237 107 216.5 c 128,-1,64
 126 196 126 196 181 178 c 0,65,66
 214 166 214 166 232 160.5 c 128,-1,67
 250 155 250 155 261 147 c 1,68,69
 273 160 273 160 282.5 176 c 128,-1,70
 292 192 292 192 292 210 c 0,54,55
EndSplineSet
EndChar
StartChar: dieresis
Encoding: 168 168 107
Width: 232
Flags: W
Fore
22 433 m 256,0,1
 22 447 22 447 30.5 456 c 128,-1,2
 39 465 39 465 53 465 c 256,3,4
 67 465 67 465 76 456 c 128,-1,5
 85 447 85 447 85 433 c 256,6,7
 85 419 85 419 76 410.5 c 128,-1,8
 67 402 67 402 53 402 c 256,9,10
 39 402 39 402 30.5 410.5 c 128,-1,11
 22 419 22 419 22 433 c 256,0,1
146 433 m 256,12,13
 146 447 146 447 154.5 456 c 128,-1,14
 163 465 163 465 177 465 c 256,15,16
 191 465 191 465 200 456 c 128,-1,17
 209 447 209 447 209 433 c 256,18,19
 209 419 209 419 200 410.5 c 128,-1,20
 191 402 191 402 177 402 c 256,21,22
 163 402 163 402 154.5 410.5 c 128,-1,23
 146 419 146 419 146 433 c 256,12,13
EndSplineSet
EndChar
StartChar: copyright
Encoding: 169 169 108
Width: 536
Flags: W
Fore
269 486 m 0,0,1
 318 486 318 486 362 466 c 128,-1,2
 406 446 406 446 438.5 412 c 128,-1,3
 471 378 471 378 490 332.5 c 128,-1,4
 509 287 509 287 509 236 c 0,5,6
 509 184 509 184 490 138.5 c 128,-1,7
 471 93 471 93 438.5 59 c 128,-1,8
 406 25 406 25 362 5 c 128,-1,9
 318 -15 318 -15 269 -15 c 0,10,11
 219 -15 219 -15 175.5 5 c 128,-1,12
 132 25 132 25 99 59 c 128,-1,13
 66 93 66 93 47 138.5 c 128,-1,14
 28 184 28 184 28 236 c 0,15,16
 28 287 28 287 47 332.5 c 128,-1,17
 66 378 66 378 99 412 c 128,-1,18
 132 446 132 446 175.5 466 c 128,-1,19
 219 486 219 486 269 486 c 0,0,1
269 15 m 256,20,21
 313 15 313 15 351.5 32.5 c 128,-1,22
 390 50 390 50 418.5 80 c 128,-1,23
 447 110 447 110 463.5 150.5 c 128,-1,24
 480 191 480 191 480 236 c 256,25,26
 480 281 480 281 463.5 321.5 c 128,-1,27
 447 362 447 362 418.5 392 c 128,-1,28
 390 422 390 422 351.5 439.5 c 128,-1,29
 313 457 313 457 269 457 c 256,30,31
 225 457 225 457 186.5 439.5 c 128,-1,32
 148 422 148 422 119.5 392 c 128,-1,33
 91 362 91 362 74.5 321.5 c 128,-1,34
 58 281 58 281 58 236 c 256,35,36
 58 191 58 191 74.5 150.5 c 128,-1,37
 91 110 91 110 119.5 80 c 128,-1,38
 148 50 148 50 186.5 32.5 c 128,-1,39
 225 15 225 15 269 15 c 256,20,21
369 108 m 1,40,41
 345 84 345 84 306 76.5 c 128,-1,42
 267 69 267 69 231 82 c 0,43,44
 218 86 218 86 202 96 c 128,-1,45
 186 106 186 106 172 123 c 128,-1,46
 158 140 158 140 148.5 166.5 c 128,-1,47
 139 193 139 193 139 232 c 0,48,49
 139 270 139 270 148.5 296.5 c 128,-1,50
 158 323 158 323 172 340.5 c 128,-1,51
 186 358 186 358 202 367.5 c 128,-1,52
 218 377 218 377 231 382 c 0,53,54
 264 394 264 394 299.5 387 c 128,-1,55
 335 380 335 380 361 356 c 1,56,-1
 346 327 l 1,57,58
 326 349 326 349 297 355 c 128,-1,59
 268 361 268 361 241 351 c 0,60,61
 209 340 209 340 190.5 308.5 c 128,-1,62
 172 277 172 277 172 232 c 256,63,64
 172 187 172 187 190.5 155 c 128,-1,65
 209 123 209 123 241 112 c 0,66,67
 253 108 253 108 267.5 106.5 c 128,-1,68
 282 105 282 105 296 107.5 c 128,-1,69
 310 110 310 110 323.5 116.5 c 128,-1,70
 337 123 337 123 347 134 c 1,71,-1
 369 108 l 1,40,41
EndSplineSet
EndChar
StartChar: ordfeminine
Encoding: 170 170 109
Width: 252
Flags: W
Fore
115 187 m 0,0,1
 91 187 91 187 74 197 c 128,-1,2
 57 207 57 207 46 223 c 128,-1,3
 35 239 35 239 29.5 259.5 c 128,-1,4
 24 280 24 280 24 301 c 256,5,6
 24 322 24 322 29.5 342.5 c 128,-1,7
 35 363 35 363 46 379 c 128,-1,8
 57 395 57 395 74 405 c 128,-1,9
 91 415 91 415 115 415 c 0,10,11
 140 415 140 415 157 404 c 128,-1,12
 174 393 174 393 185 375 c 1,13,-1
 185 415 l 1,14,-1
 213 415 l 1,15,-1
 213 226 l 1,16,-1
 215 194 l 1,17,-1
 186 194 l 1,18,-1
 186 227 l 1,19,20
 175 209 175 209 157.5 198 c 128,-1,21
 140 187 140 187 115 187 c 0,0,1
117 383 m 0,22,23
 100 383 100 383 88 375 c 128,-1,24
 76 367 76 367 68.5 355 c 128,-1,25
 61 343 61 343 57.5 328.5 c 128,-1,26
 54 314 54 314 54 301 c 0,27,28
 54 287 54 287 57.5 272.5 c 128,-1,29
 61 258 61 258 68.5 246 c 128,-1,30
 76 234 76 234 88 226.5 c 128,-1,31
 100 219 100 219 117 219 c 0,32,33
 148 219 148 219 164 243 c 128,-1,34
 180 267 180 267 181 305 c 0,35,36
 181 337 181 337 164.5 360 c 128,-1,37
 148 383 148 383 117 383 c 0,22,23
EndSplineSet
EndChar
StartChar: guillemotleft
Encoding: 171 171 110
Width: 300
Flags: W
Fore
119 309 m 1,0,-1
 159 309 l 1,1,-1
 69 169 l 1,2,-1
 159 29 l 1,3,-1
 119 29 l 1,4,-1
 37 160 l 2,5,6
 32 169 32 169 37 178 c 2,7,-1
 119 309 l 1,0,-1
226 309 m 1,8,-1
 266 309 l 1,9,-1
 176 169 l 1,10,-1
 266 29 l 1,11,-1
 226 29 l 1,12,-1
 144 160 l 2,13,14
 139 169 139 169 144 178 c 2,15,-1
 226 309 l 1,8,-1
EndSplineSet
EndChar
StartChar: logicalnot
Encoding: 172 172 111
Width: 409
Flags: W
Fore
339 93 m 1,0,-1
 339 246 l 1,1,-1
 28 246 l 1,2,-1
 28 282 l 1,3,-1
 378 282 l 1,4,-1
 378 93 l 1,5,-1
 339 93 l 1,0,-1
EndSplineSet
EndChar
StartChar: registered
Encoding: 174 174 112
Width: 538
Flags: W
Fore
268 487 m 0,0,1
 317 487 317 487 361 467 c 128,-1,2
 405 447 405 447 437.5 413 c 128,-1,3
 470 379 470 379 489 333.5 c 128,-1,4
 508 288 508 288 508 236 c 256,5,6
 508 184 508 184 489 138.5 c 128,-1,7
 470 93 470 93 437.5 59 c 128,-1,8
 405 25 405 25 361 5.5 c 128,-1,9
 317 -14 317 -14 268 -14 c 0,10,11
 218 -14 218 -14 174.5 5.5 c 128,-1,12
 131 25 131 25 98.5 59 c 128,-1,13
 66 93 66 93 47 138.5 c 128,-1,14
 28 184 28 184 28 236 c 256,15,16
 28 288 28 288 47 333.5 c 128,-1,17
 66 379 66 379 98.5 413 c 128,-1,18
 131 447 131 447 174.5 467 c 128,-1,19
 218 487 218 487 268 487 c 0,0,1
268 15 m 256,20,21
 312 15 312 15 350.5 32.5 c 128,-1,22
 389 50 389 50 417.5 80 c 128,-1,23
 446 110 446 110 462.5 150.5 c 128,-1,24
 479 191 479 191 479 236 c 256,25,26
 479 281 479 281 462.5 321.5 c 128,-1,27
 446 362 446 362 417.5 392.5 c 128,-1,28
 389 423 389 423 350.5 440.5 c 128,-1,29
 312 458 312 458 268 458 c 256,30,31
 224 458 224 458 185.5 440.5 c 128,-1,32
 147 423 147 423 118.5 392.5 c 128,-1,33
 90 362 90 362 73.5 321.5 c 128,-1,34
 57 281 57 281 57 236 c 256,35,36
 57 191 57 191 73.5 150.5 c 128,-1,37
 90 110 90 110 118.5 80 c 128,-1,38
 147 50 147 50 185.5 32.5 c 128,-1,39
 224 15 224 15 268 15 c 256,20,21
212 202 m 1,40,-1
 212 80 l 1,41,-1
 188 80 l 1,42,-1
 188 358 l 2,43,44
 188 364 188 364 182 369 c 128,-1,45
 176 374 176 374 178 380 c 0,46,47
 179 382 179 382 183 385 c 128,-1,48
 187 388 187 388 193 388 c 0,49,50
 197 388 197 388 204 384 c 1,51,-1
 256 384 l 2,52,53
 277 384 277 384 297.5 379.5 c 128,-1,54
 318 375 318 375 333.5 364.5 c 128,-1,55
 349 354 349 354 358.5 336.5 c 128,-1,56
 368 319 368 319 368 293 c 0,57,58
 368 254 368 254 347 233.5 c 128,-1,59
 326 213 326 213 298 205 c 1,60,-1
 378 81 l 1,61,-1
 350 75 l 1,62,-1
 267 202 l 1,63,-1
 212 202 l 1,40,-1
213 360 m 1,64,-1
 213 225 l 1,65,-1
 257 225 l 2,66,67
 301 225 301 225 322 245 c 128,-1,68
 343 265 343 265 343 294 c 0,69,70
 343 320 343 320 323 340 c 128,-1,71
 303 360 303 360 256 360 c 2,72,-1
 213 360 l 1,64,-1
EndSplineSet
EndChar
StartChar: macron
Encoding: 175 175 113
Width: 216
Flags: W
Fore
28 422 m 1,0,-1
 28 454 l 1,1,-1
 187 454 l 1,2,-1
 187 422 l 1,3,-1
 28 422 l 1,0,-1
EndSplineSet
EndChar
StartChar: degree
Encoding: 176 176 114
Width: 216
Flags: W
Fore
108 478 m 256,0,1
 143 478 143 478 167.5 453.5 c 128,-1,2
 192 429 192 429 192 394 c 256,3,4
 192 359 192 359 167.5 334.5 c 128,-1,5
 143 310 143 310 108 310 c 256,6,7
 73 310 73 310 49 334.5 c 128,-1,8
 25 359 25 359 24 394 c 0,9,10
 24 429 24 429 48.5 453.5 c 128,-1,11
 73 478 73 478 108 478 c 256,0,1
108 337 m 0,12,13
 131 337 131 337 148 353.5 c 128,-1,14
 165 370 165 370 165 394 c 0,15,16
 165 417 165 417 148 434.5 c 128,-1,17
 131 452 131 452 108 452 c 0,18,19
 84 452 84 452 67 434.5 c 128,-1,20
 50 417 50 417 51 394 c 0,21,22
 51 370 51 370 67.5 353.5 c 128,-1,23
 84 337 84 337 108 337 c 0,12,13
EndSplineSet
EndChar
StartChar: plusminus
Encoding: 177 177 115
Width: 405
Flags: W
Fore
363 225 m 1,0,-1
 223 225 l 1,1,-1
 223 83 l 1,2,-1
 184 83 l 1,3,-1
 184 225 l 1,4,-1
 43 225 l 1,5,-1
 43 263 l 1,6,-1
 184 263 l 1,7,-1
 184 404 l 1,8,-1
 223 404 l 1,9,-1
 223 263 l 1,10,-1
 363 263 l 1,11,-1
 363 225 l 1,0,-1
363 0 m 1,12,-1
 43 0 l 1,13,-1
 43 35 l 1,14,-1
 363 35 l 1,15,-1
 363 0 l 1,12,-1
EndSplineSet
EndChar
StartChar: twosuperior
Encoding: 178 178 116
Width: 259
Flags: W
Fore
67 442 m 0,0,1
 82 464 82 464 108.5 472 c 128,-1,2
 135 480 135 480 163 471 c 0,3,4
 189 463 189 463 205 440.5 c 128,-1,5
 221 418 221 418 221 386 c 0,6,7
 221 366 221 366 212 347.5 c 128,-1,8
 203 329 203 329 189.5 312.5 c 128,-1,9
 176 296 176 296 159.5 282 c 128,-1,10
 143 268 143 268 128 256 c 0,11,12
 114 245 114 245 106.5 239 c 128,-1,13
 99 233 99 233 92 225 c 1,14,-1
 197 225 l 1,15,-1
 206 243 l 1,16,17
 207 243 207 243 218 239 c 128,-1,18
 229 235 229 235 238 232 c 1,19,-1
 218 190 l 1,20,-1
 56 190 l 2,21,22
 36 189 36 189 39 208 c 0,23,24
 41 217 41 217 42.5 221 c 128,-1,25
 44 225 44 225 51 225 c 2,26,-1
 52 225 l 1,27,28
 62 241 62 241 80 258 c 128,-1,29
 98 275 98 275 108 283 c 0,30,31
 139 309 139 309 162.5 334 c 128,-1,32
 186 359 186 359 186 387 c 0,33,34
 186 406 186 406 177 420.5 c 128,-1,35
 168 435 168 435 151 440 c 0,36,37
 135 445 135 445 119.5 440.5 c 128,-1,38
 104 436 104 436 93 422 c 0,39,40
 85 409 85 409 84 398 c 128,-1,41
 83 387 83 387 86 373 c 1,42,-1
 54 364 l 1,43,44
 45 411 45 411 67 442 c 0,0,1
EndSplineSet
EndChar
StartChar: threesuperior
Encoding: 179 179 117
Width: 260
Flags: W
Fore
205 474 m 1,0,1
 210 475 210 475 214 471.5 c 128,-1,2
 218 468 218 468 218 463 c 0,3,4
 218 457 218 457 215 447 c 128,-1,5
 212 437 212 437 203 440 c 1,6,7
 202 439 202 439 195 431.5 c 128,-1,8
 188 424 188 424 179 414 c 128,-1,9
 170 404 170 404 161.5 395 c 128,-1,10
 153 386 153 386 149 382 c 1,11,12
 182 383 182 383 201.5 364.5 c 128,-1,13
 221 346 221 346 227 319.5 c 128,-1,14
 233 293 233 293 226.5 263.5 c 128,-1,15
 220 234 220 234 202 215 c 0,16,17
 182 192 182 192 155 186.5 c 128,-1,18
 128 181 128 181 102 189.5 c 128,-1,19
 76 198 76 198 55 220 c 128,-1,20
 34 242 34 242 27 274 c 1,21,-1
 59 284 l 1,22,23
 68 250 68 250 88.5 233.5 c 128,-1,24
 109 217 109 217 130.5 216.5 c 128,-1,25
 152 216 152 216 171 230 c 128,-1,26
 190 244 190 244 196 272 c 0,27,28
 201 293 201 293 194 312.5 c 128,-1,29
 187 332 187 332 173.5 343.5 c 128,-1,30
 160 355 160 355 143 354 c 128,-1,31
 126 353 126 353 110 334 c 0,32,33
 104 328 104 328 98.5 330.5 c 128,-1,34
 93 333 93 333 89 337 c 0,35,36
 86 340 86 340 82.5 345.5 c 128,-1,37
 79 351 79 351 86 357 c 1,38,39
 102 376 102 376 117 393 c 0,40,41
 141 421 l 128,-1,42
 153 435 153 435 158 440 c 1,43,-1
 79 440 l 1,44,45
 78 438 78 438 76 431.5 c 128,-1,46
 74 425 74 425 72 419 c 0,47,48
 66 403 l 1,49,50
 45 413 45 413 41 415 c 128,-1,51
 37 417 37 417 38 417 c 1,52,-1
 54 474 l 1,53,-1
 205 474 l 1,0,1
EndSplineSet
EndChar
StartChar: acute
Encoding: 180 180 118
Width: 216
Flags: W
Fore
112 386 m 1,0,-1
 81 386 l 1,1,-1
 148 490 l 1,2,-1
 207 490 l 1,3,-1
 112 386 l 1,0,-1
EndSplineSet
EndChar
StartChar: mu
Encoding: 181 181 119
Width: 385
Flags: W
Fore
320 75 m 2,0,1
 320 42 320 42 323 27 c 128,-1,2
 326 12 326 12 331 1 c 1,3,-1
 298 -12 l 1,4,5
 295 -6 295 -6 289.5 7.5 c 128,-1,6
 284 21 284 21 284 50 c 1,7,8
 269 19 269 19 239 5 c 128,-1,9
 209 -9 209 -9 179 -9 c 0,10,11
 150 -9 150 -9 129.5 0.5 c 128,-1,12
 109 10 109 10 95 24 c 1,13,-1
 94 -165 l 1,14,-1
 58 -165 l 1,15,-1
 58 350 l 1,16,-1
 95 350 l 1,17,-1
 95 118 l 2,18,19
 95 74 95 74 121.5 49 c 128,-1,20
 148 24 148 24 186 24 c 0,21,22
 208 24 208 24 226 34 c 128,-1,23
 244 44 244 44 256.5 60.5 c 128,-1,24
 269 77 269 77 276 98 c 128,-1,25
 283 119 283 119 283 141 c 2,26,-1
 283 350 l 1,27,-1
 320 350 l 1,28,-1
 320 75 l 2,0,1
EndSplineSet
EndChar
StartChar: paragraph
Encoding: 182 182 120
Width: 382
Flags: W
Fore
164 226 m 2,0,1
 142 226 142 226 117.5 231.5 c 128,-1,2
 93 237 93 237 72 251 c 128,-1,3
 51 265 51 265 37 288.5 c 128,-1,4
 23 312 23 312 23 348 c 256,5,6
 23 384 23 384 35 408 c 128,-1,7
 47 432 47 432 66.5 447 c 128,-1,8
 86 462 86 462 111.5 468.5 c 128,-1,9
 137 475 137 475 164 475 c 2,10,-1
 333 475 l 1,11,-1
 333 450 l 1,12,-1
 297 450 l 1,13,-1
 297 -122 l 1,14,-1
 267 -123 l 1,15,-1
 267 450 l 1,16,-1
 215 450 l 1,17,-1
 215 -122 l 1,18,-1
 186 -122 l 1,19,-1
 186 226 l 1,20,-1
 164 226 l 2,0,1
EndSplineSet
EndChar
StartChar: periodcentered
Encoding: 183 183 121
Width: 230
Flags: W
Fore
52 233 m 256,0,1
 52 261 52 261 71.5 280.5 c 128,-1,2
 91 300 91 300 119 300 c 256,3,4
 147 300 147 300 166.5 280.5 c 128,-1,5
 186 261 186 261 186 233 c 256,6,7
 186 205 186 205 166.5 185.5 c 128,-1,8
 147 166 147 166 119 166 c 256,9,10
 91 166 91 166 71.5 185.5 c 128,-1,11
 52 205 52 205 52 233 c 256,0,1
EndSplineSet
EndChar
StartChar: cedilla
Encoding: 184 184 122
Width: 216
Flags: W
Fore
160 -83 m 0,0,1
 160 -115 160 -115 136 -128.5 c 128,-1,2
 112 -142 112 -142 81 -142 c 0,3,4
 71 -142 71 -142 56 -139 c 128,-1,5
 41 -136 41 -136 32 -130 c 1,6,-1
 45 -101 l 1,7,8
 56 -107 56 -107 66.5 -109 c 128,-1,9
 77 -111 77 -111 86 -111 c 0,10,11
 100 -111 100 -111 112 -106.5 c 128,-1,12
 124 -102 124 -102 124 -89 c 0,13,14
 124 -72 124 -72 105 -66 c 128,-1,15
 86 -60 86 -60 60 -58 c 1,16,-1
 97 4 l 1,17,-1
 135 4 l 1,18,-1
 107 -35 l 1,19,20
 127 -39 127 -39 143.5 -51 c 128,-1,21
 160 -63 160 -63 160 -83 c 0,0,1
EndSplineSet
EndChar
StartChar: onesuperior
Encoding: 185 185 123
Width: 216
Flags: W
Fore
122 473 m 1,0,1
 127 478 127 478 132.5 476 c 128,-1,2
 138 474 138 474 143 472 c 1,3,4
 146 470 146 470 149.5 467 c 128,-1,5
 153 464 153 464 153 460 c 2,6,-1
 153 459 l 2,7,8
 153 453 153 453 140 444 c 1,9,-1
 140 190 l 1,10,-1
 107 190 l 1,11,-1
 107 419 l 1,12,13
 103 416 103 416 96.5 411 c 128,-1,14
 90 406 90 406 83 401 c 0,15,16
 67 389 l 1,17,-1
 45 412 l 1,18,-1
 121 473 l 1,19,-1
 122 473 l 1,0,1
EndSplineSet
EndChar
StartChar: ordmasculine
Encoding: 186 186 124
Width: 252
Flags: W
Fore
247 308 m 0,0,1
 247 276 247 276 235.5 253 c 128,-1,2
 224 230 224 230 206 215.5 c 128,-1,3
 188 201 188 201 166.5 194 c 128,-1,4
 145 187 145 187 125 187 c 0,5,6
 99 187 99 187 77 196 c 128,-1,7
 55 205 55 205 39 220.5 c 128,-1,8
 23 236 23 236 14 257.5 c 128,-1,9
 5 279 5 279 5 304 c 0,10,11
 5 332 5 332 15.5 355 c 128,-1,12
 26 378 26 378 42.5 393.5 c 128,-1,13
 59 409 59 409 80.5 417.5 c 128,-1,14
 102 426 102 426 125 426 c 0,15,16
 153 426 153 426 176 416.5 c 128,-1,17
 199 407 199 407 214.5 391 c 128,-1,18
 230 375 230 375 238.5 353.5 c 128,-1,19
 247 332 247 332 247 308 c 0,0,1
214 306 m 0,20,21
 214 321 214 321 209 337 c 128,-1,22
 204 353 204 353 193 366 c 128,-1,23
 182 379 182 379 165.5 387.5 c 128,-1,24
 149 396 149 396 126 396 c 0,25,26
 104 396 104 396 88 388 c 128,-1,27
 72 380 72 380 61 367.5 c 128,-1,28
 50 355 50 355 44.5 338.5 c 128,-1,29
 39 322 39 322 39 305 c 0,30,31
 39 283 39 283 47 266.5 c 128,-1,32
 55 250 55 250 67.5 239 c 128,-1,33
 80 228 80 228 95.5 222.5 c 128,-1,34
 111 217 111 217 126 217 c 0,35,36
 159 217 159 217 186.5 239 c 128,-1,37
 214 261 214 261 214 306 c 0,20,21
EndSplineSet
EndChar
StartChar: guillemotright
Encoding: 187 187 125
Width: 302
Flags: W
Fore
263 178 m 2,0,1
 268 169 268 169 263 160 c 2,2,-1
 181 29 l 1,3,-1
 141 29 l 1,4,-1
 231 169 l 1,5,-1
 141 309 l 1,6,-1
 181 309 l 1,7,-1
 263 178 l 2,0,1
156 178 m 2,8,9
 161 169 161 169 156 160 c 2,10,-1
 74 29 l 1,11,-1
 34 29 l 1,12,-1
 124 169 l 1,13,-1
 34 309 l 1,14,-1
 74 309 l 1,15,-1
 156 178 l 2,8,9
EndSplineSet
EndChar
StartChar: onequarter
Encoding: 188 188 126
Width: 554
Flags: W
Fore
140 -9 m 1,0,-1
 107 -9 l 1,1,-1
 397 476 l 1,2,-1
 431 476 l 1,3,-1
 140 -9 l 1,0,-1
455 282 m 2,4,5
 459 288 459 288 464 287.5 c 128,-1,6
 469 287 469 287 473.5 283 c 128,-1,7
 478 279 478 279 480 273 c 128,-1,8
 482 267 482 267 481 263 c 1,9,-1
 479 261 l 2,10,11
 478 260 478 260 478 257 c 2,12,-1
 478 96 l 1,13,-1
 515 96 l 1,14,-1
 515 61 l 1,15,-1
 478 61 l 1,16,-1
 478 0 l 1,17,-1
 444 0 l 1,18,-1
 444 61 l 1,19,-1
 311 61 l 1,20,21
 302 63 302 63 298 71.5 c 128,-1,22
 294 80 294 80 298 89 c 1,23,-1
 455 282 l 2,4,5
444 214 m 1,24,25
 439 207 439 207 424.5 189.5 c 128,-1,26
 410 172 410 172 393.5 153 c 128,-1,27
 377 134 377 134 363.5 117.5 c 128,-1,28
 350 101 350 101 346 96 c 1,29,-1
 444 96 l 1,30,-1
 444 214 l 1,24,25
115 473 m 2,31,32
 121 478 121 478 126.5 476 c 128,-1,33
 132 474 132 474 137 472 c 1,34,35
 140 470 140 470 143.5 467 c 128,-1,36
 147 464 147 464 147 460 c 2,37,-1
 147 459 l 2,38,39
 147 455 147 455 134 446 c 1,40,-1
 134 445 l 1,41,-1
 134 190 l 1,42,-1
 101 190 l 1,43,-1
 101 419 l 1,44,45
 97 416 97 416 90.5 411 c 128,-1,46
 84 406 84 406 77 401 c 0,47,48
 61 389 l 1,49,-1
 39 412 l 1,50,-1
 115 473 l 2,31,32
EndSplineSet
Ligature: 0 0 'frac' one fraction four
Ligature: 0 0 'frac' one slash four
EndChar
StartChar: onehalf
Encoding: 189 189 127
Width: 566
Flags: W
Fore
128 -9 m 1,0,-1
 94 -9 l 1,1,-1
 384 476 l 1,2,-1
 418 476 l 1,3,-1
 128 -9 l 1,0,-1
359 252 m 0,4,5
 374 274 374 274 400.5 282 c 128,-1,6
 427 290 427 290 455 281 c 0,7,8
 481 273 481 273 497 250.5 c 128,-1,9
 513 228 513 228 513 196 c 0,10,11
 513 176 513 176 504 157.5 c 128,-1,12
 495 139 495 139 481.5 122.5 c 128,-1,13
 468 106 468 106 451.5 92 c 128,-1,14
 435 78 435 78 420 66 c 1,15,16
 406 58 406 58 398.5 50.5 c 128,-1,17
 391 43 391 43 384 35 c 1,18,-1
 489 35 l 1,19,-1
 498 53 l 1,20,21
 499 53 499 53 510 49 c 128,-1,22
 521 45 521 45 530 42 c 1,23,-1
 510 0 l 1,24,-1
 348 0 l 2,25,26
 328 -1 328 -1 331 18 c 0,27,28
 333 27 333 27 334.5 31 c 128,-1,29
 336 35 336 35 343 35 c 2,30,-1
 344 35 l 1,31,32
 354 51 354 51 372 68 c 128,-1,33
 390 85 390 85 400 93 c 0,34,35
 431 119 431 119 454.5 144 c 128,-1,36
 478 169 478 169 478 197 c 0,37,38
 478 216 478 216 469 230.5 c 128,-1,39
 460 245 460 245 443 250 c 0,40,41
 427 255 427 255 411.5 250.5 c 128,-1,42
 396 246 396 246 385 232 c 0,43,44
 377 219 377 219 376 208 c 128,-1,45
 375 197 375 197 378 183 c 1,46,-1
 346 174 l 1,47,48
 337 221 337 221 359 252 c 0,4,5
116 473 m 1,49,50
 121 478 121 478 126.5 476 c 128,-1,51
 132 474 132 474 137 472 c 1,52,53
 140 470 140 470 143.5 467 c 128,-1,54
 147 464 147 464 147 460 c 2,55,-1
 147 459 l 2,56,57
 147 455 147 455 134 446 c 1,58,-1
 134 445 l 1,59,-1
 134 190 l 1,60,-1
 101 190 l 1,61,-1
 101 419 l 1,62,63
 97 416 97 416 90.5 411 c 128,-1,64
 84 406 84 406 77 401 c 0,65,66
 61 389 l 1,67,-1
 39 412 l 1,68,-1
 115 473 l 1,69,-1
 116 473 l 1,49,50
EndSplineSet
Ligature: 0 0 'frac' one fraction two
Ligature: 0 0 'frac' one slash two
EndChar
StartChar: threequarters
Encoding: 190 190 128
Width: 585
Flags: W
Fore
189 -9 m 1,0,-1
 154 -9 l 1,1,-1
 445 476 l 1,2,-1
 479 476 l 1,3,-1
 189 -9 l 1,0,-1
63 474 m 1,4,-1
 47 420 l 1,5,6
 47 417 47 417 50.5 415 c 128,-1,7
 54 413 54 413 75 403 c 1,8,9
 81 419 l 0,10,11
 83 425 83 425 85 431.5 c 128,-1,12
 87 438 87 438 88 440 c 1,13,-1
 167 440 l 1,14,15
 162 435 162 435 150 421 c 128,-1,16
 126 393 l 0,17,18
 111 376 111 376 95 357 c 1,19,20
 88 351 88 351 91.5 345.5 c 128,-1,21
 95 340 95 340 98 337 c 0,22,23
 102 333 102 333 107.5 330.5 c 128,-1,24
 113 328 113 328 119 334 c 0,25,26
 135 353 135 353 152 354 c 128,-1,27
 169 355 169 355 182.5 343.5 c 128,-1,28
 196 332 196 332 203 312.5 c 128,-1,29
 210 293 210 293 205 272 c 0,30,31
 199 244 199 244 180 230 c 128,-1,32
 161 216 161 216 139.5 216.5 c 128,-1,33
 118 217 118 217 97.5 233.5 c 128,-1,34
 77 250 77 250 68 284 c 1,35,-1
 36 274 l 1,36,37
 43 242 43 242 64 220 c 128,-1,38
 85 198 85 198 111 189.5 c 128,-1,39
 137 181 137 181 164 186.5 c 128,-1,40
 191 192 191 192 211 215 c 0,41,42
 229 234 229 234 235.5 263.5 c 128,-1,43
 242 293 242 293 236 319.5 c 128,-1,44
 230 346 230 346 210.5 364.5 c 128,-1,45
 191 383 191 383 158 382 c 1,46,47
 162 386 162 386 170.5 395 c 128,-1,48
 179 404 179 404 188 414 c 128,-1,49
 197 424 197 424 204 431.5 c 128,-1,50
 211 439 211 439 212 440 c 1,51,52
 221 437 221 437 224 447 c 128,-1,53
 227 457 227 457 227 463 c 0,54,55
 227 468 227 468 223 471.5 c 128,-1,56
 219 475 219 475 214 474 c 1,57,-1
 63 474 l 1,4,-1
331 89 m 1,58,59
 327 80 327 80 331 71.5 c 128,-1,60
 335 63 335 63 344 61 c 1,61,-1
 477 61 l 1,62,-1
 477 0 l 1,63,-1
 511 0 l 1,64,-1
 511 61 l 1,65,-1
 548 61 l 1,66,-1
 548 96 l 1,67,-1
 511 96 l 1,68,-1
 511 257 l 2,69,70
 511 260 511 260 512 261 c 2,71,-1
 514 263 l 1,72,73
 515 267 515 267 513 273 c 128,-1,74
 511 279 511 279 506.5 283 c 128,-1,75
 502 287 502 287 497 287.5 c 128,-1,76
 492 288 492 288 488 282 c 2,77,-1
 331 89 l 1,58,59
477 214 m 1,78,-1
 477 96 l 1,79,-1
 379 96 l 1,80,81
 383 101 383 101 396.5 117.5 c 128,-1,82
 410 134 410 134 426.5 153 c 128,-1,83
 443 172 443 172 457.5 189.5 c 128,-1,84
 472 207 472 207 477 214 c 1,78,-1
EndSplineSet
Ligature: 0 0 'frac' three fraction four
Ligature: 0 0 'frac' three slash four
EndChar
StartChar: questiondown
Encoding: 191 191 129
Width: 345
Flags: W
Fore
218 311 m 0,0,1
 218 294 218 294 207 283.5 c 128,-1,2
 196 273 196 273 182 273 c 0,3,4
 165 273 165 273 154 283.5 c 128,-1,5
 143 294 143 294 143 311 c 0,6,7
 143 326 143 326 154 336.5 c 128,-1,8
 165 347 165 347 182 347 c 0,9,10
 196 347 196 347 207 336.5 c 128,-1,11
 218 326 218 326 218 311 c 0,0,1
104 79 m 0,12,13
 126 105 126 105 143 129.5 c 128,-1,14
 160 154 160 154 160 186 c 2,15,-1
 160 243 l 1,16,-1
 200 243 l 1,17,-1
 200 186 l 2,18,19
 200 143 200 143 178.5 111.5 c 128,-1,20
 157 80 157 80 133 53 c 0,21,22
 103 19 103 19 96.5 -13 c 128,-1,23
 90 -45 90 -45 109 -77 c 0,24,25
 119 -94 119 -94 142.5 -103 c 128,-1,26
 166 -112 166 -112 194 -109 c 0,27,28
 226 -105 226 -105 245.5 -84.5 c 128,-1,29
 265 -64 265 -64 273 -41 c 1,30,-1
 309 -61 l 1,31,32
 297 -95 297 -95 270 -117.5 c 128,-1,33
 243 -140 243 -140 204 -145 c 0,34,35
 165 -151 165 -151 129.5 -140.5 c 128,-1,36
 94 -130 94 -130 76 -102 c 0,37,38
 58 -75 58 -75 54.5 -50 c 128,-1,39
 51 -25 51 -25 57 -2 c 128,-1,40
 63 21 63 21 76 41.5 c 128,-1,41
 89 62 89 62 104 79 c 0,12,13
EndSplineSet
EndChar
StartChar: Aring
Encoding: 197 197 134
Width: 413
Flags: W
Fore
137 577 m 256,0,1
 137 605 137 605 156 624.5 c 128,-1,2
 175 644 175 644 203 644 c 256,3,4
 231 644 231 644 250.5 624.5 c 128,-1,5
 270 605 270 605 270 577 c 256,6,7
 270 549 270 549 250.5 530 c 128,-1,8
 231 511 231 511 203 511 c 256,9,10
 175 511 175 511 156 530 c 128,-1,11
 137 549 137 549 137 577 c 256,0,1
166 577 m 256,12,13
 166 561 166 561 177 550 c 128,-1,14
 188 539 188 539 204 539 c 256,15,16
 220 539 220 539 231 550 c 128,-1,17
 242 561 242 561 242 577 c 256,18,19
 242 593 242 593 231 604 c 128,-1,20
 220 615 220 615 204 615 c 256,21,22
 188 615 188 615 177 604 c 128,-1,23
 166 593 166 593 166 577 c 256,12,13
403 0 m 1,24,-1
 364 -8 l 1,25,-1
 314 131 l 1,26,-1
 96 131 l 1,27,-1
 44 -8 l 1,28,-1
 6 0 l 1,29,30
 55 129 55 129 94 231 c 2,31,-1
 182 463 l 2,32,33
 188 477 188 477 196.5 482.5 c 128,-1,34
 205 488 205 488 208 489 c 0,35,36
 216 490 216 490 224.5 482.5 c 128,-1,37
 233 475 233 475 235 471 c 0,38,39
 237 468 237 468 234.5 464 c 128,-1,40
 232 460 232 460 230 458 c 1,41,-1
 403 0 l 1,24,-1
301 164 m 1,42,-1
 204 416 l 1,43,-1
 109 164 l 1,44,-1
 301 164 l 1,42,-1
EndSplineSet
EndChar
StartChar: AE
Encoding: 198 198 135
Width: 563
Flags: W
Fore
344 437 m 1,0,-1
 344 266 l 1,1,-1
 518 266 l 1,2,-1
 519 227 l 1,3,-1
 344 227 l 1,4,-1
 344 40 l 1,5,-1
 540 40 l 1,6,-1
 540 1 l 1,7,-1
 340 1 l 2,8,9
 322 1 322 1 312.5 13 c 128,-1,10
 303 25 303 25 303 38 c 2,11,-1
 304 127 l 1,12,-1
 117 127 l 1,13,-1
 36 -7 l 1,14,-1
 2 11 l 1,15,-1
 252 444 l 2,16,17
 258 457 258 457 268.5 466.5 c 128,-1,18
 279 476 279 476 293 476 c 2,19,-1
 541 476 l 1,20,-1
 540 437 l 1,21,-1
 344 437 l 1,0,-1
304 163 m 1,22,-1
 304 434 l 1,23,-1
 304 436 l 1,24,-1
 286 435 l 1,25,-1
 136 163 l 1,26,-1
 304 163 l 1,22,-1
EndSplineSet
EndChar
StartChar: Eth
Encoding: 208 208 145
Width: 476
Flags: W
Fore
66 222 m 1,0,-1
 2 222 l 1,1,-1
 2 260 l 1,2,-1
 66 260 l 1,3,-1
 66 435 l 2,4,5
 65 443 65 443 57 450 c 128,-1,6
 49 457 49 457 51 466 c 1,7,8
 53 471 53 471 59 477 c 128,-1,9
 65 483 65 483 75 483 c 0,10,11
 81 483 81 483 90 474 c 1,12,-1
 182 474 l 2,13,14
 234 474 234 474 279 459 c 128,-1,15
 324 444 324 444 357 414.5 c 128,-1,16
 390 385 390 385 408.5 340.5 c 128,-1,17
 427 296 427 296 427 238 c 0,18,19
 427 179 427 179 408.5 134.5 c 128,-1,20
 390 90 390 90 357 60 c 128,-1,21
 324 30 324 30 279 15 c 128,-1,22
 234 0 234 0 182 0 c 2,23,-1
 66 0 l 1,24,-1
 66 222 l 1,0,-1
191 39 m 2,25,26
 236 39 236 39 272 53 c 128,-1,27
 308 67 308 67 333 93.5 c 128,-1,28
 358 120 358 120 371.5 156.5 c 128,-1,29
 385 193 385 193 385 238 c 0,30,31
 385 290 385 290 368 327.5 c 128,-1,32
 351 365 351 365 321 389 c 128,-1,33
 291 413 291 413 251 424 c 128,-1,34
 211 435 211 435 165 435 c 2,35,-1
 105 435 l 1,36,-1
 105 260 l 1,37,-1
 213 260 l 1,38,-1
 213 222 l 1,39,-1
 105 222 l 1,40,-1
 105 39 l 1,41,-1
 191 39 l 2,25,26
EndSplineSet
EndChar
StartChar: multiply
Encoding: 215 215 152
Width: 400
Flags: W
Fore
351 41 m 1,0,-1
 325 16 l 1,1,-1
 201 140 l 1,2,-1
 82 20 l 1,3,-1
 57 45 l 1,4,-1
 176 164 l 1,5,-1
 56 284 l 1,6,-1
 82 310 l 1,7,-1
 202 190 l 1,8,-1
 319 310 l 1,9,-1
 344 284 l 1,10,-1
 227 165 l 1,11,-1
 351 41 l 1,0,-1
EndSplineSet
EndChar
StartChar: Oslash
Encoding: 216 216 153
Width: 466
Flags: W
Fore
361 437 m 1,0,1
 391 405 391 405 407 356 c 128,-1,2
 423 307 423 307 423 244 c 0,3,4
 423 188 423 188 410.5 142.5 c 128,-1,5
 398 97 398 97 373.5 64.5 c 128,-1,6
 349 32 349 32 313.5 14 c 128,-1,7
 278 -4 278 -4 233 -4 c 0,8,9
 174 -4 174 -4 133 25 c 1,10,-1
 92 -48 l 2,11,12
 88 -54 88 -54 84 -52 c 128,-1,13
 80 -50 80 -50 73 -47 c 1,14,15
 67 -43 67 -43 62 -40 c 128,-1,16
 57 -37 57 -37 61 -31 c 2,17,-1
 105 48 l 1,18,19
 43 116 43 116 43 244 c 0,20,21
 43 299 43 299 55.5 344.5 c 128,-1,22
 68 390 68 390 92 422 c 128,-1,23
 116 454 116 454 151.5 472 c 128,-1,24
 187 490 187 490 233 490 c 0,25,26
 291 490 291 490 334 461 c 1,27,-1
 368 524 l 2,28,29
 372 530 372 530 376.5 527.5 c 128,-1,30
 381 525 381 525 387 522 c 0,31,32
 394 518 394 518 398.5 515.5 c 128,-1,33
 403 513 403 513 399 507 c 2,34,-1
 361 437 l 1,0,1
82 244 m 0,35,36
 82 199 82 199 92.5 157.5 c 128,-1,37
 103 116 103 116 126 86 c 1,38,-1
 314 426 l 1,39,40
 281 453 281 453 233 453 c 0,41,42
 192 453 192 453 163.5 435 c 128,-1,43
 135 417 135 417 117 387.5 c 128,-1,44
 99 358 99 358 90.5 320.5 c 128,-1,45
 82 283 82 283 82 244 c 0,35,36
233 33 m 0,46,47
 273 33 273 33 301.5 51 c 128,-1,48
 330 69 330 69 348 99 c 128,-1,49
 366 129 366 129 374.5 167 c 128,-1,50
 383 205 383 205 383 244 c 0,51,52
 383 287 383 287 373 328 c 128,-1,53
 363 369 363 369 340 400 c 1,54,-1
 152 60 l 1,55,56
 169 47 169 47 188.5 40 c 128,-1,57
 208 33 208 33 233 33 c 0,46,47
EndSplineSet
EndChar
StartChar: Thorn
Encoding: 222 222 159
Width: 394
Flags: W
Fore
347 262 m 0,0,1
 347 184 347 184 296.5 150 c 128,-1,2
 246 116 246 116 159 116 c 2,3,-1
 86 116 l 1,4,-1
 86 0 l 1,5,-1
 54 0 l 1,6,-1
 54 486 l 1,7,-1
 86 486 l 1,8,-1
 86 397 l 1,9,-1
 177 397 l 2,10,11
 213 397 213 397 244 389 c 128,-1,12
 275 381 275 381 298 364.5 c 128,-1,13
 321 348 321 348 334 322.5 c 128,-1,14
 347 297 347 297 347 262 c 0,0,1
313 257 m 0,15,16
 313 286 313 286 302 306.5 c 128,-1,17
 291 327 291 327 272.5 340.5 c 128,-1,18
 254 354 254 354 229.5 360 c 128,-1,19
 205 366 205 366 178 366 c 2,20,-1
 86 366 l 1,21,-1
 86 150 l 1,22,-1
 161 150 l 2,23,24
 235 150 235 150 274 175 c 128,-1,25
 313 200 313 200 313 257 c 0,15,16
EndSplineSet
EndChar
StartChar: uni00DF
Encoding: 223 223 160
Width: 414
Flags: W
Fore
342 266 m 0,0,1
 356 246 356 246 362.5 221.5 c 128,-1,2
 369 197 369 197 369 168 c 0,3,4
 369 133 369 133 358 101 c 128,-1,5
 347 69 347 69 326.5 45 c 128,-1,6
 306 21 306 21 276 6.5 c 128,-1,7
 246 -8 246 -8 209 -8 c 2,8,-1
 128 -9 l 1,9,-1
 128 24 l 1,10,-1
 200 24 l 2,11,12
 231 24 231 24 257 35.5 c 128,-1,13
 283 47 283 47 301 67 c 128,-1,14
 319 87 319 87 329 114 c 128,-1,15
 339 141 339 141 338 171 c 256,16,17
 337 201 337 201 325 227.5 c 128,-1,18
 313 254 313 254 292.5 273.5 c 128,-1,19
 272 293 272 293 245.5 304.5 c 128,-1,20
 219 316 219 316 189 316 c 2,21,-1
 120 316 l 1,22,-1
 120 349 l 1,23,-1
 191 349 l 1,24,-1
 192 349 l 1,25,-1
 193 349 l 2,26,27
 207 349 207 349 222 350.5 c 128,-1,28
 237 352 237 352 250 358 c 128,-1,29
 263 364 263 364 271.5 376.5 c 128,-1,30
 280 389 280 389 281 410 c 0,31,32
 282 439 282 439 272.5 456.5 c 128,-1,33
 263 474 263 474 248 483 c 0,34,35
 224 499 224 499 192 499.5 c 128,-1,36
 160 500 160 500 135 485 c 0,37,38
 129 482 129 482 122 475.5 c 128,-1,39
 115 469 115 469 108.5 457.5 c 128,-1,40
 102 446 102 446 97.5 428 c 128,-1,41
 93 410 93 410 93 383 c 2,42,-1
 93 -159 l 1,43,-1
 61 -159 l 1,44,-1
 61 389 l 2,45,46
 61 418 61 418 69.5 443 c 128,-1,47
 78 468 78 468 94.5 486.5 c 128,-1,48
 111 505 111 505 134.5 515 c 128,-1,49
 158 525 158 525 189 524 c 0,50,51
 212 524 212 524 233 519 c 128,-1,52
 254 514 254 514 273 499 c 0,53,54
 296 481 296 481 305 459.5 c 128,-1,55
 314 438 314 438 314 415 c 0,56,57
 314 399 314 399 309 384 c 128,-1,58
 304 369 304 369 296.5 357.5 c 128,-1,59
 289 346 289 346 279.5 338.5 c 128,-1,60
 270 331 270 331 262 330 c 1,61,62
 315 306 315 306 342 266 c 0,0,1
EndSplineSet
EndChar
StartChar: ae
Encoding: 230 230 167
Width: 630
Flags: W
Fore
449 362 m 0,0,1
 500 362 500 362 530 340 c 128,-1,2
 560 318 560 318 575.5 288.5 c 128,-1,3
 591 259 591 259 595.5 230 c 128,-1,4
 600 201 600 201 600 186 c 0,5,6
 600 170 600 170 593 165 c 1,7,8
 589 161 589 161 571 161 c 2,9,-1
 335 161 l 1,10,11
 335 114 335 114 355 84.5 c 128,-1,12
 375 55 375 55 408 41 c 0,13,14
 431 32 431 32 451.5 31.5 c 128,-1,15
 472 31 472 31 488.5 35.5 c 128,-1,16
 505 40 505 40 516.5 47 c 128,-1,17
 528 54 528 54 534 58 c 1,18,-1
 558 26 l 1,19,20
 546 18 546 18 525.5 10 c 128,-1,21
 505 2 505 2 481 -2.5 c 128,-1,22
 457 -7 457 -7 431.5 -5 c 128,-1,23
 406 -3 406 -3 384 8 c 0,24,25
 351 24 351 24 330 52 c 1,26,-1
 330 49 l 1,27,-1
 333 -2 l 1,28,-1
 292 -2 l 1,29,-1
 291 52 l 1,30,31
 274 23 274 23 245 5 c 128,-1,32
 216 -13 216 -13 175 -13 c 0,33,34
 138 -13 138 -13 110.5 3 c 128,-1,35
 83 19 83 19 65 45 c 128,-1,36
 47 71 47 71 38 104 c 128,-1,37
 29 137 29 137 29 171 c 256,38,39
 29 205 29 205 38 237.5 c 128,-1,40
 47 270 47 270 65 296 c 128,-1,41
 83 322 83 322 110.5 338 c 128,-1,42
 138 354 138 354 175 354 c 0,43,44
 216 354 216 354 244.5 337 c 128,-1,45
 273 320 273 320 291 291 c 1,46,-1
 291 355 l 1,47,-1
 330 355 l 1,48,-1
 330 303 l 1,49,50
 349 329 349 329 378 345.5 c 128,-1,51
 407 362 407 362 449 362 c 0,0,1
175 24 m 0,52,53
 203 24 203 24 223.5 35.5 c 128,-1,54
 244 47 244 47 258.5 65 c 128,-1,55
 273 83 273 83 281 105.5 c 128,-1,56
 289 128 289 128 291 151 c 2,57,-1
 291 191 l 2,58,59
 289 213 289 213 280.5 235.5 c 128,-1,60
 272 258 272 258 258 276 c 128,-1,61
 244 294 244 294 223 305.5 c 128,-1,62
 202 317 202 317 175 317 c 0,63,64
 146 317 146 317 124.5 303 c 128,-1,65
 103 289 103 289 89.5 268 c 128,-1,66
 76 247 76 247 69.5 221 c 128,-1,67
 63 195 63 195 63 171 c 0,68,69
 63 146 63 146 69.5 120 c 128,-1,70
 76 94 76 94 89.5 72.5 c 128,-1,71
 103 51 103 51 124.5 37.5 c 128,-1,72
 146 24 146 24 175 24 c 0,52,53
561 199 m 1,73,74
 562 218 562 218 556 241 c 128,-1,75
 550 264 550 264 536 283 c 128,-1,76
 522 302 522 302 500 315 c 128,-1,77
 478 328 478 328 447 328 c 0,78,79
 415 328 415 328 393.5 314.5 c 128,-1,80
 372 301 372 301 358.5 281 c 128,-1,81
 345 261 345 261 339 238.5 c 128,-1,82
 333 216 333 216 333 199 c 1,83,-1
 561 199 l 1,73,74
EndSplineSet
EndChar
StartChar: eth
Encoding: 240 240 177
Width: 416
Flags: W
Fore
382 182 m 0,0,1
 382 132 382 132 366 95.5 c 128,-1,2
 350 59 350 59 324.5 36 c 128,-1,3
 299 13 299 13 267 2 c 128,-1,4
 235 -9 235 -9 203 -9 c 0,5,6
 165 -9 165 -9 133 4.5 c 128,-1,7
 101 18 101 18 78.5 42 c 128,-1,8
 56 66 56 66 43.5 98 c 128,-1,9
 31 130 31 130 31 168 c 0,10,11
 31 211 31 211 46 245.5 c 128,-1,12
 61 280 61 280 86 304.5 c 128,-1,13
 111 329 111 329 142 342 c 128,-1,14
 173 355 173 355 206 355 c 0,15,16
 235 355 235 355 262.5 347 c 128,-1,17
 290 339 290 339 319 314 c 1,18,19
 299 346 299 346 273 374.5 c 128,-1,20
 247 403 247 403 212 430 c 1,21,22
 183 417 183 417 155 403.5 c 128,-1,23
 127 390 127 390 98 377 c 1,24,-1
 86 406 l 1,25,-1
 181 451 l 1,26,27
 164 462 164 462 141.5 472.5 c 128,-1,28
 119 483 119 483 96 491 c 1,29,-1
 112 524 l 1,30,31
 140 512 140 512 166.5 498.5 c 128,-1,32
 193 485 193 485 217 468 c 1,33,34
 240 479 240 479 264.5 491 c 128,-1,35
 289 503 289 503 312 514 c 1,36,-1
 326 483 l 1,37,-1
 246 447 l 1,38,39
 280 421 280 421 305.5 389.5 c 128,-1,40
 331 358 331 358 351 322 c 0,41,42
 365 290 365 290 373.5 256 c 128,-1,43
 382 222 382 222 382 182 c 0,0,1
342 177 m 256,44,45
 342 215 342 215 333 240 c 128,-1,46
 324 265 324 265 308 282 c 0,47,48
 291 296 291 296 266 309 c 128,-1,49
 241 322 241 322 206 322 c 0,50,51
 170 322 170 322 144 308 c 128,-1,52
 118 294 118 294 101 272 c 128,-1,53
 84 250 84 250 76 223 c 128,-1,54
 68 196 68 196 68 169 c 0,55,56
 68 134 68 134 79.5 107 c 128,-1,57
 91 80 91 80 110 61.5 c 128,-1,58
 129 43 129 43 153 33.5 c 128,-1,59
 177 24 177 24 202 24 c 0,60,61
 231 24 231 24 256.5 34 c 128,-1,62
 282 44 282 44 301 63 c 128,-1,63
 320 82 320 82 331 110.5 c 128,-1,64
 342 139 342 139 342 177 c 256,44,45
EndSplineSet
EndChar
StartChar: divide
Encoding: 247 247 184
Width: 462
Flags: W
Fore
392 144 m 1,0,-1
 64 144 l 1,1,-1
 64 183 l 1,2,-1
 392 183 l 1,3,-1
 392 144 l 1,0,-1
262 269 m 256,4,5
 262 256 262 256 253 246.5 c 128,-1,6
 244 237 244 237 231 237 c 256,7,8
 218 237 218 237 208.5 246.5 c 128,-1,9
 199 256 199 256 199 269 c 256,10,11
 199 282 199 282 208.5 291 c 128,-1,12
 218 300 218 300 231 300 c 256,13,14
 244 300 244 300 253 291 c 128,-1,15
 262 282 262 282 262 269 c 256,4,5
262 56 m 256,16,17
 262 43 262 43 253 34 c 128,-1,18
 244 25 244 25 231 25 c 256,19,20
 218 25 218 25 208.5 34 c 128,-1,21
 199 43 199 43 199 56 c 256,22,23
 199 69 199 69 208.5 78.5 c 128,-1,24
 218 88 218 88 231 88 c 256,25,26
 244 88 244 88 253 78.5 c 128,-1,27
 262 69 262 69 262 56 c 256,16,17
EndSplineSet
EndChar
StartChar: oslash
Encoding: 248 248 185
Width: 351
Flags: W
Fore
270 309 m 1,0,1
 293 284 293 284 304 248.5 c 128,-1,2
 315 213 315 213 315 176 c 0,3,4
 315 143 315 143 306.5 112 c 128,-1,5
 298 81 298 81 281 56 c 128,-1,6
 264 31 264 31 238 16 c 128,-1,7
 212 1 212 1 177 1 c 0,8,9
 139 1 139 1 110 19 c 1,10,-1
 81 -33 l 2,11,12
 79 -38 79 -38 74.5 -36.5 c 128,-1,13
 70 -35 70 -35 65 -32 c 256,14,15
 60 -29 60 -29 57 -26.5 c 128,-1,16
 54 -24 54 -24 57 -19 c 2,17,-1
 87 37 l 1,18,19
 62 63 62 63 50.5 99.5 c 128,-1,20
 39 136 39 136 39 176 c 0,21,22
 39 208 39 208 47 239.5 c 128,-1,23
 55 271 55 271 72 295.5 c 128,-1,24
 89 320 89 320 115 335 c 128,-1,25
 141 350 141 350 177 350 c 0,26,27
 198 350 198 350 216 344.5 c 128,-1,28
 234 339 234 339 248 329 c 1,29,-1
 276 378 l 2,30,31
 279 383 279 383 282.5 381 c 128,-1,32
 286 379 286 379 291 377 c 1,33,34
 296 374 296 374 299.5 371.5 c 128,-1,35
 303 369 303 369 301 364 c 2,36,-1
 270 309 l 1,0,1
77 176 m 0,37,38
 77 150 77 150 84 122 c 128,-1,39
 91 94 91 94 107 73 c 1,40,-1
 230 295 l 1,41,42
 208 314 208 314 177 314 c 0,43,44
 150 314 150 314 131 301 c 128,-1,45
 112 288 112 288 100 268 c 128,-1,46
 88 248 88 248 82.5 223.5 c 128,-1,47
 77 199 77 199 77 176 c 0,37,38
177 37 m 0,48,49
 204 37 204 37 223 50 c 128,-1,50
 242 63 242 63 254 83.5 c 128,-1,51
 266 104 266 104 271.5 128.5 c 128,-1,52
 277 153 277 153 277 176 c 0,53,54
 277 200 277 200 270.5 226 c 128,-1,55
 264 252 264 252 250 273 c 1,56,-1
 128 53 l 1,57,58
 149 37 149 37 177 37 c 0,48,49
EndSplineSet
EndChar
StartChar: thorn
Encoding: 254 254 191
Width: 453
Flags: W
Fore
55 481 m 1,0,-1
 89 481 l 1,1,-1
 89 277 l 1,2,3
 112 312 112 312 148.5 333.5 c 128,-1,4
 185 355 185 355 230 355 c 0,5,6
 266 355 266 355 298 341 c 128,-1,7
 330 327 330 327 353.5 302 c 128,-1,8
 377 277 377 277 390.5 244 c 128,-1,9
 404 211 404 211 404 173 c 256,10,11
 404 135 404 135 390.5 102 c 128,-1,12
 377 69 377 69 353.5 44 c 128,-1,13
 330 19 330 19 298 5 c 128,-1,14
 266 -9 266 -9 230 -9 c 0,15,16
 185 -9 185 -9 148.5 12 c 128,-1,17
 112 33 112 33 89 68 c 1,18,-1
 89 -142 l 1,19,-1
 55 -142 l 1,20,-1
 55 481 l 1,0,-1
90 173 m 256,21,22
 90 142 90 142 101 114.5 c 128,-1,23
 112 87 112 87 131 67 c 128,-1,24
 150 47 150 47 175.5 35 c 128,-1,25
 201 23 201 23 230 23 c 256,26,27
 259 23 259 23 284.5 35 c 128,-1,28
 310 47 310 47 329 67 c 128,-1,29
 348 87 348 87 359 114.5 c 128,-1,30
 370 142 370 142 370 173 c 256,31,32
 370 204 370 204 359 231.5 c 128,-1,33
 348 259 348 259 329 279 c 128,-1,34
 310 299 310 299 284.5 311 c 128,-1,35
 259 323 259 323 230 323 c 256,36,37
 201 323 201 323 175.5 311 c 128,-1,38
 150 299 150 299 131 279 c 128,-1,39
 112 259 112 259 101 231.5 c 128,-1,40
 90 204 90 204 90 173 c 256,21,22
EndSplineSet
EndChar
StartChar: Lslash
Encoding: 321 321 193
Width: 318
Flags: W
Fore
-5 165 m 1,0,-1
 -5 203 l 1,1,-1
 61 247 l 1,2,-1
 61 474 l 1,3,-1
 100 474 l 1,4,-1
 100 273 l 1,5,-1
 204 342 l 1,6,-1
 204 304 l 1,7,-1
 100 235 l 1,8,-1
 100 35 l 1,9,-1
 305 35 l 1,10,-1
 305 0 l 1,11,-1
 85 0 l 1,12,13
 81 -5 81 -5 76 -8.5 c 128,-1,14
 71 -12 71 -12 68 -12 c 0,15,16
 58 -12 58 -12 52 -4 c 128,-1,17
 46 4 46 4 44 9 c 0,18,19
 43 13 43 13 45.5 16.5 c 128,-1,20
 48 20 48 20 51.5 23.5 c 128,-1,21
 55 27 55 27 58 32.5 c 128,-1,22
 61 38 61 38 61 47 c 2,23,-1
 61 209 l 1,24,-1
 -5 165 l 1,0,-1
EndSplineSet
EndChar
StartChar: lslash
Encoding: 322 322 194
Width: 162
Flags: W
Fore
97 261 m 1,0,-1
 97 0 l 1,1,-1
 61 0 l 1,2,-1
 61 234 l 1,3,4
 49 224 49 224 35.5 212.5 c 128,-1,5
 22 201 22 201 10 191 c 1,6,-1
 10 229 l 1,7,-1
 61 270 l 1,8,-1
 61 496 l 1,9,-1
 79 515 l 1,10,-1
 97 515 l 1,11,-1
 97 301 l 1,12,13
 109 311 109 311 123 321.5 c 128,-1,14
 137 332 137 332 148 342 c 1,15,-1
 148 304 l 1,16,-1
 97 261 l 1,0,-1
EndSplineSet
EndChar
StartChar: OE
Encoding: 338 338 195
Width: 641
Flags: W
Fore
220 24 m 0,0,1
 260 24 260 24 288.5 42 c 128,-1,2
 317 60 317 60 335 89.5 c 128,-1,3
 353 119 353 119 361.5 157 c 128,-1,4
 370 195 370 195 370 234 c 256,5,6
 370 273 370 273 361.5 310.5 c 128,-1,7
 353 348 353 348 335 378 c 128,-1,8
 317 408 317 408 288.5 426 c 128,-1,9
 260 444 260 444 220 444 c 0,10,11
 179 444 179 444 150.5 426 c 128,-1,12
 122 408 122 408 104 378 c 128,-1,13
 86 348 86 348 77.5 310.5 c 128,-1,14
 69 273 69 273 69 234 c 256,15,16
 69 195 69 195 77.5 157 c 128,-1,17
 86 119 86 119 104 89.5 c 128,-1,18
 122 60 122 60 150.5 42 c 128,-1,19
 179 24 179 24 220 24 c 0,0,1
220 481 m 0,20,21
 271 481 271 481 309.5 458.5 c 128,-1,22
 348 436 348 436 372 395 c 1,23,-1
 372 435 l 2,24,25
 371 443 371 443 363 450 c 128,-1,26
 355 457 355 457 357 466 c 1,27,28
 359 471 359 471 365 477 c 128,-1,29
 371 483 371 483 381 483 c 0,30,31
 387 483 387 483 396 474 c 1,32,-1
 619 474 l 1,33,-1
 619 435 l 1,34,-1
 412 435 l 1,35,-1
 412 265 l 1,36,-1
 597 265 l 1,37,-1
 597 226 l 1,38,-1
 412 226 l 1,39,-1
 412 39 l 1,40,-1
 618 39 l 1,41,-1
 618 0 l 1,42,-1
 372 0 l 1,43,-1
 372 72 l 1,44,45
 348 31 348 31 309.5 9 c 128,-1,46
 271 -13 271 -13 220 -13 c 0,47,48
 174 -13 174 -13 138.5 5 c 128,-1,49
 103 23 103 23 79 55 c 128,-1,50
 55 87 55 87 42.5 132.5 c 128,-1,51
 30 178 30 178 30 234 c 0,52,53
 30 289 30 289 42.5 335 c 128,-1,54
 55 381 55 381 79 413 c 128,-1,55
 103 445 103 445 138.5 463 c 128,-1,56
 174 481 174 481 220 481 c 0,20,21
EndSplineSet
EndChar
StartChar: oe
Encoding: 339 339 196
Width: 600
Flags: W
Fore
423 348 m 0,0,1
 471 348 471 348 499.5 327 c 128,-1,2
 528 306 528 306 543 278 c 128,-1,3
 558 250 558 250 562.5 222 c 128,-1,4
 567 194 567 194 567 180 c 0,5,6
 567 164 567 164 561 160.5 c 128,-1,7
 555 157 555 157 539 156 c 2,8,-1
 315 156 l 1,9,10
 315 111 315 111 334 83 c 128,-1,11
 353 55 353 55 385 42 c 0,12,13
 407 33 407 33 426 33 c 128,-1,14
 445 33 445 33 461 37.5 c 128,-1,15
 477 42 477 42 488 48 c 128,-1,16
 499 54 499 54 504 58 c 1,17,-1
 526 29 l 1,18,19
 515 21 515 21 495.5 13.5 c 128,-1,20
 476 6 476 6 453.5 2 c 128,-1,21
 431 -2 431 -2 406.5 -1 c 128,-1,22
 382 0 382 0 361 11 c 256,23,24
 340 22 340 22 322 39 c 128,-1,25
 304 56 304 56 291 81 c 1,26,27
 275 46 275 46 246 22.5 c 128,-1,28
 217 -1 217 -1 172 -1 c 0,29,30
 136 -1 136 -1 110 14 c 128,-1,31
 84 29 84 29 67 54 c 128,-1,32
 50 79 50 79 41.5 110 c 128,-1,33
 33 141 33 141 33 174 c 256,34,35
 33 207 33 207 41.5 238 c 128,-1,36
 50 269 50 269 67 294 c 128,-1,37
 84 319 84 319 110 334 c 128,-1,38
 136 349 136 349 172 349 c 0,39,40
 217 349 217 349 246.5 325 c 128,-1,41
 276 301 276 301 292 264 c 1,42,43
 309 299 309 299 341 323.5 c 128,-1,44
 373 348 373 348 423 348 c 0,0,1
172 36 m 0,45,46
 197 36 197 36 216 49 c 128,-1,47
 235 62 235 62 247.5 81.5 c 128,-1,48
 260 101 260 101 266 125 c 128,-1,49
 272 149 272 149 272 172 c 256,50,51
 272 195 272 195 266.5 220 c 128,-1,52
 261 245 261 245 249 265.5 c 128,-1,53
 237 286 237 286 218 299.5 c 128,-1,54
 199 313 199 313 172 313 c 256,55,56
 145 313 145 313 126 300 c 128,-1,57
 107 287 107 287 95 266.5 c 128,-1,58
 83 246 83 246 77.5 221.5 c 128,-1,59
 72 197 72 197 72 174 c 256,60,61
 72 151 72 151 77.5 127 c 128,-1,62
 83 103 83 103 95 82.5 c 128,-1,63
 107 62 107 62 126 49 c 128,-1,64
 145 36 145 36 172 36 c 0,45,46
529 193 m 1,65,66
 530 211 530 211 524.5 232.5 c 128,-1,67
 519 254 519 254 506 272.5 c 128,-1,68
 493 291 493 291 472.5 303.5 c 128,-1,69
 452 316 452 316 422 316 c 256,70,71
 392 316 392 316 371 303 c 128,-1,72
 350 290 350 290 337 271 c 128,-1,73
 324 252 324 252 318 230.5 c 128,-1,74
 312 209 312 209 312 193 c 1,75,-1
 529 193 l 1,65,66
EndSplineSet
EndChar
StartChar: florin
Encoding: 402 402 202
Width: 337
Flags: W
Fore
284 434 m 1,0,1
 249 457 249 457 223.5 440.5 c 128,-1,2
 198 424 198 424 188 382 c 2,3,-1
 175 283 l 1,4,-1
 247 283 l 1,5,-1
 241 259 l 1,6,-1
 172 259 l 1,7,8
 170 241 170 241 166.5 214.5 c 128,-1,9
 163 188 163 188 159 160 c 128,-1,10
 155 132 155 132 151.5 105.5 c 128,-1,11
 148 79 148 79 145 61 c 0,12,13
 139 19 139 19 125.5 -6 c 128,-1,14
 112 -31 112 -31 93.5 -44 c 128,-1,15
 75 -57 75 -57 52.5 -59 c 128,-1,16
 30 -61 30 -61 5 -56 c 1,17,-1
 16 -28 l 1,18,19
 54 -34 54 -34 77 -17 c 128,-1,20
 100 0 100 0 107 44 c 2,21,-1
 137 259 l 1,22,-1
 63 259 l 1,23,-1
 69 283 l 1,24,-1
 141 283 l 1,25,26
 141 287 141 287 143 301.5 c 128,-1,27
 145 316 145 316 147 332.5 c 128,-1,28
 149 349 149 349 151 363.5 c 128,-1,29
 153 378 153 378 154 383 c 0,30,31
 173 476 173 476 253 476 c 0,32,33
 271 476 271 476 286 468 c 128,-1,34
 301 460 301 460 306 456 c 1,35,-1
 284 434 l 1,0,1
EndSplineSet
EndChar
StartChar: circumflex
Encoding: 710 710 203
Width: 292
Flags: W
Fore
202 474 m 1,0,-1
 145 527 l 1,1,-1
 92 474 l 1,2,-1
 48 474 l 1,3,-1
 132 561 l 1,4,-1
 159 561 l 1,5,-1
 244 474 l 1,6,-1
 202 474 l 1,0,-1
EndSplineSet
EndChar
StartChar: caron
Encoding: 711 711 204
Width: 339
Flags: W
Fore
262 561 m 1,0,-1
 177 474 l 1,1,-1
 151 474 l 1,2,-1
 70 561 l 1,3,-1
 110 561 l 1,4,-1
 163 504 l 1,5,-1
 220 561 l 1,6,-1
 262 561 l 1,0,-1
EndSplineSet
EndChar
StartChar: breve
Encoding: 728 728 205
Width: 300
Flags: W
Fore
257 494 m 1,0,1
 257 472 257 472 248.5 452.5 c 128,-1,2
 240 433 240 433 226 418 c 128,-1,3
 212 403 212 403 192.5 394.5 c 128,-1,4
 173 386 173 386 150 386 c 0,5,6
 128 386 128 386 108 394.5 c 128,-1,7
 88 403 88 403 74 418 c 128,-1,8
 60 433 60 433 51.5 452.5 c 128,-1,9
 43 472 43 472 43 494 c 1,10,-1
 79 494 l 1,11,12
 79 460 79 460 98 439.5 c 128,-1,13
 117 419 117 419 150 419 c 256,14,15
 183 419 183 419 202 439.5 c 128,-1,16
 221 460 221 460 221 494 c 1,17,-1
 257 494 l 1,0,1
EndSplineSet
EndChar
StartChar: dotaccent
Encoding: 729 729 206
Width: 158
Flags: W
Fore
43 462 m 0,0,1
 43 476 43 476 53 487 c 128,-1,2
 63 498 63 498 79 498 c 256,3,4
 95 498 95 498 105 487 c 128,-1,5
 115 476 115 476 115 462 c 0,6,7
 115 447 115 447 105 436.5 c 128,-1,8
 95 426 95 426 79 426 c 256,9,10
 63 426 63 426 53 436.5 c 128,-1,11
 43 447 43 447 43 462 c 0,0,1
EndSplineSet
EndChar
StartChar: ring
Encoding: 730 730 207
Width: 278
Flags: W
Fore
72 470 m 256,0,1
 72 498 72 498 91 517.5 c 128,-1,2
 110 537 110 537 138 537 c 256,3,4
 166 537 166 537 185.5 517.5 c 128,-1,5
 205 498 205 498 205 470 c 256,6,7
 205 442 205 442 185.5 423 c 128,-1,8
 166 404 166 404 138 404 c 256,9,10
 110 404 110 404 91 423 c 128,-1,11
 72 442 72 442 72 470 c 256,0,1
103 470 m 256,12,13
 103 454 103 454 113 444 c 128,-1,14
 123 434 123 434 139 434 c 256,15,16
 155 434 155 434 165 444 c 128,-1,17
 175 454 175 454 175 470 c 256,18,19
 175 486 175 486 165 496 c 128,-1,20
 155 506 155 506 139 506 c 256,21,22
 123 506 123 506 113 496 c 128,-1,23
 103 486 103 486 103 470 c 256,12,13
EndSplineSet
EndChar
StartChar: tilde
Encoding: 732 732 209
Width: 222
Flags: W
Fore
198 472 m 1,0,1
 198 445 198 445 185.5 427 c 128,-1,2
 173 409 173 409 149 409 c 0,3,4
 141 409 141 409 130 413.5 c 128,-1,5
 119 418 119 418 108 423.5 c 128,-1,6
 97 429 97 429 87 433.5 c 128,-1,7
 77 438 77 438 70 438 c 0,8,9
 61 438 61 438 57 428.5 c 128,-1,10
 53 419 53 419 52 405 c 1,11,-1
 23 405 l 1,12,13
 22 431 22 431 34.5 450.5 c 128,-1,14
 47 470 47 470 69 470 c 0,15,16
 80 470 80 470 91.5 466 c 128,-1,17
 103 462 103 462 113.5 457 c 128,-1,18
 124 452 124 452 134 447.5 c 128,-1,19
 144 443 144 443 153 442 c 0,20,21
 159 441 159 441 164.5 447.5 c 128,-1,22
 170 454 170 454 170 472 c 1,23,-1
 198 472 l 1,0,1
EndSplineSet
EndChar
StartChar: uni0E01
Encoding: 3585 3585 212
Width: 426
Flags: W
Fore
328 292 m 2,0,1
 328 305 328 305 333 313 c 1,2,3
 330 317 330 317 321.5 327.5 c 128,-1,4
 313 338 313 338 298.5 348 c 128,-1,5
 284 358 284 358 262.5 366 c 128,-1,6
 241 374 241 374 212 374 c 0,7,8
 178 374 178 374 154.5 365.5 c 128,-1,9
 131 357 131 357 115 345 c 128,-1,10
 99 333 99 333 89.5 320 c 128,-1,11
 80 307 80 307 76 298 c 1,12,-1
 115 273 l 1,13,14
 121 281 121 281 134 290.5 c 128,-1,15
 147 300 147 300 158 302 c 0,16,17
 159 302 159 302 166 292 c 128,-1,18
 173 282 173 282 178 275 c 1,19,20
 148 261 148 261 138.5 240.5 c 128,-1,21
 129 220 129 220 129 205 c 2,22,-1
 129 0 l 1,23,-1
 90 0 l 1,24,-1
 90 206 l 2,25,26
 90 218 90 218 93.5 228.5 c 128,-1,27
 97 239 97 239 99 243 c 1,28,-1
 30 284 l 1,29,30
 31 290 31 290 40.5 309.5 c 128,-1,31
 50 329 50 329 70.5 351 c 128,-1,32
 91 373 91 373 125 390 c 128,-1,33
 159 407 159 407 211 408 c 0,34,35
 269 408 269 408 303 387.5 c 128,-1,36
 337 367 337 367 355 343 c 1,37,38
 357 345 357 345 362.5 344 c 128,-1,39
 368 343 368 343 376 335 c 0,40,41
 385 324 385 324 383 319 c 128,-1,42
 381 314 381 314 374 307 c 256,43,44
 367 300 367 300 367 286 c 2,45,-1
 367 0 l 1,46,-1
 328 0 l 1,47,-1
 328 292 l 2,0,1
EndSplineSet
EndChar
StartChar: uni0E02
Encoding: 3586 3586 213
Width: 376
Flags: W
Fore
278 400 m 1,0,-1
 317 400 l 1,1,-1
 317 39 l 2,2,3
 317 25 317 25 306 14 c 0,4,5
 294 0 294 0 268 0 c 2,6,-1
 141 0 l 2,7,8
 136 0 136 0 135 -1.5 c 128,-1,9
 134 -3 134 -3 129 -5 c 0,10,11
 121 -7 121 -7 116.5 -6 c 128,-1,12
 112 -5 112 -5 104 9 c 0,13,14
 100 16 100 16 102.5 19.5 c 128,-1,15
 105 23 105 23 113 28 c 0,16,17
 124 35 124 35 127 43 c 128,-1,18
 130 51 130 51 130 56 c 2,19,-1
 130 180 l 2,20,21
 130 201 130 201 141 215 c 128,-1,22
 152 229 152 229 163 240 c 0,23,24
 177 254 177 254 188 270.5 c 128,-1,25
 199 287 199 287 198 317 c 0,26,27
 197 335 197 335 189 347 c 128,-1,28
 181 359 181 359 168.5 365.5 c 128,-1,29
 156 372 156 372 142 373 c 128,-1,30
 128 374 128 374 115 370 c 1,31,32
 132 362 132 362 143 345.5 c 128,-1,33
 154 329 154 329 154 309 c 0,34,35
 154 280 154 280 134.5 260.5 c 128,-1,36
 115 241 115 241 86 241 c 0,37,38
 58 241 58 241 38.5 260.5 c 128,-1,39
 19 280 19 280 19 309 c 0,40,41
 19 345 19 345 49 377 c 0,42,43
 62 390 62 390 80.5 397.5 c 128,-1,44
 99 405 99 405 119 407 c 128,-1,45
 139 409 139 409 159 404.5 c 128,-1,46
 179 400 179 400 195 389 c 0,47,48
 212 377 212 377 222.5 358 c 128,-1,49
 233 339 233 339 234 319 c 0,50,51
 235 298 235 298 230.5 281.5 c 128,-1,52
 226 265 226 265 218.5 253 c 128,-1,53
 211 241 211 241 202 231.5 c 128,-1,54
 193 222 193 222 186 214 c 0,55,56
 175 203 175 203 172 196 c 128,-1,57
 169 189 169 189 169 180 c 2,58,-1
 169 61 l 2,59,60
 169 44 169 44 160 38 c 1,61,-1
 278 38 l 1,62,-1
 278 400 l 1,0,-1
86 276 m 256,63,64
 100 276 100 276 110 285.5 c 128,-1,65
 120 295 120 295 120 309 c 256,66,67
 120 323 120 323 110 332.5 c 128,-1,68
 100 342 100 342 86 342 c 256,69,70
 72 342 72 342 62.5 332.5 c 128,-1,71
 53 323 53 323 53 309 c 256,72,73
 53 295 53 295 62.5 285.5 c 128,-1,74
 72 276 72 276 86 276 c 256,63,64
EndSplineSet
EndChar
StartChar: uni0E03
Encoding: 3587 3587 214
Width: 412
Flags: W
Fore
355 39 m 2,0,1
 355 25 355 25 344 14 c 0,2,3
 332 0 332 0 306 0 c 2,4,-1
 182 0 l 2,5,6
 177 0 177 0 176 -1.5 c 128,-1,7
 175 -3 175 -3 170 -5 c 0,8,9
 162 -7 162 -7 157.5 -6 c 128,-1,10
 153 -5 153 -5 145 9 c 0,11,12
 141 16 141 16 143.5 19.5 c 128,-1,13
 146 23 146 23 154 28 c 0,14,15
 165 35 165 35 168 43.5 c 128,-1,16
 171 52 171 52 171 57 c 2,17,-1
 171 192 l 2,18,19
 171 210 171 210 177 224 c 128,-1,20
 183 238 183 238 192 248.5 c 128,-1,21
 201 259 201 259 211 267.5 c 128,-1,22
 221 276 221 276 230 283 c 0,23,24
 247 297 247 297 251.5 306 c 128,-1,25
 256 315 256 315 253 326 c 0,26,27
 250 339 250 339 243 353.5 c 128,-1,28
 236 368 236 368 228 373 c 1,29,30
 223 369 223 369 215.5 363 c 128,-1,31
 208 357 208 357 199 349 c 1,32,33
 206 338 206 338 204.5 332.5 c 128,-1,34
 203 327 203 327 196 324 c 0,35,36
 180 316 180 316 172 330 c 0,37,38
 158 359 158 359 134 369.5 c 128,-1,39
 110 380 110 380 90 372 c 0,40,41
 79 368 79 368 69.5 356 c 128,-1,42
 60 344 60 344 58 330 c 1,43,44
 66 336 66 336 76.5 340.5 c 128,-1,45
 87 345 87 345 98 345 c 0,46,47
 125 345 125 345 144 326 c 128,-1,48
 163 307 163 307 163 280 c 256,49,50
 163 253 163 253 144 234.5 c 128,-1,51
 125 216 125 216 98 216 c 0,52,53
 75 216 75 216 58.5 227 c 128,-1,54
 42 238 42 238 33 255.5 c 128,-1,55
 24 273 24 273 22 293.5 c 128,-1,56
 20 314 20 314 25 334 c 0,57,58
 37 381 37 381 78 400 c 0,59,60
 103 412 103 412 132.5 407.5 c 128,-1,61
 162 403 162 403 185 374 c 1,62,63
 201 389 201 389 211.5 396 c 128,-1,64
 222 403 222 403 228 406 c 128,-1,65
 234 409 234 409 238 408 c 128,-1,66
 242 407 242 407 245 406 c 1,67,68
 254 400 254 400 262 389.5 c 128,-1,69
 270 379 270 379 276 367.5 c 128,-1,70
 282 356 282 356 286 345.5 c 128,-1,71
 290 335 290 335 291 330 c 0,72,73
 294 315 294 315 291.5 304.5 c 128,-1,74
 289 294 289 294 283 286 c 128,-1,75
 277 278 277 278 268.5 271.5 c 128,-1,76
 260 265 260 265 252 258 c 0,77,78
 235 244 235 244 222.5 229.5 c 128,-1,79
 210 215 210 215 210 192 c 2,80,-1
 210 61 l 2,81,82
 210 44 210 44 201 38 c 1,83,-1
 317 38 l 1,84,-1
 317 400 l 1,85,-1
 355 400 l 1,86,-1
 355 39 l 2,0,1
98 312 m 256,87,88
 84 312 84 312 74.5 303 c 128,-1,89
 65 294 65 294 65 280 c 256,90,91
 65 266 65 266 74.5 257 c 128,-1,92
 84 248 84 248 98 248 c 256,93,94
 112 248 112 248 121 257 c 128,-1,95
 130 266 130 266 130 280 c 256,96,97
 130 294 130 294 121 303 c 128,-1,98
 112 312 112 312 98 312 c 256,87,88
EndSplineSet
EndChar
StartChar: uni0E04
Encoding: 3588 3588 215
Width: 435
Flags: W
Fore
343 317 m 1,0,1
 344 317 344 317 337.5 325.5 c 128,-1,2
 331 334 331 334 316 345 c 128,-1,3
 301 356 301 356 277.5 365 c 128,-1,4
 254 374 254 374 220 374 c 0,5,6
 166 374 166 374 132.5 344 c 128,-1,7
 99 314 99 314 96 257 c 0,8,9
 94 228 94 228 96.5 200 c 128,-1,10
 99 172 99 172 102 149 c 128,-1,11
 105 126 105 126 108 109 c 128,-1,12
 111 92 111 92 111 84 c 1,13,14
 125 130 125 130 132.5 161.5 c 128,-1,15
 140 193 140 193 144.5 215 c 128,-1,16
 149 237 149 237 151.5 250.5 c 128,-1,17
 154 264 154 264 159 274 c 0,18,19
 169 295 169 295 185.5 305 c 128,-1,20
 202 315 202 315 222 315 c 0,21,22
 249 315 249 315 268.5 295.5 c 128,-1,23
 288 276 288 276 288 249 c 256,24,25
 288 222 288 222 268.5 203 c 128,-1,26
 249 184 249 184 222 184 c 256,27,28
 195 184 195 184 176 203 c 1,29,30
 171 184 171 184 165.5 160.5 c 128,-1,31
 160 137 160 137 151.5 110.5 c 128,-1,32
 143 84 143 84 130.5 57.5 c 128,-1,33
 118 31 118 31 99 6 c 0,34,35
 94 -1 94 -1 86.5 -1 c 128,-1,36
 79 -1 79 -1 73 4 c 0,37,38
 65 11 65 11 64 15 c 128,-1,39
 63 19 63 19 71 31 c 0,40,41
 81 46 81 46 79 68 c 128,-1,42
 77 90 77 90 72 118.5 c 128,-1,43
 67 147 67 147 61.5 182.5 c 128,-1,44
 56 218 56 218 58 260 c 0,45,46
 61 328 61 328 103.5 368 c 128,-1,47
 146 408 146 408 219 408 c 0,48,49
 248 408 248 408 271 402 c 128,-1,50
 294 396 294 396 311.5 387 c 128,-1,51
 329 378 329 378 342.5 366.5 c 128,-1,52
 356 355 356 355 365 343 c 1,53,54
 367 345 367 345 372.5 344 c 128,-1,55
 378 343 378 343 386 335 c 0,56,57
 395 324 395 324 393 319 c 128,-1,58
 391 314 391 314 384 307 c 256,59,60
 377 300 377 300 377 286 c 2,61,-1
 377 0 l 1,62,-1
 338 0 l 1,63,-1
 338 296 l 2,64,65
 338 309 338 309 343 317 c 1,0,1
254 249 m 256,66,67
 254 263 254 263 245 272 c 128,-1,68
 236 281 236 281 222 281 c 256,69,70
 208 281 208 281 199 272 c 128,-1,71
 190 263 190 263 190 249 c 256,72,73
 190 235 190 235 199 226 c 128,-1,74
 208 217 208 217 222 217 c 256,75,76
 236 217 236 217 245 226 c 128,-1,77
 254 235 254 235 254 249 c 256,66,67
EndSplineSet
EndChar
StartChar: uni0E05
Encoding: 3589 3589 216
Width: 435
Flags: W
Fore
343 315 m 1,0,1
 337 327 337 327 322 345 c 128,-1,2
 307 363 307 363 282 371 c 1,3,4
 277 369 277 369 265 358.5 c 128,-1,5
 253 348 253 348 241 334 c 1,6,7
 240 332 240 332 238 328.5 c 128,-1,8
 236 325 236 325 233 323 c 0,9,10
 226 318 226 318 220.5 321.5 c 128,-1,11
 215 325 215 325 210 331 c 0,12,13
 178 371 178 371 158 373 c 1,14,15
 127 365 127 365 111.5 343.5 c 128,-1,16
 96 322 96 322 91.5 293.5 c 128,-1,17
 87 265 87 265 90 232 c 128,-1,18
 93 199 93 199 98.5 169.5 c 128,-1,19
 104 140 104 140 108.5 117 c 128,-1,20
 113 94 113 94 111 84 c 1,21,22
 126 124 126 124 134 152.5 c 128,-1,23
 142 181 142 181 146.5 202 c 128,-1,24
 151 223 151 223 154 237 c 128,-1,25
 157 251 157 251 162 262 c 0,26,27
 182 303 182 303 225 303 c 0,28,29
 252 303 252 303 271.5 283.5 c 128,-1,30
 291 264 291 264 291 237 c 256,31,32
 291 210 291 210 271.5 190.5 c 128,-1,33
 252 171 252 171 225 171 c 0,34,35
 197 171 197 171 179 191 c 1,36,37
 174 172 174 172 168 150 c 128,-1,38
 162 128 162 128 153 104.5 c 128,-1,39
 144 81 144 81 131 56 c 128,-1,40
 118 31 118 31 99 6 c 0,41,42
 94 -1 94 -1 86.5 -1 c 128,-1,43
 79 -1 79 -1 73 4 c 0,44,45
 65 11 65 11 64.5 15.5 c 128,-1,46
 64 20 64 20 71 31 c 0,47,48
 81 47 81 47 79.5 72.5 c 128,-1,49
 78 98 78 98 72.5 130 c 128,-1,50
 67 162 67 162 60.5 198.5 c 128,-1,51
 54 235 54 235 55 274 c 0,52,53
 57 325 57 325 79 355.5 c 128,-1,54
 101 386 101 386 149 403 c 0,55,56
 166 408 166 408 187 394.5 c 128,-1,57
 208 381 208 381 224 363 c 1,58,59
 240 381 240 381 257.5 394 c 128,-1,60
 275 407 275 407 291 403 c 0,61,62
 320 392 320 392 339 375 c 128,-1,63
 358 358 358 358 367 344 c 1,64,65
 370 345 370 345 375 343.5 c 128,-1,66
 380 342 380 342 386 335 c 0,67,68
 395 324 395 324 393 319 c 128,-1,69
 391 314 391 314 384 307 c 256,70,71
 377 300 377 300 377 286 c 2,72,-1
 377 0 l 1,73,-1
 338 0 l 1,74,-1
 338 294 l 2,75,76
 338 307 338 307 343 315 c 1,0,1
257 237 m 256,77,78
 257 251 257 251 248 260 c 128,-1,79
 239 269 239 269 225 269 c 256,80,81
 211 269 211 269 201.5 260 c 128,-1,82
 192 251 192 251 192 237 c 256,83,84
 192 223 192 223 201.5 214 c 128,-1,85
 211 205 211 205 225 205 c 256,86,87
 239 205 239 205 248 214 c 128,-1,88
 257 223 257 223 257 237 c 256,77,78
EndSplineSet
EndChar
StartChar: uni0E06
Encoding: 3590 3590 217
Width: 480
Flags: W
Fore
422 0 m 1,0,-1
 383 0 l 1,1,-1
 383 34 l 1,2,3
 365 68 365 68 339.5 89 c 128,-1,4
 314 110 314 110 289 121 c 128,-1,5
 264 132 264 132 244 136 c 128,-1,6
 224 140 224 140 218 141 c 1,7,-1
 218 56 l 2,8,9
 218 32 218 32 207.5 16 c 128,-1,10
 197 0 197 0 177 -4 c 0,11,12
 157 -7 157 -7 140 -0.5 c 128,-1,13
 123 6 123 6 110.5 19 c 128,-1,14
 98 32 98 32 92 50 c 128,-1,15
 86 68 86 68 88 88 c 0,16,17
 92 126 92 126 119 147 c 128,-1,18
 146 168 146 168 180 174 c 1,19,-1
 180 210 l 2,20,21
 180 228 180 228 186 241 c 128,-1,22
 192 254 192 254 201 264 c 128,-1,23
 210 274 210 274 220 281.5 c 128,-1,24
 230 289 230 289 239 296 c 0,25,26
 256 310 256 310 261.5 319.5 c 128,-1,27
 267 329 267 329 265 340 c 0,28,29
 263 354 263 354 254.5 364 c 128,-1,30
 246 374 246 374 243 376 c 1,31,32
 238 371 238 371 228 364 c 128,-1,33
 218 357 218 357 209 349 c 1,34,35
 215 337 215 337 213 332 c 128,-1,36
 211 327 211 327 205 325 c 1,37,38
 197 320 197 320 190.5 322 c 128,-1,39
 184 324 184 324 181 330 c 0,40,41
 167 360 167 360 145.5 369.5 c 128,-1,42
 124 379 124 379 101 371 c 0,43,44
 93 369 93 369 82 358 c 128,-1,45
 71 347 71 347 69 332 c 1,46,47
 75 337 75 337 83.5 339.5 c 128,-1,48
 92 342 92 342 99 342 c 0,49,50
 127 342 127 342 146 324 c 128,-1,51
 165 306 165 306 165 279 c 0,52,53
 165 251 165 251 145.5 232.5 c 128,-1,54
 126 214 126 214 99 214 c 0,55,56
 75 214 75 214 60 225.5 c 128,-1,57
 45 237 45 237 37.5 254.5 c 128,-1,58
 30 272 30 272 29 293 c 128,-1,59
 28 314 28 314 33 332 c 0,60,61
 39 357 39 357 54.5 374.5 c 128,-1,62
 70 392 70 392 84 399 c 0,63,64
 109 410 109 410 140.5 406.5 c 128,-1,65
 172 403 172 403 195 375 c 1,66,67
 211 389 211 389 221 396.5 c 128,-1,68
 231 404 231 404 237 406.5 c 128,-1,69
 243 409 243 409 247 408 c 128,-1,70
 251 407 251 407 254 406 c 0,71,72
 263 402 263 402 270.5 394.5 c 128,-1,73
 278 387 278 387 284 378 c 128,-1,74
 290 369 290 369 293.5 360.5 c 128,-1,75
 297 352 297 352 298 347 c 0,76,77
 301 332 301 332 299 321 c 128,-1,78
 297 310 297 310 291 301.5 c 128,-1,79
 285 293 285 293 277 286 c 128,-1,80
 261 272 l 0,81,82
 244 259 244 259 231 245.5 c 128,-1,83
 218 232 218 232 218 210 c 2,84,-1
 218 174 l 1,85,86
 224 174 224 174 241 171.5 c 128,-1,87
 258 169 258 169 281.5 161 c 128,-1,88
 305 153 305 153 332 137 c 128,-1,89
 359 121 359 121 383 94 c 1,90,-1
 383 400 l 1,91,-1
 422 400 l 1,92,-1
 422 0 l 1,0,-1
99 311 m 256,93,94
 85 311 85 311 76 302 c 128,-1,95
 67 293 67 293 67 279 c 256,96,97
 67 265 67 265 76 255.5 c 128,-1,98
 85 246 85 246 99 246 c 256,99,100
 113 246 113 246 122 255.5 c 128,-1,101
 131 265 131 265 131 279 c 256,102,103
 131 293 131 293 122 302 c 128,-1,104
 113 311 113 311 99 311 c 256,93,94
179 140 m 1,105,106
 170 138 170 138 161 134.5 c 128,-1,107
 152 131 152 131 144 125 c 128,-1,108
 136 119 136 119 130 109 c 128,-1,109
 124 99 124 99 122 84 c 0,110,111
 120 65 120 65 131.5 45 c 128,-1,112
 143 25 143 25 167 27 c 0,113,114
 175 28 175 28 177 32.5 c 128,-1,115
 179 37 179 37 179 48 c 2,116,-1
 179 140 l 1,105,106
EndSplineSet
EndChar
StartChar: uni0E07
Encoding: 3591 3591 218
Width: 325
Flags: W
Fore
28 247 m 1,0,1
 30 245 30 245 44.5 230.5 c 128,-1,2
 59 216 59 216 80.5 194.5 c 128,-1,3
 102 173 102 173 126.5 148.5 c 128,-1,4
 151 124 151 124 172 102.5 c 128,-1,5
 193 81 193 81 208 65.5 c 128,-1,6
 223 50 223 50 225 48 c 1,7,8
 227 50 227 50 228 53 c 128,-1,9
 229 56 229 56 230 58 c 0,10,11
 231 61 231 61 231 64 c 2,12,-1
 231 281 l 1,13,14
 217 274 217 274 202 274 c 0,15,16
 174 274 174 274 155 293.5 c 128,-1,17
 136 313 136 313 136 340 c 256,18,19
 136 367 136 367 155 386.5 c 128,-1,20
 174 406 174 406 202 406 c 0,21,22
 229 406 229 406 248 387 c 128,-1,23
 267 368 267 368 267 341 c 2,24,-1
 267 77 l 2,25,26
 267 59 267 59 265 48.5 c 128,-1,27
 263 38 263 38 259 30 c 128,-1,28
 255 22 255 22 249 15.5 c 128,-1,29
 243 9 243 9 236 0 c 0,30,31
 229 -8 229 -8 224.5 -7 c 128,-1,32
 220 -6 220 -6 209 0 c 0,33,34
 202 4 202 4 202.5 7.5 c 128,-1,35
 203 11 203 11 207 19 c 1,36,-1
 113 113 l 2,37,38
 77 149 l 128,-1,39
 59 167 59 167 44 182 c 128,-1,40
 29 197 29 197 18.5 207.5 c 128,-1,41
 8 218 8 218 4 221 c 1,42,-1
 28 247 l 1,0,1
202 308 m 0,43,44
 215 308 215 308 224.5 317 c 128,-1,45
 234 326 234 326 234 340 c 256,46,47
 234 354 234 354 224.5 363 c 128,-1,48
 215 372 215 372 202 372 c 0,49,50
 188 372 188 372 179 363 c 128,-1,51
 170 354 170 354 170 340 c 256,52,53
 170 326 170 326 179 317 c 128,-1,54
 188 308 188 308 202 308 c 0,43,44
EndSplineSet
EndChar
StartChar: uni0E08
Encoding: 3592 3592 219
Width: 400
Flags: W
Fore
304 41 m 2,0,1
 302 29 302 29 292 18 c 128,-1,2
 282 7 282 7 270 -3 c 0,3,4
 259 -10 259 -10 246 3 c 0,5,6
 241 7 241 7 241.5 11 c 128,-1,7
 242 15 242 15 244.5 18 c 128,-1,8
 247 21 247 21 250.5 23.5 c 128,-1,9
 254 26 254 26 255 29 c 1,10,-1
 217 184 l 1,11,12
 200 170 200 170 176 170 c 0,13,14
 149 170 149 170 130 189 c 128,-1,15
 111 208 111 208 111 236 c 0,16,17
 111 263 111 263 130 282 c 128,-1,18
 149 301 149 301 176 301 c 0,19,20
 202 301 202 301 219.5 284.5 c 128,-1,21
 237 268 237 268 242 243 c 2,22,-1
 277 61 l 1,23,-1
 308 298 l 1,24,25
 310 304 310 304 311.5 309 c 128,-1,26
 313 314 313 314 317 318 c 1,27,28
 311 325 311 325 299.5 334.5 c 128,-1,29
 288 344 288 344 272 352.5 c 128,-1,30
 256 361 256 361 235.5 367 c 128,-1,31
 215 373 215 373 192 373 c 0,32,33
 123 373 123 373 89 327.5 c 128,-1,34
 55 282 55 282 58 209 c 1,35,-1
 25 209 l 1,36,37
 23 261 23 261 35.5 298.5 c 128,-1,38
 48 336 48 336 71 360 c 128,-1,39
 94 384 94 384 125 395.5 c 128,-1,40
 156 407 156 407 192 407 c 0,41,42
 243 407 243 407 279.5 387 c 128,-1,43
 316 367 316 367 339 343 c 1,44,45
 341 345 341 345 346.5 344 c 128,-1,46
 352 343 352 343 360 333 c 0,47,48
 368 322 368 322 365.5 317 c 128,-1,49
 363 312 363 312 356 305 c 0,50,51
 353 303 353 303 349.5 299 c 128,-1,52
 346 295 346 295 344 287 c 2,53,-1
 304 41 l 2,0,1
176 203 m 256,54,55
 190 203 190 203 199.5 212.5 c 128,-1,56
 209 222 209 222 209 236 c 0,57,58
 209 249 209 249 199.5 258.5 c 128,-1,59
 190 268 190 268 176 268 c 256,60,61
 162 268 162 268 153 258.5 c 128,-1,62
 144 249 144 249 144 236 c 0,63,64
 144 222 144 222 153 212.5 c 128,-1,65
 162 203 162 203 176 203 c 256,54,55
EndSplineSet
EndChar
StartChar: uni0E09
Encoding: 3593 3593 220
Width: 426
Flags: W
Fore
326 295 m 2,0,1
 326 308 326 308 331 316 c 1,2,3
 329 317 329 317 321 326 c 128,-1,4
 313 335 313 335 297 345.5 c 128,-1,5
 281 356 281 356 256.5 364.5 c 128,-1,6
 232 373 232 373 198 373 c 0,7,8
 176 373 176 373 154 367 c 128,-1,9
 132 361 132 361 113.5 350 c 128,-1,10
 95 339 95 339 80.5 321.5 c 128,-1,11
 66 304 66 304 59 282 c 1,12,13
 51 284 51 284 44 286 c 0,14,15
 38 288 38 288 33 289.5 c 128,-1,16
 28 291 28 291 26 292 c 1,17,18
 31 313 31 313 45.5 334 c 128,-1,19
 60 355 60 355 82.5 371.5 c 128,-1,20
 105 388 105 388 134 398 c 128,-1,21
 163 408 163 408 198 408 c 0,22,23
 258 408 258 408 295.5 387 c 128,-1,24
 333 366 333 366 352 343 c 1,25,26
 354 345 354 345 359.5 344 c 128,-1,27
 365 343 365 343 373 335 c 0,28,29
 382 324 382 324 380 319 c 128,-1,30
 378 314 378 314 371 307 c 256,31,32
 364 300 364 300 364 286 c 2,33,-1
 364 139 l 1,34,35
 388 128 388 128 397 108.5 c 128,-1,36
 406 89 406 89 406 72 c 0,37,38
 406 41 406 41 384.5 20 c 128,-1,39
 363 -1 363 -1 332 -1 c 0,40,41
 303 -1 303 -1 280 18 c 128,-1,42
 257 37 257 37 257 72 c 0,43,44
 257 84 257 84 265.5 101 c 128,-1,45
 274 118 274 118 290 126 c 1,46,47
 252 122 252 122 226.5 100.5 c 128,-1,48
 201 79 201 79 183.5 55.5 c 128,-1,49
 166 32 166 32 155.5 13.5 c 128,-1,50
 145 -5 145 -5 138 -3 c 1,51,52
 131 -3 131 -3 124.5 2 c 128,-1,53
 118 7 118 7 116 12 c 1,54,55
 114 21 114 21 121 27 c 128,-1,56
 128 33 128 33 128 42 c 2,57,-1
 129 155 l 1,58,59
 120 152 120 152 109 152 c 0,60,61
 82 152 82 152 63 169.5 c 128,-1,62
 44 187 44 187 44 214 c 0,63,64
 44 242 44 242 63 260 c 128,-1,65
 82 278 82 278 109 278 c 256,66,67
 136 278 136 278 155 260 c 128,-1,68
 174 242 174 242 174 214 c 0,69,70
 174 198 174 198 168 185 c 1,71,72
 168 181 168 181 167.5 169.5 c 128,-1,73
 167 158 167 158 167 143.5 c 128,-1,74
 167 129 167 129 166.5 114 c 128,-1,75
 166 99 166 99 166 88 c 1,76,77
 181 108 181 108 200.5 122 c 128,-1,78
 220 136 220 136 242 144.5 c 128,-1,79
 264 153 264 153 285.5 155.5 c 128,-1,80
 307 158 307 158 326 155 c 1,81,-1
 326 295 l 2,0,1
77 214 m 0,82,83
 77 201 77 201 86 191.5 c 128,-1,84
 95 182 95 182 109 182 c 256,85,86
 123 182 123 182 132 191.5 c 128,-1,87
 141 201 141 201 141 214 c 0,88,89
 141 228 141 228 132 237.5 c 128,-1,90
 123 247 123 247 109 247 c 256,91,92
 95 247 95 247 86 237.5 c 128,-1,93
 77 228 77 228 77 214 c 0,82,83
332 33 m 256,94,95
 349 33 349 33 360 44.5 c 128,-1,96
 371 56 371 56 371 72 c 256,97,98
 371 88 371 88 360 100 c 128,-1,99
 349 112 349 112 332 112 c 0,100,101
 317 112 317 112 305 100.5 c 128,-1,102
 293 89 293 89 293 72 c 0,103,104
 293 57 293 57 304 45 c 128,-1,105
 315 33 315 33 332 33 c 256,94,95
EndSplineSet
EndChar
StartChar: uni0E0A
Encoding: 3594 3594 221
Width: 379
Flags: W
Fore
321 39 m 2,0,1
 321 25 321 25 310 14 c 0,2,3
 298 0 298 0 272 0 c 2,4,-1
 141 0 l 2,5,6
 136 0 136 0 135 -1.5 c 128,-1,7
 134 -3 134 -3 129 -5 c 0,8,9
 121 -7 121 -7 116.5 -6 c 128,-1,10
 112 -5 112 -5 104 9 c 0,11,12
 100 16 100 16 102.5 19.5 c 128,-1,13
 105 23 105 23 113 28 c 0,14,15
 124 35 124 35 127 43 c 128,-1,16
 130 51 130 51 130 56 c 2,17,-1
 130 175 l 2,18,19
 130 195 130 195 140 211 c 128,-1,20
 150 227 150 227 161 242 c 0,21,22
 176 262 176 262 186.5 281 c 128,-1,23
 197 300 197 300 190 326 c 0,24,25
 185 342 185 342 174 351 c 128,-1,26
 163 360 163 360 148 363.5 c 128,-1,27
 133 367 133 367 117 365.5 c 128,-1,28
 101 364 101 364 88 358 c 1,29,30
 99 359 99 359 109 354.5 c 128,-1,31
 119 350 119 350 126.5 341.5 c 128,-1,32
 134 333 134 333 138.5 321.5 c 128,-1,33
 143 310 143 310 143 299 c 0,34,35
 143 271 143 271 124 252 c 128,-1,36
 105 233 105 233 77 233 c 0,37,38
 50 233 50 233 31.5 251.5 c 128,-1,39
 13 270 13 270 12 299 c 0,40,41
 12 326 12 326 27.5 349.5 c 128,-1,42
 43 373 43 373 69 387 c 0,43,44
 91 397 91 397 115.5 399 c 128,-1,45
 140 401 140 401 162 395 c 128,-1,46
 184 389 184 389 201 374.5 c 128,-1,47
 218 360 218 360 225 337 c 0,48,49
 233 307 233 307 224 280.5 c 128,-1,50
 215 254 215 254 195 228 c 0,51,52
 179 207 179 207 174 196.5 c 128,-1,53
 169 186 169 186 169 171 c 2,54,-1
 169 61 l 2,55,56
 169 44 169 44 160 38 c 1,57,-1
 282 38 l 1,58,-1
 282 248 l 1,59,60
 279 257 279 257 270.5 263.5 c 128,-1,61
 262 270 262 270 254 275 c 0,62,63
 244 280 244 280 233 285 c 1,64,65
 234 287 234 287 237 300.5 c 128,-1,66
 240 314 240 314 252 335.5 c 128,-1,67
 264 357 264 357 287.5 384 c 128,-1,68
 311 411 311 411 352 441 c 1,69,70
 358 433 358 433 363 427 c 0,71,72
 367 422 367 422 370.5 417 c 128,-1,73
 374 412 374 412 375 412 c 1,74,75
 332 383 332 383 307 356.5 c 128,-1,76
 282 330 282 330 272 302 c 1,77,78
 278 301 278 301 284 297 c 0,79,80
 289 294 289 294 295.5 289.5 c 128,-1,81
 302 285 302 285 308 278 c 0,82,83
 318 267 318 267 319.5 251.5 c 128,-1,84
 321 236 321 236 321 229 c 2,85,-1
 321 39 l 2,0,1
110 299 m 0,86,87
 110 312 110 312 100.5 321.5 c 128,-1,88
 91 331 91 331 77 331 c 0,89,90
 64 331 64 331 54.5 321.5 c 128,-1,91
 45 312 45 312 45 299 c 0,92,93
 45 285 45 285 54.5 275.5 c 128,-1,94
 64 266 64 266 77 266 c 0,95,96
 91 266 91 266 100.5 275.5 c 128,-1,97
 110 285 110 285 110 299 c 0,86,87
EndSplineSet
EndChar
StartChar: uni0E0B
Encoding: 3595 3595 222
Width: 425
Flags: W
Fore
367 39 m 2,0,1
 367 25 367 25 356 14 c 0,2,3
 344 0 344 0 318 0 c 2,4,-1
 187 0 l 2,5,6
 182 0 182 0 181 -1.5 c 128,-1,7
 180 -3 180 -3 175 -5 c 0,8,9
 167 -7 167 -7 162.5 -6 c 128,-1,10
 158 -5 158 -5 150 9 c 0,11,12
 146 16 146 16 148.5 19.5 c 128,-1,13
 151 23 151 23 159 28 c 0,14,15
 170 35 170 35 173 43 c 128,-1,16
 176 51 176 51 176 56 c 2,17,-1
 176 188 l 2,18,19
 176 207 176 207 182.5 222.5 c 128,-1,20
 189 238 189 238 207 259 c 0,21,22
 224 279 224 279 237 294.5 c 128,-1,23
 250 310 250 310 249 318 c 0,24,25
 248 325 248 325 245 333.5 c 128,-1,26
 242 342 242 342 238 349.5 c 128,-1,27
 234 357 234 357 230.5 362 c 128,-1,28
 227 367 227 367 225 366 c 1,29,30
 220 362 220 362 213 356 c 128,-1,31
 206 350 206 350 197 342 c 1,32,33
 201 334 201 334 198 329.5 c 128,-1,34
 195 325 195 325 186 321 c 0,35,36
 172 316 172 316 165 333 c 1,37,38
 150 356 150 356 134.5 364 c 128,-1,39
 119 372 119 372 104 369.5 c 128,-1,40
 89 367 89 367 76.5 355.5 c 128,-1,41
 64 344 64 344 56 328 c 1,42,43
 73 340 73 340 91 340 c 128,-1,44
 109 340 109 340 124 332 c 128,-1,45
 139 324 139 324 148.5 309 c 128,-1,46
 158 294 158 294 158 275 c 0,47,48
 158 247 158 247 138.5 228 c 128,-1,49
 119 209 119 209 92 209 c 0,50,51
 69 209 69 209 53 220.5 c 128,-1,52
 37 232 37 232 28 249.5 c 128,-1,53
 19 267 19 267 16.5 287.5 c 128,-1,54
 14 308 14 308 19 326 c 0,55,56
 24 349 24 349 40.5 368.5 c 128,-1,57
 57 388 57 388 76 397 c 0,58,59
 101 408 101 408 129 404 c 128,-1,60
 157 400 157 400 180 371 c 1,61,62
 196 386 196 386 206 393 c 128,-1,63
 216 400 216 400 222 402.5 c 128,-1,64
 228 405 228 405 232 404 c 128,-1,65
 236 403 236 403 239 402 c 0,66,67
 246 399 246 399 253.5 389.5 c 128,-1,68
 261 380 261 380 267 368 c 128,-1,69
 273 356 273 356 277 343.5 c 128,-1,70
 281 331 281 331 281 322 c 0,71,72
 281 309 281 309 278.5 300 c 128,-1,73
 276 291 276 291 270 282 c 128,-1,74
 264 273 264 273 255 262.5 c 128,-1,75
 246 252 246 252 233 236 c 0,76,77
 225 227 225 227 220 217.5 c 128,-1,78
 215 208 215 208 215 186 c 2,79,-1
 215 61 l 2,80,81
 215 44 215 44 206 38 c 1,82,-1
 328 38 l 1,83,-1
 328 246 l 1,84,85
 326 257 326 257 318 264 c 128,-1,86
 310 271 310 271 302 275 c 0,87,88
 292 279 292 279 280 281 c 1,89,90
 281 283 281 283 284 297 c 128,-1,91
 287 311 287 311 299 333 c 128,-1,92
 311 355 311 355 334 383 c 128,-1,93
 357 411 357 411 398 441 c 1,94,95
 404 433 404 433 409 427 c 0,96,97
 413 422 413 422 416.5 417 c 128,-1,98
 420 412 420 412 421 412 c 1,99,100
 378 383 378 383 353 356.5 c 128,-1,101
 328 330 328 330 318 302 c 1,102,103
 324 301 324 301 330 297 c 0,104,105
 335 294 335 294 341.5 289.5 c 128,-1,106
 348 285 348 285 354 278 c 0,107,108
 364 267 364 267 365.5 251.5 c 128,-1,109
 367 236 367 236 367 229 c 2,110,-1
 367 39 l 2,0,1
92 307 m 256,111,112
 78 307 78 307 69 297.5 c 128,-1,113
 60 288 60 288 60 275 c 0,114,115
 60 261 60 261 69 251.5 c 128,-1,116
 78 242 78 242 92 242 c 256,117,118
 106 242 106 242 115 251.5 c 128,-1,119
 124 261 124 261 124 275 c 0,120,121
 124 288 124 288 115 297.5 c 128,-1,122
 106 307 106 307 92 307 c 256,111,112
EndSplineSet
EndChar
StartChar: uni0E0C
Encoding: 3596 3596 223
Width: 614
Flags: W
Fore
331 292 m 2,0,1
 331 305 331 305 336 313 c 1,2,3
 333 317 333 317 324 327.5 c 128,-1,4
 315 338 315 338 300 348 c 128,-1,5
 285 358 285 358 263 366 c 128,-1,6
 241 374 241 374 212 374 c 0,7,8
 178 374 178 374 154.5 365.5 c 128,-1,9
 131 357 131 357 115 345 c 128,-1,10
 99 333 99 333 89.5 320 c 128,-1,11
 80 307 80 307 76 298 c 1,12,-1
 115 273 l 1,13,14
 121 281 121 281 134 290.5 c 128,-1,15
 147 300 147 300 158 302 c 0,16,17
 159 302 159 302 166 292 c 128,-1,18
 173 282 173 282 178 275 c 1,19,20
 148 261 148 261 138.5 240.5 c 128,-1,21
 129 220 129 220 129 205 c 2,22,-1
 129 121 l 1,23,24
 142 127 142 127 155 127 c 0,25,26
 183 127 183 127 202 107.5 c 128,-1,27
 221 88 221 88 221 61 c 256,28,29
 221 34 221 34 202 14.5 c 128,-1,30
 183 -5 183 -5 155 -5 c 0,31,32
 128 -5 128 -5 109 14.5 c 128,-1,33
 90 34 90 34 90 61 c 2,34,-1
 90 206 l 2,35,36
 90 218 90 218 93.5 228.5 c 128,-1,37
 97 239 97 239 99 243 c 1,38,-1
 30 284 l 1,39,40
 31 290 31 290 40.5 309.5 c 128,-1,41
 50 329 50 329 70.5 351 c 128,-1,42
 91 373 91 373 125 390 c 128,-1,43
 159 407 159 407 211 408 c 0,44,45
 270 408 270 408 305 387.5 c 128,-1,46
 340 367 340 367 358 343 c 1,47,48
 360 345 360 345 365.5 344 c 128,-1,49
 371 343 371 343 379 335 c 0,50,51
 388 324 388 324 386 319 c 128,-1,52
 384 314 384 314 377 307 c 256,53,54
 370 300 370 300 370 286 c 2,55,-1
 370 180 l 1,56,57
 382 179 382 179 399.5 175 c 128,-1,58
 417 171 417 171 437 162 c 128,-1,59
 457 153 457 153 478 138 c 128,-1,60
 499 123 499 123 517 99 c 1,61,-1
 517 400 l 1,62,-1
 556 400 l 1,63,-1
 556 0 l 1,64,-1
 517 0 l 1,65,-1
 517 31 l 1,66,67
 507 62 507 62 487 83 c 128,-1,68
 467 104 467 104 445 117 c 128,-1,69
 423 130 423 130 402.5 136.5 c 128,-1,70
 382 143 382 143 370 144 c 1,71,-1
 370 57 l 2,72,73
 370 32 370 32 358 18 c 128,-1,74
 346 4 346 4 326 0 c 0,75,76
 311 -2 311 -2 296.5 4 c 128,-1,77
 282 10 282 10 270.5 22.5 c 128,-1,78
 259 35 259 35 252.5 54.5 c 128,-1,79
 246 74 246 74 249 98 c 0,80,81
 251 118 251 118 259.5 132 c 128,-1,82
 268 146 268 146 280 156 c 128,-1,83
 292 166 292 166 305.5 171.5 c 128,-1,84
 319 177 319 177 331 179 c 1,85,-1
 331 292 l 2,0,1
155 93 m 0,86,87
 142 93 142 93 132.5 84 c 128,-1,88
 123 75 123 75 123 61 c 256,89,90
 123 47 123 47 132.5 38 c 128,-1,91
 142 29 142 29 155 29 c 0,92,93
 169 29 169 29 178.5 38 c 128,-1,94
 188 47 188 47 188 61 c 256,95,96
 188 75 188 75 178.5 84 c 128,-1,97
 169 93 169 93 155 93 c 0,86,87
331 142 m 1,98,99
 316 138 316 138 301 125.5 c 128,-1,100
 286 113 286 113 284 87 c 0,101,102
 283 81 283 81 284.5 71.5 c 128,-1,103
 286 62 286 62 290.5 53 c 128,-1,104
 295 44 295 44 302 37.5 c 128,-1,105
 309 31 309 31 319 31 c 0,106,107
 322 31 322 31 326.5 33.5 c 128,-1,108
 331 36 331 36 331 50 c 2,109,-1
 331 142 l 1,98,99
EndSplineSet
EndChar
StartChar: uni0E0D
Encoding: 3597 3597 224
Width: 615
Flags: W
Fore
350 -71 m 1,0,1
 342 -81 342 -81 342 -93 c 256,2,3
 342 -105 342 -105 350.5 -113.5 c 128,-1,4
 359 -122 359 -122 371 -122 c 0,5,6
 384 -122 384 -122 392.5 -113.5 c 128,-1,7
 401 -105 401 -105 401 -93 c 0,8,9
 401 -79 401 -79 393 -71 c 128,-1,10
 385 -63 385 -63 371 -63 c 0,11,12
 360 -63 360 -63 350 -71 c 1,0,1
328 292 m 2,13,14
 328 305 328 305 333 313 c 1,15,16
 330 317 330 317 321.5 327.5 c 128,-1,17
 313 338 313 338 298.5 348 c 128,-1,18
 284 358 284 358 262.5 366 c 128,-1,19
 241 374 241 374 212 374 c 0,20,21
 178 374 178 374 154.5 365.5 c 128,-1,22
 131 357 131 357 115 345 c 128,-1,23
 99 333 99 333 89.5 320 c 128,-1,24
 80 307 80 307 76 298 c 1,25,-1
 115 273 l 1,26,27
 121 281 121 281 134 290.5 c 128,-1,28
 147 300 147 300 158 302 c 0,29,30
 159 302 159 302 166 292 c 128,-1,31
 173 282 173 282 178 275 c 1,32,33
 148 261 148 261 138.5 240.5 c 128,-1,34
 129 220 129 220 129 205 c 2,35,-1
 129 121 l 1,36,37
 142 127 142 127 155 127 c 0,38,39
 183 127 183 127 202 107.5 c 128,-1,40
 221 88 221 88 221 61 c 256,41,42
 221 34 221 34 202 14.5 c 128,-1,43
 183 -5 183 -5 155 -5 c 0,44,45
 128 -5 128 -5 109 14.5 c 128,-1,46
 90 34 90 34 90 61 c 2,47,-1
 90 206 l 2,48,49
 90 218 90 218 93.5 228.5 c 128,-1,50
 97 239 97 239 99 243 c 1,51,-1
 30 284 l 1,52,53
 31 290 31 290 40.5 309.5 c 128,-1,54
 50 329 50 329 70.5 351 c 128,-1,55
 91 373 91 373 125 390 c 128,-1,56
 159 407 159 407 211 408 c 0,57,58
 269 408 269 408 303 387.5 c 128,-1,59
 337 367 337 367 355 343 c 1,60,61
 357 345 357 345 362.5 344 c 128,-1,62
 368 343 368 343 376 335 c 0,63,64
 385 324 385 324 383 319 c 128,-1,65
 381 314 381 314 374 307 c 256,66,67
 367 300 367 300 367 286 c 2,68,-1
 367 61 l 2,69,70
 367 44 367 44 358 38 c 1,71,-1
 518 38 l 1,72,-1
 518 400 l 1,73,-1
 557 400 l 1,74,-1
 557 24 l 2,75,76
 557 -3 557 -3 553 -31 c 128,-1,77
 549 -59 549 -59 538.5 -84 c 128,-1,78
 528 -109 528 -109 508.5 -128.5 c 128,-1,79
 489 -148 489 -148 458 -157 c 0,80,81
 432 -165 432 -165 405.5 -164.5 c 128,-1,82
 379 -164 379 -164 358 -156 c 128,-1,83
 337 -148 337 -148 323.5 -132 c 128,-1,84
 310 -116 310 -116 310 -93 c 0,85,86
 310 -67 310 -67 327.5 -49 c 128,-1,87
 345 -31 345 -31 371 -31 c 0,88,89
 392 -31 392 -31 407 -41.5 c 128,-1,90
 422 -52 422 -52 428.5 -68 c 128,-1,91
 435 -84 435 -84 431 -101.5 c 128,-1,92
 427 -119 427 -119 411 -133 c 1,93,94
 470 -132 470 -132 494.5 -94.5 c 128,-1,95
 519 -57 519 -57 519 3 c 1,96,-1
 339 3 l 2,97,98
 334 3 334 3 333 1.5 c 128,-1,99
 332 0 332 0 327 -2 c 0,100,101
 319 -4 319 -4 314.5 -3 c 128,-1,102
 310 -2 310 -2 302 12 c 0,103,104
 298 19 298 19 300.5 22.5 c 128,-1,105
 303 26 303 26 311 31 c 0,106,107
 322 38 322 38 325 46 c 128,-1,108
 328 54 328 54 328 59 c 2,109,-1
 328 292 l 2,13,14
155 93 m 0,110,111
 142 93 142 93 132.5 84 c 128,-1,112
 123 75 123 75 123 61 c 256,113,114
 123 47 123 47 132.5 38 c 128,-1,115
 142 29 142 29 155 29 c 0,116,117
 169 29 169 29 178.5 38 c 128,-1,118
 188 47 188 47 188 61 c 256,119,120
 188 75 188 75 178.5 84 c 128,-1,121
 169 93 169 93 155 93 c 0,110,111
EndSplineSet
Substitution: 0 65534 'L026' uni0E0D.alt1
Substitution: 0 65534 'L026' uni0E0D.alt1
EndChar
StartChar: uni0E0E
Encoding: 3598 3598 225
Width: 437
Flags: W
Fore
379 -135 m 2,0,1
 379 -152 379 -152 369.5 -167 c 128,-1,2
 360 -182 360 -182 346.5 -195.5 c 128,-1,3
 333 -209 333 -209 318.5 -219 c 128,-1,4
 304 -229 304 -229 295 -235 c 0,5,6
 288 -239 288 -239 280.5 -237 c 128,-1,7
 273 -235 273 -235 268 -228 c 0,8,9
 264 -222 264 -222 265.5 -214.5 c 128,-1,10
 267 -207 267 -207 274 -202 c 1,11,12
 259 -179 259 -179 235.5 -157.5 c 128,-1,13
 212 -136 212 -136 192 -130 c 1,14,15
 194 -159 194 -159 187 -181 c 0,16,17
 181 -200 181 -200 166 -215.5 c 128,-1,18
 151 -231 151 -231 121 -231 c 0,19,20
 86 -231 86 -231 68.5 -208.5 c 128,-1,21
 51 -186 51 -186 51 -161 c 0,22,23
 51 -141 51 -141 60 -126.5 c 128,-1,24
 69 -112 69 -112 83.5 -103 c 128,-1,25
 98 -94 98 -94 116.5 -91 c 128,-1,26
 135 -88 135 -88 153 -91 c 1,27,-1
 153 -40 l 1,28,-1
 192 -40 l 1,29,-1
 192 -100 l 1,30,31
 203 -102 203 -102 217.5 -109.5 c 128,-1,32
 232 -117 232 -117 247 -128 c 128,-1,33
 262 -139 262 -139 276.5 -153 c 128,-1,34
 291 -167 291 -167 301 -183 c 1,35,36
 318 -170 318 -170 329 -157 c 128,-1,37
 340 -144 340 -144 340 -135 c 2,38,-1
 340 292 l 2,39,40
 340 305 340 305 345 313 c 1,41,42
 342 317 342 317 333.5 327.5 c 128,-1,43
 325 338 325 338 311 348 c 128,-1,44
 297 358 297 358 275.5 366 c 128,-1,45
 254 374 254 374 225 374 c 0,46,47
 191 374 191 374 167.5 365.5 c 128,-1,48
 144 357 144 357 128 345 c 128,-1,49
 112 333 112 333 102.5 320 c 128,-1,50
 93 307 93 307 89 298 c 1,51,-1
 128 273 l 1,52,53
 134 281 134 281 147 290.5 c 128,-1,54
 160 300 160 300 171 302 c 0,55,56
 172 302 172 302 179 292 c 128,-1,57
 186 282 186 282 191 275 c 1,58,59
 161 261 161 261 151.5 240.5 c 128,-1,60
 142 220 142 220 142 205 c 2,61,-1
 142 84 l 1,62,63
 146 75 146 75 146 62 c 0,64,65
 146 34 146 34 127 15 c 128,-1,66
 108 -4 108 -4 81 -4 c 0,67,68
 53 -4 53 -4 34 15 c 128,-1,69
 15 34 15 34 15 62 c 0,70,71
 15 89 15 89 34 108 c 128,-1,72
 53 127 53 127 81 127 c 0,73,74
 87 127 87 127 92 126 c 128,-1,75
 97 125 97 125 103 123 c 1,76,-1
 103 206 l 2,77,78
 103 218 103 218 106.5 228.5 c 128,-1,79
 110 239 110 239 112 243 c 1,80,-1
 43 284 l 1,81,82
 44 290 44 290 53.5 309.5 c 128,-1,83
 63 329 63 329 83.5 351 c 128,-1,84
 104 373 104 373 138 390 c 128,-1,85
 172 407 172 407 224 408 c 0,86,87
 282 408 282 408 315.5 387.5 c 128,-1,88
 349 367 349 367 367 343 c 1,89,90
 369 345 369 345 374.5 344 c 128,-1,91
 380 343 380 343 388 335 c 0,92,93
 397 324 397 324 395 319 c 128,-1,94
 393 314 393 314 386 307 c 256,95,96
 379 300 379 300 379 286 c 2,97,-1
 379 -135 l 2,0,1
81 29 m 0,98,99
 94 29 94 29 103.5 38.5 c 128,-1,100
 113 48 113 48 113 62 c 0,101,102
 113 75 113 75 103.5 84.5 c 128,-1,103
 94 94 94 94 81 94 c 0,104,105
 67 94 67 94 57.5 84.5 c 128,-1,106
 48 75 48 75 48 62 c 0,107,108
 48 48 48 48 57.5 38.5 c 128,-1,109
 67 29 67 29 81 29 c 0,98,99
157 -155 m 0,110,111
 157 -150 157 -150 156.5 -139.5 c 128,-1,112
 156 -129 156 -129 155 -124 c 1,113,114
 144 -123 144 -123 132 -123 c 128,-1,115
 120 -123 120 -123 109.5 -126 c 128,-1,116
 99 -129 99 -129 92.5 -137.5 c 128,-1,117
 86 -146 86 -146 86 -161 c 0,118,119
 86 -164 86 -164 87 -170 c 128,-1,120
 88 -176 88 -176 92 -182 c 128,-1,121
 96 -188 96 -188 102.5 -192 c 128,-1,122
 109 -196 109 -196 121 -196 c 0,123,124
 141 -196 141 -196 149 -183 c 128,-1,125
 157 -170 157 -170 157 -155 c 0,110,111
EndSplineSet
Substitution: 0 65534 'L026' uni0E0E.alt1
Substitution: 0 65534 'L026' uni0E0E.alt1
EndChar
StartChar: uni0E0F
Encoding: 3599 3599 226
Width: 437
Flags: W
Fore
380 -136 m 2,0,1
 380 -160 380 -160 375 -175.5 c 128,-1,2
 370 -191 370 -191 362.5 -201 c 128,-1,3
 355 -211 355 -211 346.5 -216.5 c 128,-1,4
 338 -222 338 -222 331 -224 c 0,5,6
 323 -226 323 -226 316 -222.5 c 128,-1,7
 309 -219 309 -219 307 -211 c 1,8,9
 304 -207 304 -207 306 -201 c 1,10,11
 303 -201 303 -201 296 -200.5 c 128,-1,12
 289 -200 289 -200 280 -203 c 128,-1,13
 271 -206 271 -206 261.5 -213.5 c 128,-1,14
 252 -221 252 -221 245 -235 c 0,15,16
 241 -242 241 -242 234 -243.5 c 128,-1,17
 227 -245 227 -245 221 -241 c 0,18,19
 215 -236 215 -236 213 -229 c 128,-1,20
 211 -222 211 -222 216 -216 c 2,21,-1
 218 -214 l 1,22,23
 206 -192 206 -192 191.5 -172.5 c 128,-1,24
 177 -153 177 -153 159 -140 c 1,25,26
 160 -167 160 -167 154 -187 c 0,27,28
 148 -204 148 -204 133.5 -218.5 c 128,-1,29
 119 -233 119 -233 88 -233 c 0,30,31
 70 -233 70 -233 57 -226.5 c 128,-1,32
 44 -220 44 -220 35.5 -210 c 128,-1,33
 27 -200 27 -200 22.5 -187 c 128,-1,34
 18 -174 18 -174 18 -162 c 0,35,36
 18 -142 18 -142 27.5 -127.5 c 128,-1,37
 37 -113 37 -113 52 -104 c 128,-1,38
 67 -95 67 -95 85 -92.5 c 128,-1,39
 103 -90 103 -90 121 -94 c 1,40,-1
 121 -42 l 1,41,-1
 159 -42 l 1,42,-1
 159 -107 l 1,43,44
 182 -120 182 -120 203 -141 c 128,-1,45
 224 -162 224 -162 241 -188 c 1,46,47
 249 -178 249 -178 262 -173 c 128,-1,48
 275 -168 275 -168 289 -167.5 c 128,-1,49
 303 -167 303 -167 315.5 -170 c 128,-1,50
 328 -173 328 -173 334 -177 c 1,51,52
 340 -168 340 -168 340.5 -156.5 c 128,-1,53
 341 -145 341 -145 341 -136 c 2,54,-1
 341 292 l 2,55,56
 341 305 341 305 346 313 c 1,57,58
 343 317 343 317 334.5 327.5 c 128,-1,59
 326 338 326 338 311.5 348 c 128,-1,60
 297 358 297 358 275.5 366 c 128,-1,61
 254 374 254 374 225 374 c 0,62,63
 191 374 191 374 167.5 365.5 c 128,-1,64
 144 357 144 357 128 345 c 128,-1,65
 112 333 112 333 102.5 320 c 128,-1,66
 93 307 93 307 89 298 c 1,67,-1
 128 273 l 1,68,69
 134 281 134 281 147 290.5 c 128,-1,70
 160 300 160 300 171 302 c 0,71,72
 172 302 172 302 179 292 c 128,-1,73
 186 282 186 282 191 275 c 1,74,75
 161 261 161 261 151.5 240.5 c 128,-1,76
 142 220 142 220 142 205 c 2,77,-1
 142 84 l 1,78,79
 146 75 146 75 146 62 c 0,80,81
 146 34 146 34 127 15 c 128,-1,82
 108 -4 108 -4 81 -4 c 0,83,84
 53 -4 53 -4 34 15 c 128,-1,85
 15 34 15 34 15 62 c 0,86,87
 15 89 15 89 34 108 c 128,-1,88
 53 127 53 127 81 127 c 0,89,90
 87 127 87 127 92 126 c 128,-1,91
 97 125 97 125 103 123 c 1,92,-1
 103 206 l 2,93,94
 103 218 103 218 106.5 228.5 c 128,-1,95
 110 239 110 239 112 243 c 1,96,-1
 43 284 l 1,97,98
 44 290 44 290 53.5 309.5 c 128,-1,99
 63 329 63 329 83.5 351 c 128,-1,100
 104 373 104 373 138 390 c 128,-1,101
 172 407 172 407 224 408 c 0,102,103
 282 408 282 408 316 387.5 c 128,-1,104
 350 367 350 367 368 343 c 1,105,106
 370 345 370 345 375.5 344 c 128,-1,107
 381 343 381 343 389 335 c 0,108,109
 398 324 398 324 396 319 c 128,-1,110
 394 314 394 314 387 307 c 256,111,112
 380 300 380 300 380 286 c 2,113,-1
 380 -136 l 2,0,1
81 29 m 0,114,115
 94 29 94 29 103.5 38.5 c 128,-1,116
 113 48 113 48 113 62 c 0,117,118
 113 75 113 75 103.5 84.5 c 128,-1,119
 94 94 94 94 81 94 c 0,120,121
 67 94 67 94 57.5 84.5 c 128,-1,122
 48 75 48 75 48 62 c 0,123,124
 48 48 48 48 57.5 38.5 c 128,-1,125
 67 29 67 29 81 29 c 0,114,115
88 -197 m 0,126,127
 103 -197 103 -197 113.5 -187 c 128,-1,128
 124 -177 124 -177 124 -162 c 0,129,130
 124 -160 124 -160 124 -154.5 c 128,-1,131
 124 -149 124 -149 123.5 -143 c 128,-1,132
 123 -137 123 -137 122.5 -132 c 128,-1,133
 122 -127 122 -127 122 -124 c 1,134,135
 110 -123 110 -123 98 -123 c 128,-1,136
 86 -123 86 -123 76 -127 c 128,-1,137
 66 -131 66 -131 59.5 -139 c 128,-1,138
 53 -147 53 -147 53 -162 c 0,139,140
 53 -165 53 -165 54 -171 c 128,-1,141
 55 -177 55 -177 59 -183 c 128,-1,142
 63 -189 63 -189 69.5 -193 c 128,-1,143
 76 -197 76 -197 88 -197 c 0,126,127
EndSplineSet
Substitution: 0 65534 'L026' uni0E0F.alt1
Substitution: 0 65534 'L026' uni0E0F.alt1
EndChar
StartChar: uni0E10
Encoding: 3600 3600 227
Width: 382
Flags: W
Fore
314 286 m 1,0,1
 316 288 316 288 321.5 287 c 128,-1,2
 327 286 327 286 335 276 c 0,3,4
 343 265 343 265 340.5 260 c 128,-1,5
 338 255 338 255 331 248 c 0,6,7
 328 246 328 246 324.5 242 c 128,-1,8
 321 238 321 238 319 230 c 2,9,-1
 284 18 l 2,10,11
 282 10 282 10 276 3.5 c 128,-1,12
 270 -3 270 -3 262 -1 c 256,13,14
 254 1 254 1 247 4 c 128,-1,15
 240 7 240 7 246 22 c 1,16,17
 245 31 245 31 240.5 46 c 128,-1,18
 236 61 236 61 229.5 79 c 128,-1,19
 223 97 223 97 215.5 116.5 c 128,-1,20
 208 136 208 136 200 155 c 1,21,22
 191 144 191 144 178 138 c 128,-1,23
 165 132 165 132 150 132 c 0,24,25
 123 132 123 132 103.5 151 c 128,-1,26
 84 170 84 170 84 198 c 0,27,28
 84 225 84 225 103.5 244 c 128,-1,29
 123 263 123 263 150 263 c 0,30,31
 168 263 168 263 183.5 254 c 128,-1,32
 199 245 199 245 207 230 c 0,33,34
 213 221 213 221 220.5 203 c 128,-1,35
 228 185 228 185 235.5 164 c 128,-1,36
 243 143 243 143 250 121.5 c 128,-1,37
 257 100 257 100 261 85 c 1,38,-1
 286 244 l 2,39,40
 287 255 287 255 294 260 c 1,41,42
 288 264 288 264 270.5 271 c 128,-1,43
 253 278 253 278 225 283 c 128,-1,44
 197 288 197 288 158.5 289 c 128,-1,45
 120 290 120 290 72 283 c 1,46,47
 67 272 67 272 61.5 268.5 c 128,-1,48
 56 265 56 265 44 270 c 0,49,50
 36 274 36 274 38 286.5 c 128,-1,51
 40 299 40 299 53 318 c 0,52,53
 65 336 65 336 79 352.5 c 128,-1,54
 93 369 93 369 112.5 382 c 128,-1,55
 132 395 132 395 158 402 c 128,-1,56
 184 409 184 409 219 407 c 0,57,58
 236 406 236 406 256.5 401 c 128,-1,59
 277 396 277 396 296.5 390.5 c 128,-1,60
 316 385 316 385 332.5 380 c 128,-1,61
 349 375 349 375 359 373 c 1,62,-1
 348 343 l 1,63,64
 341 344 341 344 325.5 349 c 128,-1,65
 310 354 310 354 290.5 359.5 c 128,-1,66
 271 365 271 365 249 369.5 c 128,-1,67
 227 374 227 374 208 374 c 0,68,69
 184 374 184 374 164.5 368.5 c 128,-1,70
 145 363 145 363 130.5 354 c 128,-1,71
 116 345 116 345 106 335 c 128,-1,72
 96 325 96 325 90 316 c 1,73,74
 140 320 140 320 178 318 c 128,-1,75
 216 316 216 316 243 311 c 128,-1,76
 270 306 270 306 287.5 299 c 128,-1,77
 305 292 305 292 314 286 c 1,0,1
128 -33 m 1,78,-1
 128 -106 l 1,79,80
 151 -120 151 -120 172 -140.5 c 128,-1,81
 193 -161 193 -161 209 -187 c 1,82,83
 223 -176 223 -176 241 -173 c 0,84,85
 252 -171 252 -171 263.5 -172.5 c 128,-1,86
 275 -174 275 -174 286 -178 c 1,87,-1
 286 -141 l 1,88,89
 272 -149 272 -149 257 -149 c 0,90,91
 230 -149 230 -149 211 -129.5 c 128,-1,92
 192 -110 192 -110 192 -84 c 0,93,94
 192 -57 192 -57 211 -38 c 128,-1,95
 230 -19 230 -19 257 -19 c 0,96,97
 283 -19 283 -19 302 -38.5 c 128,-1,98
 321 -58 321 -58 321 -84 c 2,99,-1
 321 -195 l 1,100,101
 323 -204 323 -204 321 -209 c 128,-1,102
 319 -214 319 -214 316 -216 c 128,-1,103
 313 -218 313 -218 309.5 -218.5 c 128,-1,104
 306 -219 306 -219 304 -219 c 0,105,106
 293 -219 293 -219 289 -212 c 1,107,108
 280 -205 280 -205 269 -203.5 c 128,-1,109
 258 -202 258 -202 249 -204 c 0,110,111
 227 -208 227 -208 214 -235 c 0,112,113
 210 -241 210 -241 204 -240.5 c 128,-1,114
 198 -240 198 -240 190 -237 c 0,115,116
 180 -233 180 -233 180 -227.5 c 128,-1,117
 180 -222 180 -222 184 -216 c 1,118,-1
 186 -214 l 2,119,120
 187 -213 187 -213 187 -212 c 1,121,122
 176 -190 176 -190 160.5 -171.5 c 128,-1,123
 145 -153 145 -153 128 -141 c 1,124,125
 130 -167 130 -167 123 -187 c 0,126,127
 117 -204 117 -204 102 -218 c 128,-1,128
 87 -232 87 -232 57 -232 c 0,129,130
 21 -232 21 -232 3.5 -209.5 c 128,-1,131
 -14 -187 -14 -187 -14 -161 c 0,132,133
 -14 -141 -14 -141 -4.5 -126 c 128,-1,134
 5 -111 5 -111 19.5 -102 c 128,-1,135
 34 -93 34 -93 52.5 -90.5 c 128,-1,136
 71 -88 71 -88 89 -93 c 1,137,-1
 89 -33 l 1,138,-1
 128 -33 l 1,78,-1
57 -197 m 0,139,140
 71 -197 71 -197 81.5 -186.5 c 128,-1,141
 92 -176 92 -176 92 -161 c 0,142,143
 92 -156 92 -156 92 -144 c 128,-1,144
 92 -132 92 -132 91 -127 c 1,145,146
 80 -121 80 -121 68 -121.5 c 128,-1,147
 56 -122 56 -122 45.5 -126.5 c 128,-1,148
 35 -131 35 -131 28 -140 c 128,-1,149
 21 -149 21 -149 21 -161 c 0,150,151
 21 -165 21 -165 22 -171 c 128,-1,152
 23 -177 23 -177 27 -183 c 128,-1,153
 31 -189 31 -189 38 -193 c 128,-1,154
 45 -197 45 -197 57 -197 c 0,139,140
257 -115 m 0,155,156
 267 -115 267 -115 274.5 -109.5 c 128,-1,157
 282 -104 282 -104 285.5 -95.5 c 128,-1,158
 289 -87 289 -87 287.5 -78 c 128,-1,159
 286 -69 286 -69 279 -62 c 0,160,161
 269 -53 269 -53 255.5 -53 c 128,-1,162
 242 -53 242 -53 234 -62 c 0,163,164
 225 -72 225 -72 225 -83.5 c 128,-1,165
 225 -95 225 -95 234 -106 c 0,166,167
 243 -115 243 -115 257 -115 c 0,155,156
150 166 m 256,168,169
 164 166 164 166 173 175 c 128,-1,170
 182 184 182 184 182 198 c 0,171,172
 182 211 182 211 173 220.5 c 128,-1,173
 164 230 164 230 150 230 c 256,174,175
 136 230 136 230 126.5 220.5 c 128,-1,176
 117 211 117 211 117 198 c 0,177,178
 117 184 117 184 126.5 175 c 128,-1,179
 136 166 136 166 150 166 c 256,168,169
EndSplineSet
Substitution: 0 65534 'L026' uni0E10.alt1
Substitution: 0 65534 'L026' uni0E10.alt1
EndChar
StartChar: uni0E11
Encoding: 3601 3601 228
Width: 505
Flags: W
Fore
412 349 m 1,0,1
 406 354 406 354 391.5 359.5 c 128,-1,2
 377 365 377 365 357 364 c 1,3,4
 354 359 354 359 343 331.5 c 128,-1,5
 332 304 332 304 316.5 265 c 128,-1,6
 301 226 301 226 283.5 181.5 c 128,-1,7
 266 137 266 137 250 98.5 c 128,-1,8
 234 60 234 60 222 33 c 128,-1,9
 210 6 210 6 206 3 c 2,10,11
 204 -1 204 -1 199 -4.5 c 128,-1,12
 194 -8 194 -8 180 2 c 0,13,14
 164 13 164 13 176 28 c 0,15,16
 183 36 183 36 183.5 44 c 128,-1,17
 184 52 184 52 184 51 c 1,18,-1
 184 203 l 2,19,20
 184 246 184 246 189 267 c 128,-1,21
 194 288 194 288 207 303 c 0,22,23
 217 314 217 314 227 324 c 128,-1,24
 237 334 237 334 235 341 c 0,25,26
 233 349 233 349 224 357.5 c 128,-1,27
 215 366 215 366 211 370 c 1,28,29
 206 366 206 366 198.5 361 c 128,-1,30
 191 356 191 356 185 350 c 1,31,32
 187 343 187 343 187.5 337 c 128,-1,33
 188 331 188 331 177 326 c 256,34,35
 166 321 166 321 162 326.5 c 128,-1,36
 158 332 158 332 153 339 c 0,37,38
 138 362 138 362 122.5 368.5 c 128,-1,39
 107 375 107 375 93.5 370.5 c 128,-1,40
 80 366 80 366 70 352 c 128,-1,41
 60 338 60 338 57 320 c 1,42,43
 64 329 64 329 75.5 333.5 c 128,-1,44
 87 338 87 338 97 338 c 0,45,46
 124 338 124 338 143 319 c 128,-1,47
 162 300 162 300 162 272 c 0,48,49
 162 245 162 245 142.5 226.5 c 128,-1,50
 123 208 123 208 96 207 c 0,51,52
 81 207 81 207 65 215.5 c 128,-1,53
 49 224 49 224 37.5 241 c 128,-1,54
 26 258 26 258 22 283 c 128,-1,55
 18 308 18 308 28 340 c 0,56,57
 37 368 37 368 54 383 c 128,-1,58
 71 398 71 398 84 402 c 0,59,60
 111 410 111 410 130 403.5 c 128,-1,61
 149 397 149 397 167 377 c 1,62,63
 177 384 177 384 185 391.5 c 128,-1,64
 193 399 193 399 200.5 403 c 128,-1,65
 208 407 208 407 215.5 407 c 128,-1,66
 223 407 223 407 232 400 c 0,67,68
 236 397 236 397 243.5 390.5 c 128,-1,69
 251 384 251 384 257.5 376 c 128,-1,70
 264 368 264 368 269.5 359.5 c 128,-1,71
 275 351 275 351 277 344 c 0,72,73
 280 331 280 331 265 315.5 c 128,-1,74
 250 300 250 300 236 283 c 0,75,76
 229 274 229 274 226 262.5 c 128,-1,77
 223 251 223 251 223 228 c 2,78,-1
 223 110 l 1,79,80
 230 129 230 129 240.5 158 c 128,-1,81
 251 187 251 187 263 219 c 128,-1,82
 275 251 275 251 287.5 284 c 128,-1,83
 300 317 300 317 310 343 c 128,-1,84
 320 369 320 369 326.5 385.5 c 128,-1,85
 333 402 333 402 334 402 c 0,86,87
 376 400 376 400 398.5 393.5 c 128,-1,88
 421 387 421 387 435 378 c 1,89,90
 437 380 437 380 442.5 379 c 128,-1,91
 448 378 448 378 456 370 c 0,92,93
 465 359 465 359 463 354 c 128,-1,94
 461 349 461 349 454 342 c 256,95,96
 447 335 447 335 447 321 c 2,97,-1
 447 0 l 1,98,-1
 408 0 l 1,99,-1
 408 328 l 2,100,101
 408 334 408 334 408.5 339 c 128,-1,102
 409 344 409 344 412 349 c 1,0,1
96 305 m 256,103,104
 82 305 82 305 73 295.5 c 128,-1,105
 64 286 64 286 64 272 c 0,106,107
 64 259 64 259 73 249.5 c 128,-1,108
 82 240 82 240 96 240 c 256,109,110
 110 240 110 240 119 249.5 c 128,-1,111
 128 259 128 259 128 272 c 0,112,113
 128 286 128 286 119 295.5 c 128,-1,114
 110 305 110 305 96 305 c 256,103,104
EndSplineSet
EndChar
StartChar: uni0E12
Encoding: 3602 3602 229
Width: 617
Flags: W
Fore
336 138 m 1,0,1
 319 136 319 136 304 122.5 c 128,-1,2
 289 109 289 109 287 84 c 0,3,4
 285 58 285 58 296 42.5 c 128,-1,5
 307 27 307 27 324 27 c 0,6,7
 327 27 327 27 331.5 31 c 128,-1,8
 336 35 336 35 336 49 c 2,9,-1
 336 138 l 1,0,1
375 172 m 1,10,11
 387 171 387 171 404.5 168 c 128,-1,12
 422 165 422 165 442 156.5 c 128,-1,13
 462 148 462 148 482.5 133.5 c 128,-1,14
 503 119 503 119 521 95 c 1,15,-1
 521 400 l 1,16,-1
 559 400 l 1,17,-1
 559 0 l 1,18,-1
 521 0 l 1,19,-1
 521 27 l 1,20,21
 511 58 511 58 491 79 c 128,-1,22
 471 100 471 100 449 113.5 c 128,-1,23
 427 127 427 127 406.5 133 c 128,-1,24
 386 139 386 139 375 140 c 1,25,-1
 375 56 l 2,26,27
 375 32 375 32 363 16 c 128,-1,28
 351 0 351 0 331 -3 c 0,29,30
 316 -6 316 -6 301.5 -0.5 c 128,-1,31
 287 5 287 5 275.5 17.5 c 128,-1,32
 264 30 264 30 258 49 c 128,-1,33
 252 68 252 68 255 92 c 0,34,35
 258 111 258 111 266.5 125 c 128,-1,36
 275 139 275 139 286.5 148.5 c 128,-1,37
 298 158 298 158 311 163 c 128,-1,38
 324 168 324 168 336 170 c 1,39,-1
 336 292 l 2,40,41
 336 305 336 305 341 313 c 1,42,43
 341 314 341 314 338.5 321.5 c 128,-1,44
 336 329 336 329 329 338 c 128,-1,45
 322 347 322 347 311 356 c 128,-1,46
 300 365 300 365 283 370 c 1,47,48
 278 368 278 368 267.5 361 c 128,-1,49
 257 354 257 354 246 337 c 1,50,51
 247 335 247 335 246 331 c 0,52,53
 245 328 245 328 243 324.5 c 128,-1,54
 241 321 241 321 235 319 c 1,55,56
 227 315 227 315 221 319 c 128,-1,57
 215 323 215 323 211 330 c 0,58,59
 208 336 208 336 200.5 343 c 128,-1,60
 193 350 193 350 185 356.5 c 128,-1,61
 177 363 177 363 169 367.5 c 128,-1,62
 161 372 161 372 157 373 c 1,63,64
 125 364 125 364 105.5 339.5 c 128,-1,65
 86 315 86 315 87 277 c 0,66,67
 88 238 88 238 93.5 209.5 c 128,-1,68
 99 181 99 181 105.5 159 c 128,-1,69
 112 137 112 137 117.5 118.5 c 128,-1,70
 123 100 123 100 125 82 c 1,71,72
 132 92 132 92 142 104.5 c 128,-1,73
 152 117 152 117 163 129.5 c 128,-1,74
 174 142 174 142 185 153 c 128,-1,75
 196 164 196 164 204 172 c 1,76,77
 183 178 183 178 169 195.5 c 128,-1,78
 155 213 155 213 155 236 c 0,79,80
 155 263 155 263 174.5 282.5 c 128,-1,81
 194 302 194 302 221 302 c 256,82,83
 248 302 248 302 267.5 282.5 c 128,-1,84
 287 263 287 263 287 236 c 0,85,86
 287 219 287 219 280.5 205.5 c 128,-1,87
 274 192 274 192 264.5 181.5 c 128,-1,88
 255 171 255 171 244.5 162.5 c 128,-1,89
 234 154 234 154 225 146 c 0,90,91
 212 133 212 133 195.5 116 c 128,-1,92
 179 99 179 99 163.5 80.5 c 128,-1,93
 148 62 148 62 134 43.5 c 128,-1,94
 120 25 120 25 113 10 c 0,95,96
 108 0 108 0 102 -2 c 128,-1,97
 96 -4 96 -4 85 2 c 0,98,99
 75 7 75 7 75.5 12.5 c 128,-1,100
 76 18 76 18 82 26 c 0,101,102
 90 36 90 36 93 48 c 128,-1,103
 96 60 96 60 90 86 c 0,104,105
 85 109 85 109 78 131 c 128,-1,106
 71 153 71 153 65 175.5 c 128,-1,107
 59 198 59 198 55 222.5 c 128,-1,108
 51 247 51 247 51 274 c 0,109,110
 51 326 51 326 74.5 357.5 c 128,-1,111
 98 389 98 389 146 406 c 0,112,113
 163 411 163 411 186.5 396.5 c 128,-1,114
 210 382 210 382 227 364 c 1,115,116
 243 383 243 383 259.5 395.5 c 128,-1,117
 276 408 276 408 293 403 c 0,118,119
 325 392 325 392 342 374 c 128,-1,120
 359 356 359 356 364 343 c 1,121,122
 366 345 366 345 371 344 c 128,-1,123
 376 343 376 343 384 335 c 0,124,125
 393 324 393 324 391 319 c 128,-1,126
 389 314 389 314 382 307 c 256,127,128
 375 300 375 300 375 286 c 2,129,-1
 375 172 l 1,10,11
189 236 m 0,130,131
 189 222 189 222 198 212.5 c 128,-1,132
 207 203 207 203 221 203 c 256,133,134
 235 203 235 203 244 212.5 c 128,-1,135
 253 222 253 222 253 236 c 0,136,137
 253 249 253 249 244 258.5 c 128,-1,138
 235 268 235 268 221 268 c 256,139,140
 207 268 207 268 198 258.5 c 128,-1,141
 189 249 189 249 189 236 c 0,130,131
EndSplineSet
EndChar
StartChar: uni0E13
Encoding: 3603 3603 230
Width: 624
Flags: W
Fore
326 292 m 2,0,1
 326 305 326 305 331 313 c 1,2,3
 328 317 328 317 320 327.5 c 128,-1,4
 312 338 312 338 297.5 348 c 128,-1,5
 283 358 283 358 262 366 c 128,-1,6
 241 374 241 374 212 374 c 0,7,8
 178 374 178 374 154.5 365.5 c 128,-1,9
 131 357 131 357 115 345 c 128,-1,10
 99 333 99 333 89.5 320 c 128,-1,11
 80 307 80 307 76 298 c 1,12,-1
 115 273 l 1,13,14
 121 281 121 281 134 290.5 c 128,-1,15
 147 300 147 300 158 302 c 0,16,17
 159 302 159 302 166 292 c 128,-1,18
 173 282 173 282 178 275 c 1,19,20
 148 261 148 261 138.5 240.5 c 128,-1,21
 129 220 129 220 129 205 c 2,22,-1
 129 121 l 1,23,24
 142 127 142 127 155 127 c 0,25,26
 183 127 183 127 202 107.5 c 128,-1,27
 221 88 221 88 221 61 c 256,28,29
 221 34 221 34 202 14.5 c 128,-1,30
 183 -5 183 -5 155 -5 c 0,31,32
 128 -5 128 -5 109 14.5 c 128,-1,33
 90 34 90 34 90 61 c 2,34,-1
 90 206 l 2,35,36
 90 218 90 218 93.5 228.5 c 128,-1,37
 97 239 97 239 99 243 c 1,38,-1
 30 284 l 1,39,40
 31 290 31 290 40.5 309.5 c 128,-1,41
 50 329 50 329 70.5 351 c 128,-1,42
 91 373 91 373 125 390 c 128,-1,43
 159 407 159 407 211 408 c 0,44,45
 269 408 269 408 302 387.5 c 128,-1,46
 335 367 335 367 353 343 c 1,47,48
 355 345 355 345 360.5 344 c 128,-1,49
 366 343 366 343 374 335 c 0,50,51
 383 324 383 324 381 319 c 128,-1,52
 379 314 379 314 372 307 c 256,53,54
 365 300 365 300 365 286 c 2,55,-1
 365 88 l 1,56,57
 380 108 380 108 399.5 122 c 128,-1,58
 419 136 419 136 441 144.5 c 128,-1,59
 463 153 463 153 484.5 155.5 c 128,-1,60
 506 158 506 158 525 155 c 1,61,-1
 525 400 l 1,62,-1
 563 400 l 1,63,-1
 563 139 l 1,64,65
 587 128 587 128 596 108.5 c 128,-1,66
 605 89 605 89 605 72 c 0,67,68
 605 41 605 41 583.5 20 c 128,-1,69
 562 -1 562 -1 531 -1 c 0,70,71
 502 -1 502 -1 479 18 c 128,-1,72
 456 37 456 37 456 72 c 0,73,74
 456 78 456 78 458.5 86.5 c 128,-1,75
 461 95 461 95 465 103 c 128,-1,76
 469 111 469 111 474.5 117.5 c 128,-1,77
 480 124 480 124 487 127 c 1,78,79
 450 122 450 122 424.5 100 c 128,-1,80
 399 78 399 78 381.5 54.5 c 128,-1,81
 364 31 364 31 354 13 c 128,-1,82
 344 -5 344 -5 337 -3 c 1,83,84
 330 -3 330 -3 323.5 2.5 c 128,-1,85
 317 8 317 8 315 13 c 1,86,87
 313 22 313 22 319.5 28 c 128,-1,88
 326 34 326 34 326 43 c 2,89,-1
 326 292 l 2,0,1
155 93 m 0,90,91
 142 93 142 93 132.5 84 c 128,-1,92
 123 75 123 75 123 61 c 256,93,94
 123 47 123 47 132.5 38 c 128,-1,95
 142 29 142 29 155 29 c 0,96,97
 169 29 169 29 178.5 38 c 128,-1,98
 188 47 188 47 188 61 c 256,99,100
 188 75 188 75 178.5 84 c 128,-1,101
 169 93 169 93 155 93 c 0,90,91
531 33 m 256,102,103
 548 33 548 33 559 44.5 c 128,-1,104
 570 56 570 56 570 72 c 256,105,106
 570 88 570 88 559 100 c 128,-1,107
 548 112 548 112 531 112 c 0,108,109
 516 112 516 112 504 100.5 c 128,-1,110
 492 89 492 89 492 72 c 0,111,112
 492 57 492 57 503 45 c 128,-1,113
 514 33 514 33 531 33 c 256,102,103
EndSplineSet
EndChar
StartChar: uni0E14
Encoding: 3604 3604 231
Width: 428
Flags: W
Fore
337 315 m 1,0,1
 329 324.5 l 130,-1,2
 321 334 321 334 305.5 345 c 128,-1,3
 290 356 290 356 267 365 c 128,-1,4
 244 374 244 374 214 374 c 0,5,6
 187 374 187 374 164 366 c 128,-1,7
 141 358 141 358 123.5 343.5 c 128,-1,8
 106 329 106 329 95.5 309 c 128,-1,9
 85 289 85 289 84 265 c 0,10,11
 81 205 81 205 92 159 c 128,-1,12
 103 113 103 113 107 85 c 1,13,14
 127 117 127 117 151.5 145 c 128,-1,15
 176 173 176 173 192 190 c 1,16,17
 172 197 172 197 159 214 c 128,-1,18
 146 231 146 231 146 253 c 0,19,20
 146 281 146 281 165 300 c 128,-1,21
 184 319 184 319 212 319 c 0,22,23
 239 319 239 319 258 300 c 128,-1,24
 277 281 277 281 277 253 c 0,25,26
 277 236 277 236 269 221.5 c 128,-1,27
 261 207 261 207 251 196.5 c 128,-1,28
 241 186 241 186 232.5 180.5 c 128,-1,29
 225 176 225 176 224 175 c 0,30,31
 191 141 191 141 159.5 102.5 c 128,-1,32
 128 64 128 64 105 15 c 0,33,34
 96 -7 96 -7 80 0 c 0,35,36
 66 6 66 6 65 11 c 128,-1,37
 64 16 64 16 72 29 c 0,38,39
 77 37 77 37 78.5 52.5 c 128,-1,40
 80 68 80 68 72 99 c 256,41,42
 64 130 64 130 55.5 172 c 128,-1,43
 47 214 47 214 49 263 c 0,44,45
 50 294 50 294 62.5 321 c 128,-1,46
 75 348 75 348 97 367 c 128,-1,47
 119 386 119 386 148.5 397 c 128,-1,48
 178 408 178 408 213 408 c 0,49,50
 266 408 266 408 302.5 388 c 128,-1,51
 339 368 339 368 358 343 c 1,52,53
 360 345 360 345 365.5 344 c 128,-1,54
 371 343 371 343 379 335 c 0,55,56
 388 324 388 324 386 319 c 128,-1,57
 384 314 384 314 377 307 c 256,58,59
 370 300 370 300 370 286 c 2,60,-1
 370 0 l 1,61,-1
 331 0 l 1,62,-1
 331 294 l 2,63,64
 331 306 331 306 337 315 c 1,0,1
179 253 m 0,65,66
 179 240 179 240 188.5 230.5 c 128,-1,67
 198 221 198 221 212 221 c 0,68,69
 225 221 225 221 234.5 230.5 c 128,-1,70
 244 240 244 240 244 253 c 0,71,72
 244 267 244 267 234.5 276 c 128,-1,73
 225 285 225 285 212 285 c 0,74,75
 198 285 198 285 188.5 276 c 128,-1,76
 179 267 179 267 179 253 c 0,65,66
EndSplineSet
EndChar
StartChar: uni0E15
Encoding: 3605 3605 232
Width: 429
Flags: W
Fore
371 0 m 1,0,-1
 332 0 l 1,1,-1
 332 292 l 2,2,3
 332 305 332 305 337 313 c 1,4,5
 337 314 337 314 334.5 321.5 c 128,-1,6
 332 329 332 329 325 338 c 128,-1,7
 318 347 318 347 307 356 c 128,-1,8
 296 365 296 365 279 370 c 1,9,10
 274 368 274 368 263.5 361 c 128,-1,11
 253 354 253 354 242 337 c 1,12,13
 243 335 243 335 242 331 c 0,14,15
 241 328 241 328 239 324.5 c 128,-1,16
 237 321 237 321 231 319 c 1,17,18
 223 315 223 315 217 319 c 128,-1,19
 211 323 211 323 207 330 c 0,20,21
 204 336 204 336 196.5 343 c 128,-1,22
 189 350 189 350 181 356.5 c 128,-1,23
 173 363 173 363 165 367.5 c 128,-1,24
 157 372 157 372 153 373 c 1,25,26
 121 364 121 364 101.5 339.5 c 128,-1,27
 82 315 82 315 83 277 c 0,28,29
 84 238 84 238 89.5 209.5 c 128,-1,30
 95 181 95 181 101.5 159 c 128,-1,31
 108 137 108 137 113.5 118.5 c 128,-1,32
 119 100 119 100 121 82 c 1,33,34
 128 92 128 92 138 104.5 c 128,-1,35
 148 117 148 117 159 129.5 c 128,-1,36
 170 142 170 142 181 153 c 128,-1,37
 192 164 192 164 200 172 c 1,38,39
 179 178 179 178 165 195.5 c 128,-1,40
 151 213 151 213 151 236 c 0,41,42
 151 263 151 263 170.5 282.5 c 128,-1,43
 190 302 190 302 217 302 c 256,44,45
 244 302 244 302 263.5 282.5 c 128,-1,46
 283 263 283 263 283 236 c 0,47,48
 283 219 283 219 276.5 205.5 c 128,-1,49
 270 192 270 192 260.5 181.5 c 128,-1,50
 251 171 251 171 240.5 162.5 c 128,-1,51
 230 154 230 154 221 146 c 0,52,53
 208 133 208 133 191.5 116 c 128,-1,54
 175 99 175 99 159.5 80.5 c 128,-1,55
 144 62 144 62 130 43.5 c 128,-1,56
 116 25 116 25 109 10 c 0,57,58
 104 0 104 0 98 -2 c 128,-1,59
 92 -4 92 -4 81 2 c 0,60,61
 71 7 71 7 71.5 12.5 c 128,-1,62
 72 18 72 18 78 26 c 0,63,64
 86 36 86 36 89 48 c 128,-1,65
 92 60 92 60 86 86 c 0,66,67
 81 109 81 109 74 131 c 128,-1,68
 67 153 67 153 61 175.5 c 128,-1,69
 55 198 55 198 51 222.5 c 128,-1,70
 47 247 47 247 47 274 c 0,71,72
 47 326 47 326 70.5 357.5 c 128,-1,73
 94 389 94 389 142 406 c 0,74,75
 159 411 159 411 182.5 396.5 c 128,-1,76
 206 382 206 382 223 364 c 1,77,78
 239 383 239 383 255.5 395.5 c 128,-1,79
 272 408 272 408 289 403 c 0,80,81
 321 392 321 392 338 374 c 128,-1,82
 355 356 355 356 360 343 c 1,83,84
 362 345 362 345 367 344 c 128,-1,85
 372 343 372 343 380 335 c 0,86,87
 389 324 389 324 387 319 c 128,-1,88
 385 314 385 314 378 307 c 256,89,90
 371 300 371 300 371 286 c 2,91,-1
 371 0 l 1,0,-1
185 236 m 0,92,93
 185 222 185 222 194 212.5 c 128,-1,94
 203 203 203 203 217 203 c 256,95,96
 231 203 231 203 240 212.5 c 128,-1,97
 249 222 249 222 249 236 c 0,98,99
 249 249 249 249 240 258.5 c 128,-1,100
 231 268 231 268 217 268 c 256,101,102
 203 268 203 268 194 258.5 c 128,-1,103
 185 249 185 249 185 236 c 0,92,93
EndSplineSet
EndChar
StartChar: uni0E16
Encoding: 3606 3606 233
Width: 426
Flags: W
Fore
129 121 m 1,0,1
 142 127 142 127 155 127 c 0,2,3
 183 127 183 127 202 107.5 c 128,-1,4
 221 88 221 88 221 61 c 256,5,6
 221 34 221 34 202 14.5 c 128,-1,7
 183 -5 183 -5 155 -5 c 0,8,9
 128 -5 128 -5 109 14.5 c 128,-1,10
 90 34 90 34 90 61 c 2,11,-1
 90 206 l 2,12,13
 90 218 90 218 93.5 228.5 c 128,-1,14
 97 239 97 239 99 243 c 1,15,-1
 30 284 l 1,16,17
 31 290 31 290 40.5 309.5 c 128,-1,18
 50 329 50 329 70.5 351 c 128,-1,19
 91 373 91 373 125 390 c 128,-1,20
 159 407 159 407 211 408 c 0,21,22
 269 408 269 408 303 387.5 c 128,-1,23
 337 367 337 367 355 343 c 1,24,25
 357 345 357 345 362.5 344 c 128,-1,26
 368 343 368 343 376 335 c 0,27,28
 385 324 385 324 383 319 c 128,-1,29
 381 314 381 314 374 307 c 256,30,31
 367 300 367 300 367 286 c 2,32,-1
 367 0 l 1,33,-1
 328 0 l 1,34,-1
 328 292 l 2,35,36
 328 305 328 305 333 313 c 1,37,38
 330 317 330 317 321.5 327.5 c 128,-1,39
 313 338 313 338 298.5 348 c 128,-1,40
 284 358 284 358 262.5 366 c 128,-1,41
 241 374 241 374 212 374 c 0,42,43
 178 374 178 374 154.5 365.5 c 128,-1,44
 131 357 131 357 115 345 c 128,-1,45
 99 333 99 333 89.5 320 c 128,-1,46
 80 307 80 307 76 298 c 1,47,-1
 115 273 l 1,48,49
 121 281 121 281 134 290.5 c 128,-1,50
 147 300 147 300 158 302 c 0,51,52
 159 302 159 302 166 292 c 128,-1,53
 173 282 173 282 178 275 c 1,54,55
 148 261 148 261 138.5 240.5 c 128,-1,56
 129 220 129 220 129 205 c 2,57,-1
 129 121 l 1,0,1
155 93 m 0,58,59
 142 93 142 93 132.5 84 c 128,-1,60
 123 75 123 75 123 61 c 256,61,62
 123 47 123 47 132.5 38 c 128,-1,63
 142 29 142 29 155 29 c 0,64,65
 169 29 169 29 178.5 38 c 128,-1,66
 188 47 188 47 188 61 c 256,67,68
 188 75 188 75 178.5 84 c 128,-1,69
 169 93 169 93 155 93 c 0,58,59
EndSplineSet
EndChar
StartChar: uni0E17
Encoding: 3607 3607 234
Width: 448
Flags: W
Fore
353 349 m 1,0,1
 347 354 347 354 333 359.5 c 128,-1,2
 319 365 319 365 294 364 c 1,3,4
 291 359 291 359 279 331.5 c 128,-1,5
 267 304 267 304 250.5 265 c 128,-1,6
 234 226 234 226 215 181.5 c 128,-1,7
 196 137 196 137 179 98.5 c 128,-1,8
 162 60 162 60 149 33 c 128,-1,9
 136 6 136 6 132 3 c 2,10,11
 130 -1 130 -1 125 -4.5 c 128,-1,12
 120 -8 120 -8 106 2 c 0,13,14
 90 13 90 13 102 28 c 0,15,16
 109 36 109 36 109.5 45 c 128,-1,17
 110 54 110 54 110 53 c 1,18,-1
 110 279 l 1,19,20
 96 272 96 272 82 272 c 0,21,22
 55 272 55 272 36 291.5 c 128,-1,23
 17 311 17 311 17 338 c 256,24,25
 17 365 17 365 36 384.5 c 128,-1,26
 55 404 55 404 82 404 c 0,27,28
 110 404 110 404 129 384.5 c 128,-1,29
 148 365 148 365 148 338 c 2,30,-1
 148 112 l 1,31,32
 155 131 155 131 166.5 159.5 c 128,-1,33
 178 188 178 188 191.5 220 c 128,-1,34
 218.5 284 l 128,-1,35
 232 316 232 316 243.5 342 c 128,-1,36
 255 368 255 368 262.5 384 c 128,-1,37
 270 400 270 400 271 400 c 0,38,39
 316 400 316 400 340.5 393.5 c 128,-1,40
 365 387 365 387 376 378 c 1,41,42
 378 380 378 380 383.5 379 c 128,-1,43
 389 378 389 378 397 370 c 0,44,45
 406 359 406 359 404 354 c 128,-1,46
 402 349 402 349 395 342 c 256,47,48
 388 335 388 335 388 321 c 2,49,-1
 388 -1 l 1,50,-1
 349 -1 l 1,51,-1
 349 328 l 2,52,53
 349 334 349 334 349.5 339 c 128,-1,54
 350 344 350 344 353 349 c 1,0,1
82 306 m 0,55,56
 96 306 96 306 105.5 315 c 128,-1,57
 115 324 115 324 115 338 c 256,58,59
 115 352 115 352 105.5 361 c 128,-1,60
 96 370 96 370 82 370 c 0,61,62
 69 370 69 370 59.5 361 c 128,-1,63
 50 352 50 352 50 338 c 256,64,65
 50 324 50 324 59.5 315 c 128,-1,66
 69 306 69 306 82 306 c 0,55,56
EndSplineSet
EndChar
StartChar: uni0E18
Encoding: 3608 3608 235
Width: 388
Flags: W
Fore
279 223 m 2,0,1
 279 236 279 236 284 244 c 1,2,3
 239 269 239 269 156 271 c 1,4,-1
 156 61 l 2,5,6
 156 44 156 44 147 38 c 1,7,-1
 279 38 l 1,8,-1
 279 223 l 2,0,1
318 39 m 2,9,10
 318 25 318 25 307 14 c 0,11,12
 295 0 295 0 269 0 c 2,13,-1
 128 0 l 2,14,15
 123 0 123 0 122 -1.5 c 128,-1,16
 121 -3 121 -3 116 -5 c 0,17,18
 108 -7 108 -7 103.5 -6 c 128,-1,19
 99 -5 99 -5 91 9 c 0,20,21
 87 16 87 16 89.5 19.5 c 128,-1,22
 92 23 92 23 100 28 c 0,23,24
 111 35 111 35 114 43.5 c 128,-1,25
 117 52 117 52 117 57 c 2,26,-1
 117 271 l 1,27,28
 107 271 107 271 91 269 c 128,-1,29
 75 267 75 267 64 265 c 1,30,-1
 58 257 l 1,31,32
 56 251 56 251 47 251 c 128,-1,33
 38 251 38 251 32 254 c 256,34,35
 26 257 26 257 25.5 262 c 128,-1,36
 25 267 25 267 31 284 c 0,37,38
 38 304 38 304 51.5 326.5 c 128,-1,39
 65 349 65 349 87 367.5 c 128,-1,40
 109 386 109 386 140.5 397.5 c 128,-1,41
 172 409 172 409 215 407 c 0,42,43
 231 406 231 406 251 401.5 c 128,-1,44
 271 397 271 397 290 391 c 128,-1,45
 309 385 309 385 326 380 c 128,-1,46
 343 375 343 375 353 373 c 1,47,-1
 342 341 l 1,48,49
 333 342 333 342 317.5 347.5 c 128,-1,50
 302 353 302 353 283 358 c 128,-1,51
 264 363 264 363 244 367.5 c 128,-1,52
 224 372 224 372 206 372 c 0,53,54
 157 372 157 372 125 353.5 c 128,-1,55
 93 335 93 335 77 300 c 1,56,57
 119 307 119 307 155.5 306.5 c 128,-1,58
 192 306 192 306 221.5 300.5 c 128,-1,59
 251 295 251 295 272.5 287.5 c 128,-1,60
 294 280 294 280 306 273 c 1,61,62
 308 275 308 275 313.5 274 c 128,-1,63
 319 273 319 273 327 265 c 0,64,65
 336 254 336 254 334 249 c 128,-1,66
 332 244 332 244 325 237 c 256,67,68
 318 230 318 230 318 216 c 2,69,-1
 318 39 l 2,9,10
EndSplineSet
EndChar
